<?xml version="1.0" encoding="UTF-8"?>
<!DOCTYPE svg PUBLIC "-//W3C//DTD SVG 1.1//EN" "http://www.w3.org/Graphics/SVG/1.1/DTD/svg11.dtd">
<!-- Creator: CorelDRAW 2019 (64-Bit) -->
<svg xmlns="http://www.w3.org/2000/svg" xml:space="preserve" width="93.8377mm" height="50.3924mm" version="1.1" style="shape-rendering:geometricPrecision; text-rendering:geometricPrecision; image-rendering:optimizeQuality; fill-rule:evenodd; clip-rule:evenodd"
viewBox="0 0 41999.82 22554.6"
 xmlns:xlink="http://www.w3.org/1999/xlink">
 <defs>
  <style type="text/css">
   <![CDATA[
    .fil15 {fill:#18002F;fill-rule:nonzero}
    .fil2 {fill:#4E2079;fill-rule:nonzero}
    .fil4 {fill:#6A2B7C;fill-rule:nonzero}
    .fil12 {fill:#7A2F61;fill-rule:nonzero}
    .fil9 {fill:#943364;fill-rule:nonzero}
    .fil8 {fill:#A04468;fill-rule:nonzero}
    .fil7 {fill:#B55271;fill-rule:nonzero}
    .fil14 {fill:#D55461;fill-rule:nonzero}
    .fil6 {fill:#EC635B;fill-rule:nonzero}
    .fil0 {fill:#ED683C;fill-rule:nonzero}
    .fil5 {fill:#EF8259;fill-rule:nonzero}
    .fil11 {fill:#F18E48;fill-rule:nonzero}
    .fil10 {fill:#F29533;fill-rule:nonzero}
    .fil13 {fill:#F5A533;fill-rule:nonzero}
    .fil3 {fill:#F7B532;fill-rule:nonzero}
    .fil1 {fill:#FACB31;fill-rule:nonzero}
   ]]>
  </style>
 </defs>
 <g id="Слой_x0020_1">
  <metadata id="CorelCorpID_0Corel-Layer"/>
  <g id="_1599333226960">
   <path class="fil0" d="M10804.16 9606.49l-1194.19 -1401.46 1205.06 -1414.93 1194.19 1402.4 -1205.06 1413.99zm-5289.49 -6209.67l1622.88 -1438.97 2192.69 0 -1622.16 1440.62 2371.63 2529.81 -1204.08 1413.95 -3360.96 -3945.41zm5292.81 -1254.12l1427.42 1255.77 -1419.86 1667.01 -1421.51 -1668.67 1413.95 -1254.12zm5284.52 1255.77l-3348.43 3931.27 -1194.19 -1401.46 2380.14 -2529.81 -1638.9 -1440.62 2164.36 0 1637.02 1440.62zm5637.66 0l-3926.26 -3398.47 -738.64 839.44 2906.31 2559.04 -5288.78 6208.02 -1204.12 -1413.99 4331.14 -4794.02 -2932.27 -2559.04 -8163.22 0 -2899.69 2559.04 4326.88 4806.55 -1194.19 1401.46 -5289.49 -6209.67 2897.09 -2557.38 -741.95 -836.84 -3812.26 3395.87 6946.61 7932.58 1928.8 -2264.21 1928.53 2264.21 1939.41 -2276.48 1938.73 2276.48 7047.36 -7932.58z"/>
   <polygon class="fil1" points="1657.34,3398.74 0.22,3398.74 3812.48,2.6 4554.43,839.66 "/>
   <polygon class="fil2" points="19970.63,3398.74 21729.44,3398.74 17803.86,0.27 17065.26,839.66 "/>
   <polygon class="fil3" points="-0,3398.74 6946.83,11331.32 6946.83,9606.71 1657.07,3398.74 "/>
   <polygon class="fil4" points="21729.44,3398.74 14679.48,11331.32 14679.48,9606.71 19968.04,3398.74 "/>
   <polygon class="fil5" points="7138.04,1957.85 6713.11,839.44 3814.36,3398.47 5514.89,3396.81 "/>
   <polygon class="fil6" points="5514.67,3397.08 10804.39,9606.71 10804.39,11331.55 3814.36,3398.74 "/>
   <polygon class="fil7" points="16092.27,3398.74 14455.2,1957.85 14877.27,839.66 17809.32,3398.74 "/>
   <polygon class="fil8" points="14877.05,839.44 10438.54,839.44 11035.52,1957.85 14454.75,1957.85 "/>
   <polygon class="fil9" points="9393.26,3397.08 7707.63,3397.08 10574.73,839.66 11296.1,1697.49 "/>
   <polygon class="fil10" points="9338.74,839.44 12235.12,3398.47 13929.74,3398.47 11035.96,839.44 "/>
   <polygon class="fil11" points="6713.6,839.44 7138.26,1957.85 10604.23,1957.85 11035.52,839.44 "/>
   <polygon class="fil12" points="9393.26,3397.08 14679.48,9606.71 14679.48,11331.55 7707.63,3397.08 "/>
   <polygon class="fil13" points="6946.83,9606.49 12234.67,3398.47 13929.3,3398.47 6946.83,11331.05 "/>
   <polygon class="fil14" points="10804.16,9605.77 16092,3397.8 17809.32,3397.8 10804.16,11330.38 "/>
   <polygon class="fil15" points="7784.21,15556.34 8157.45,15556.34 8215.77,14725.27 7973.76,14725.27 7973.76,13089.46 7524.7,13089.46 7524.7,14725.27 6719.87,14725.27 6719.87,13089.46 6270.86,13089.46 6270.86,15130.6 7784.21,15130.6 "/>
   <polygon id="1" class="fil15" points="8530.68,15130.6 10084.86,15130.6 10084.86,14731.13 8976.79,14731.13 8976.79,14302.49 9939.04,14302.49 9939.04,13902.98 8976.79,13902.98 8976.79,13488.92 10070.27,13488.92 10070.27,13089.46 8530.68,13089.46 "/>
   <polygon id="2" class="fil15" points="10484.37,15130.6 10933.38,15130.6 10933.38,14311.22 11761.54,14311.22 11761.54,15130.6 12210.59,15130.6 12210.59,13089.46 11761.54,13089.46 11761.54,13897.16 10933.38,13897.16 10933.38,13089.46 10484.37,13089.46 "/>
   <polygon id="3" class="fil15" points="13175.75,15130.6 13624.81,15130.6 13624.81,13503.51 14245.87,13503.51 14245.87,13089.46 12554.65,13089.46 12554.65,13503.51 13175.75,13503.51 "/>
   <path id="4" class="fil15" d="M14590.01 15130.6l449.01 0 0 -612.33 341.19 0c457.78,0 825.2,-244.96 825.2,-717.34 0,-422.83 -294.51,-711.47 -781.47,-711.47l-833.93 0 0 2041.14zm449.01 -1011.84l0 -624.02 347.01 0c224.55,0 364.51,107.91 364.51,309.1 0,180.78 -131.23,314.92 -355.74,314.92l-355.78 0z"/>
   <path id="5" class="fil15" d="M17412.67 15130.6l449.01 0 0 -612.33 341.19 0c457.78,0 825.2,-244.96 825.2,-717.34 0,-422.83 -294.51,-711.47 -781.47,-711.47l-833.93 0 0 2041.14zm449.01 -1011.84l0 -624.02 347.01 0c224.55,0 364.51,107.91 364.51,309.1 0,180.78 -131.23,314.92 -355.74,314.92l-355.78 0z"/>
   <path id="6" class="fil15" d="M18981.48 15130.6l457.78 0 186.64 -457.78 863.11 0 186.6 457.78 469.47 0 -874.79 -2055.73 -414.06 0 -874.75 2055.73zm804.79 -854.38l271.19 -661.88 271.14 661.88 -542.33 0z"/>
   <path id="7" class="fil15" d="M22127.79 13054.46c-387.83,0 -632.79,137.05 -822.29,335.33l236.19 285.78c137.05,-140 300.33,-224.55 551.1,-224.55 195.37,0 329.51,84.55 329.51,227.46 0,154.55 -128.32,236.19 -364.51,236.19l-230.37 0 0 373.24 236.19 0c233.28,0 405.33,70 405.33,239.1 0,157.46 -154.55,244.96 -344.1,244.96 -265.33,0 -484.01,-96.23 -650.24,-259.55l-239.1 312.01c218.69,221.64 478.19,341.19 906.84,341.19 475.33,0 775.66,-259.51 775.66,-612.38 0,-259.51 -163.28,-411.15 -382.01,-481.1 180.82,-78.73 329.51,-215.78 329.51,-469.47 0,-317.83 -300.33,-548.2 -737.7,-548.2z"/>
   <path id="8" class="fil15" d="M23308.73 15130.6l970.98 0c460.74,0 763.97,-186.64 763.97,-559.88 0,-279.92 -145.78,-416.96 -381.96,-507.38 145.78,-81.64 268.23,-209.91 268.23,-440.28 0,-145.78 -46.64,-259.51 -139.96,-352.83 -116.64,-116.64 -300.33,-180.78 -533.6,-180.78l-947.66 0 0 2041.14zm437.37 -1215.94l0 -431.56 443.24 0c189.51,0 294.51,75.82 294.51,209.96 0,157.46 -125.41,221.6 -323.69,221.6l-414.06 0zm0 822.29l0 -449.06 519.01 0c230.37,0 332.42,84.55 332.42,221.6 0,157.46 -119.55,227.46 -317.83,227.46l-533.6 0z"/>
   <polygon id="9" class="fil15" points="27172.32,13089.46 26755.35,13089.46 25857.24,14427.86 25857.24,13089.46 25414.05,13089.46 25414.05,15130.6 25836.83,15130.6 26729.13,13792.2 26729.13,15130.6 27172.32,15130.6 "/>
   <polygon id="10" class="fil15" points="28137.52,15130.6 28586.58,15130.6 28586.58,13503.51 29207.64,13503.51 29207.64,13089.46 27516.42,13089.46 27516.42,13503.51 28137.52,13503.51 "/>
   <polygon id="11" class="fil15" points="31310.06,13089.46 30893.09,13089.46 29994.98,14427.86 29994.98,13089.46 29551.79,13089.46 29551.79,15130.6 29974.57,15130.6 30866.86,13792.2 30866.86,15130.6 31310.06,15130.6 "/>
   <path id="12" class="fil15" d="M33415.38 13089.46l-933.11 0c-478.19,0 -769.79,250.78 -769.79,673.56 0,335.33 177.87,542.38 437.37,638.61l-498.6 728.97 524.88 0 437.37 -653.15 352.83 0 0 653.15 449.06 0 0 -2041.14zm-903.93 991.39c-218.69,0 -344.1,-116.64 -344.1,-288.64 0,-198.32 134.14,-297.46 352.83,-297.46l446.15 0 0 586.11 -454.87 0z"/>
   <polygon class="fil15" points="6270.86,18629.73 6719.87,18629.73 6719.87,16993.87 7524.7,16993.87 7524.7,18629.73 7973.76,18629.73 7973.76,16588.59 6270.86,16588.59 "/>
   <path id="1" class="fil15" d="M8463.64 18629.73l449.01 0 0 -612.33 341.19 0c457.78,0 825.2,-244.96 825.2,-717.34 0,-422.83 -294.51,-711.47 -781.47,-711.47l-833.93 0 0 2041.14zm449.01 -1011.84l0 -624.02 347.01 0c224.55,0 364.51,107.91 364.51,309.1 0,180.78 -131.23,314.92 -355.74,314.92l-355.78 0z"/>
   <path id="2" class="fil15" d="M11402.89 18664.73c629.83,0 1087.66,-475.28 1087.66,-1055.57 0,-586.11 -451.97,-1055.57 -1081.84,-1055.57 -629.83,0 -1087.62,475.28 -1087.62,1055.57 0,586.11 451.97,1055.57 1081.8,1055.57zm5.82 -414.06c-361.55,0 -618.15,-291.6 -618.15,-641.52 0,-355.74 250.78,-641.52 612.33,-641.52 361.6,0 618.2,291.6 618.2,641.52 0,355.74 -250.78,641.52 -612.38,641.52z"/>
   <path id="3" class="fil15" d="M14228.46 17095.97c329.51,0 548.2,195.37 548.2,495.69 0,306.19 -218.69,498.6 -548.2,498.6l0 -994.3zm0 1615.4l0 -221.6c629.83,0 1011.84,-390.74 1011.84,-903.93 0,-513.24 -387.83,-889.38 -1011.84,-889.38l0 -186.6 -449.06 0 0 186.6c-626.92,0 -1011.84,376.15 -1011.84,886.48 0,516.1 382.01,906.84 1011.84,906.84l0 221.6 449.06 0zm-449.06 -621.11c-329.51,0 -551.1,-192.41 -551.1,-498.6 0,-300.33 221.6,-495.69 551.1,-495.69l0 994.3z"/>
   <polygon id="4" class="fil15" points="15607.72,18629.73 17161.89,18629.73 17161.89,18230.27 16053.82,18230.27 16053.82,17801.62 17016.07,17801.62 17016.07,17402.11 16053.82,17402.11 16053.82,16988.05 17147.3,16988.05 17147.3,16588.59 15607.72,16588.59 "/>
   <path id="5" class="fil15" d="M18459.47 18664.73c393.69,0 626.92,-122.46 836.88,-347.01l-285.73 -306.19c-160.41,145.82 -303.28,239.14 -536.56,239.14 -349.92,0 -591.92,-291.6 -591.92,-641.52 0,-355.74 247.87,-641.52 591.92,-641.52 233.28,0 367.42,84.55 524.88,227.46l268.28 -309.1c-189.55,-186.64 -405.33,-332.42 -790.25,-332.42 -626.92,0 -1064.3,475.28 -1064.3,1055.57 0,591.92 446.15,1055.57 1046.8,1055.57z"/>
   <path id="6" class="fil15" d="M20553.11 18664.73c393.69,0 626.92,-122.46 836.88,-347.01l-285.73 -306.19c-160.41,145.82 -303.28,239.14 -536.56,239.14 -349.92,0 -591.92,-291.6 -591.92,-641.52 0,-355.74 247.87,-641.52 591.92,-641.52 233.28,0 367.42,84.55 524.88,227.46l268.28 -309.1c-189.55,-186.64 -405.33,-332.42 -790.25,-332.42 -626.92,0 -1064.3,475.28 -1064.3,1055.57 0,591.92 446.15,1055.57 1046.8,1055.57z"/>
   <polygon id="7" class="fil15" points="23506.96,16588.59 23089.99,16588.59 22191.88,17926.99 22191.88,16588.59 21748.69,16588.59 21748.69,18629.73 22171.47,18629.73 23063.76,17291.33 23063.76,18629.73 23506.96,18629.73 "/>
   <path id="8" class="fil15" d="M24988.27 18664.73c629.83,0 1087.66,-475.28 1087.66,-1055.57 0,-586.11 -451.97,-1055.57 -1081.84,-1055.57 -629.83,0 -1087.62,475.28 -1087.62,1055.57 0,586.11 451.97,1055.57 1081.8,1055.57zm5.82 -414.06c-361.55,0 -618.15,-291.6 -618.15,-641.52 0,-355.74 250.78,-641.52 612.33,-641.52 361.6,0 618.2,291.6 618.2,641.52 0,355.74 -250.78,641.52 -612.38,641.52z"/>
   <polygon id="9" class="fil15" points="26475.44,18629.73 26924.45,18629.73 26924.45,17810.35 27752.61,17810.35 27752.61,18629.73 28201.66,18629.73 28201.66,16588.59 27752.61,16588.59 27752.61,17396.29 26924.45,17396.29 26924.45,16588.59 26475.44,16588.59 "/>
   <path id="10" class="fil15" d="M28516.58 18629.73l457.78 0 186.64 -457.78 863.11 0 186.6 457.78 469.47 0 -874.79 -2055.73 -414.06 0 -874.75 2055.73zm804.79 -854.38l271.19 -661.88 271.14 661.88 -542.33 0z"/>
   <path id="11" class="fil15" d="M31266.28 16588.59l0 422.78c0,1099.3 -137.05,1253.85 -379.05,1253.85 -29.14,0 -49.59,-2.91 -70,-5.82l-29.14 370.33c55.41,14.59 163.28,26.23 236.19,26.23 466.56,0 661.93,-306.14 661.93,-1507.54l0 -154.55 589.01 0 0 1635.86 449.06 0 0 -2041.14 -1457.99 0z"/>
   <path id="12" class="fil15" d="M33214.15 18629.73l854.34 0c478.24,0 775.66,-265.37 775.66,-685.24 0,-399.46 -274.1,-661.93 -746.47,-661.93l-434.51 0 0 -693.97 -449.01 0 0 2041.14zm845.61 -962.25c224.51,0 338.24,99.14 338.24,271.19 0,189.51 -113.73,285.73 -335.33,285.73l-399.51 0 0 -556.92 396.6 0z"/>
   <polygon id="13" class="fil15" points="35188.24,18629.73 35637.25,18629.73 35637.25,17810.35 36465.41,17810.35 36465.41,18629.73 36914.47,18629.73 36914.47,16588.59 36465.41,16588.59 36465.41,17396.29 35637.25,17396.29 35637.25,16588.59 35188.24,16588.59 "/>
   <path id="14" class="fil15" d="M37404.34 18629.73l854.34 0c478.24,0 775.66,-265.37 775.66,-685.24 0,-399.46 -274.1,-661.93 -746.47,-661.93l-434.51 0 0 -693.97 -449.01 0 0 2041.14zm845.61 -962.25c224.51,0 338.24,99.14 338.24,271.19 0,189.51 -113.73,285.73 -335.33,285.73l-399.51 0 0 -556.92 396.6 0zm1011.8 962.25l449.06 0 0 -2041.14 -449.06 0 0 2041.14z"/>
   <polygon id="15" class="fil15" points="40046.18,18629.73 40556.46,18629.73 41017.16,17929.9 41474.99,18629.73 41999.82,18629.73 41288.35,17585.84 41970.68,16588.59 41460.4,16588.59 41028.84,17250.51 40600.19,16588.59 40075.32,16588.59 40757.65,17591.66 "/>
   <polygon class="fil15" points="6270.86,22128.86 6719.87,22128.86 6719.87,21504.85 6956.1,21259.93 7588.84,22128.86 8128.27,22128.86 7259.33,20953.74 8090.36,20087.72 7548.02,20087.72 6719.87,20979.97 6719.87,20087.72 6270.86,20087.72 "/>
   <path id="1" class="fil15" d="M9245.11 22163.86c629.83,0 1087.66,-475.28 1087.66,-1055.57 0,-586.11 -451.97,-1055.57 -1081.84,-1055.57 -629.83,0 -1087.62,475.28 -1087.62,1055.57 0,586.11 451.97,1055.57 1081.8,1055.57zm5.82 -414.06c-361.55,0 -618.15,-291.6 -618.15,-641.52 0,-355.74 250.78,-641.52 612.33,-641.52 361.6,0 618.2,291.6 618.2,641.52 0,355.74 -250.78,641.52 -612.38,641.52z"/>
   <polygon id="2" class="fil15" points="10732.28,22128.86 11172.57,22128.86 11172.57,20805.01 11741.17,21668.12 11752.85,21668.12 12327.28,20796.28 12327.28,22128.86 12773.42,22128.86 12773.42,20087.72 12289.37,20087.72 11752.85,20950.83 11216.29,20087.72 10732.28,20087.72 "/>
   <polygon id="3" class="fil15" points="13263.3,22128.86 13712.31,22128.86 13712.31,20493 14517.15,20493 14517.15,22128.86 14966.2,22128.86 14966.2,20087.72 13263.3,20087.72 "/>
   <polygon id="4" class="fil15" points="15456.08,22128.86 17010.25,22128.86 17010.25,21729.4 15902.18,21729.4 15902.18,21300.75 16864.43,21300.75 16864.43,20901.24 15902.18,20901.24 15902.18,20487.18 16995.66,20487.18 16995.66,20087.72 15456.08,20087.72 "/>
   <polygon id="5" class="fil15" points="17885.05,22128.86 18334.1,22128.86 18334.1,20501.78 18955.17,20501.78 18955.17,20087.72 17263.94,20087.72 17263.94,20501.78 17885.05,20501.78 "/>
   <polygon id="6" class="fil15" points="19299.31,22128.86 20853.48,22128.86 20853.48,21729.4 19745.41,21729.4 19745.41,21300.75 20707.66,21300.75 20707.66,20901.24 19745.41,20901.24 19745.41,20487.18 20838.89,20487.18 20838.89,20087.72 19299.31,20087.72 "/>
   <polygon id="7" class="fil15" points="21252.99,22128.86 21702,22128.86 21702,21309.48 22530.16,21309.48 22530.16,22128.86 22979.22,22128.86 22979.22,20087.72 22530.16,20087.72 22530.16,20895.42 21702,20895.42 21702,20087.72 21252.99,20087.72 "/>
   <polygon id="8" class="fil15" points="24982.45,22554.6 25355.68,22554.6 25414,21723.53 25172,21723.53 25172,20087.72 24722.94,20087.72 24722.94,21723.53 23918.1,21723.53 23918.1,20087.72 23469.09,20087.72 23469.09,22128.86 24982.45,22128.86 "/>
   <polygon id="9" class="fil15" points="27487.19,20087.72 27070.23,20087.72 26172.11,21426.12 26172.11,20087.72 25728.92,20087.72 25728.92,22128.86 26151.7,22128.86 27044,20790.46 27044,22128.86 27487.19,22128.86 "/>
   <path id="10" class="fil15" d="M29735.38 20087.72l-416.96 0 -898.11 1338.4 0 -1338.4 -443.19 0 0 2041.14 422.78 0 892.29 -1338.4 0 1338.4 443.19 0 0 -2041.14zm-871.84 -154.55c268.28,0 449.06,-163.32 489.88,-443.24l-259.51 -46.64c-37.91,119.55 -107.91,195.37 -230.37,195.37 -122.46,0 -192.46,-75.82 -230.37,-195.37l-259.51 46.64c40.82,279.92 221.6,443.24 489.88,443.24z"/>
  </g>
 </g>
</svg>
