<?xml version="1.0" encoding="UTF-8"?>
<!DOCTYPE svg PUBLIC "-//W3C//DTD SVG 1.1//EN" "http://www.w3.org/Graphics/SVG/1.1/DTD/svg11.dtd">
<!-- Creator: CorelDRAW 2019 (64-Bit) -->
<svg xmlns="http://www.w3.org/2000/svg" xml:space="preserve" width="86.6571mm" height="25.4002mm" version="1.1" style="shape-rendering:geometricPrecision; text-rendering:geometricPrecision; image-rendering:optimizeQuality; fill-rule:evenodd; clip-rule:evenodd"
viewBox="0 0 8665.66 2540.01"
 xmlns:xlink="http://www.w3.org/1999/xlink">
 <defs>
  <style type="text/css">
   <![CDATA[
    .fil1 {fill:black}
    .fil0 {fill:#FF6600}
    .fil2 {fill:black;fill-rule:nonzero}
   ]]>
  </style>
 </defs>
 <g id="Layer_x0020_1">
  <metadata id="CorelCorpID_0Corel-Layer"/>
  <g id="_1599119979792">
   <g>
    <path class="fil0" d="M1456.65 1433.93c-26.25,6.63 -61.39,10.35 -89.35,13.76 -91.24,11.14 -200.53,14.42 -288.63,-3.51 -58.72,-11.95 -106.82,-36.28 -135.01,-70.97 -69.95,-86.11 -61.17,-240.98 -61.15,-349.2l-0.02 -513.44c0,-33.19 -1.23,-68.75 0.17,-101.8l185.57 0.04 0.76 155.42 370.93 0.33 -0.14 149.05 -371.39 -0.05c-1.52,41.48 -0.13,85.61 -0.13,127.38l0.03 251.72c0.01,43.14 -6.69,138.45 20.76,168.06 62.87,67.8 232.14,50.66 315.97,34.05 11.75,-2.32 42.32,-10.58 51.92,-10.55l-0.29 149.71zm-45.11 -1433.93l30.44 0c3.76,0.88 5.11,3.36 11.39,9.66 35.1,35.2 69.25,69.25 104.4,104.4 35.38,35.38 69.63,69.84 105.12,105.12 12.37,12.29 8.94,8.66 8.94,43.98l0 1408.72 -1437.38 0.11c-11.19,0 -10.51,-2.81 -16.71,-9.04l-209.51 -209.53c-5.12,-5.05 -7.34,-7.55 -8.23,-11.6l0 -33.09 0 -1408.73 1411.54 0zm-1183.86 565.66c57.65,-0.01 475.17,-1.12 490.06,0.51l0.01 871.04 -5.54 0.29c-53,1.4 -125.05,-0.02 -179.41,-0.02 0.1,-240.45 1.17,-484.38 -0.35,-724.62 -30.03,0 -291.1,1.04 -304.76,-0.51l0 -17.29 -0.01 -129.41zm304.86 -350.94l185.23 0.3 -0.48 193.64 -185.04 -0.27 0.29 -193.67z"/>
    <g>
     <path class="fil1" d="M197.36 2316.9c-12.99,0 -26.63,-0.91 -38.16,-6.17 -4.43,-2.03 -8.52,-3.58 -12.86,-5.73 -11,-5.44 -50.52,-35.43 -50.52,-42.45l0 -248.85 120.14 0c60.67,0 75.79,73.77 75.79,124.43 0,41.15 0.65,68.62 -12.32,107.81l-9.21 22.25c-12.37,24 -36.47,48.71 -72.86,48.71zm-197.36 223.11l95.82 0 0 -190.22c10.12,6.78 14.5,16.45 43.84,30.53 36.94,17.74 88.12,17.73 124.74,3.62 9.4,-3.62 16.18,-7.42 24.98,-12.2l22.76 -15.86c3.97,-3.82 6.23,-4.88 10.05,-8.54 19.22,-18.4 41.4,-54.38 50.89,-79.25 27.34,-71.66 29.17,-182.12 -6.01,-252.48 -23.78,-47.57 -55.51,-71.94 -108.58,-78.77 -6.06,-0.78 -12.05,0.09 -18.01,-0.58 -21.17,-2.36 -67.96,-1.19 -91.74,-1.22 -13.93,-0.02 -22.06,1.46 -35.75,1.43l-112.99 0 0 603.54z"/>
     <path class="fil1" d="M519.14 2255.4c0,-25.19 2.01,-31.44 17.38,-48.41l10.92 -9.1c35.58,-24.07 91.62,-24.01 136.17,-24.01l0 92.96c0,6.82 -36.49,26.83 -40.97,29.12 -32.31,16.53 -72.89,23.73 -104.33,0.35 -10.09,-7.5 -19.17,-23.66 -19.17,-40.91zm-62.92 -296.05l0.3 84.21c1.56,4.82 4.96,1.26 9.69,-1.22 7.56,-3.97 15.31,-8.12 23.1,-11.28 46.92,-19.03 66.4,-27.37 124.22,-27.37 77.19,0 70.08,52.3 70.08,102.97 -66.27,0 -103.7,-2.27 -164.67,22.68 -52.63,21.54 -98.47,67.94 -98.47,127.49 0,33.6 3.36,54.77 24.89,82.37l11.53 12.79c13.07,12.11 26.55,21.3 44.46,28.47 44.38,17.75 103.36,13.32 145.08,-7.78 9.66,-4.88 19.94,-9.92 28.62,-15.72l27.15 -18.61c2.71,11.64 17.99,28.79 26.83,36.1 24.6,20.32 59.67,19.63 89.89,11.97 31.61,-8.01 24.87,2.82 24.87,-69.52 0,-12.43 -44.41,16.23 -56.81,-10.41 -9.95,-21.4 -6.12,-75.86 -6.12,-102.57 0,-34.36 2.03,-134.05 -1.99,-161.06 -4.8,-32.33 -14.32,-65.69 -40.67,-86.61 -51.47,-40.87 -147.55,-31.02 -204.63,-19.66 -37.94,7.55 -60.48,18.83 -77.35,22.76z"/>
     <path class="fil1" d="M989.65 1996.54l0 -60.07 -95.82 0 0 447.65 95.82 0 0 -284.61c0,-4.44 28.83,-37.04 35.37,-43.29 3.51,-3.37 5.14,-3.9 8.6,-7.13 5.65,-5.25 11.41,-9.65 17.52,-13.95 11.15,-7.86 28.09,-15.55 44.19,-18.73 3.45,-0.68 10.33,-1.96 13.38,-2.35 5.24,-0.66 9.51,-0.19 14.8,-1 10.53,-1.6 19.34,1.85 29.18,2.07l0 61.5 75.79 0 0 -138.73c-5.84,-0.49 -15.1,-2.87 -20.37,-3.94 -36.24,-7.33 -82.2,-11.66 -117.86,-1.29 -13.86,4.03 -27.08,7.73 -39.57,14.77 -42.7,24.08 -45.71,38.84 -61.03,49.1z"/>
     <polygon class="fil1" points="1275.68,2384.12 1371.5,2384.12 1371.5,1792.02 1275.68,1792.02 "/>
     <path class="fil1" d="M1377.22 2149.57l202.86 226.18c8.68,11.02 9.38,8.38 27.39,8.37l108.69 0c-1.74,-6.52 -33.71,-37.35 -40.26,-45.55l-48.8 -54.18c-3.22,-3.35 -3.52,-4.61 -6.41,-7.88l-117.28 -130.15c-3.05,-3.43 -4.96,-4.45 -7.49,-8.23l116.05 -131.37c11.7,-14.61 55.78,-62.06 61.29,-70.29l-94.41 -0.01c-20.35,-0.17 -12.42,0.02 -22.48,10.4 -16.16,16.68 -35.79,40.89 -51.53,58.6l-127.62 144.11z"/>
    </g>
   </g>
   <path class="fil2" d="M2382.05 854.36c25.57,-2.3 48.1,-3.51 67.49,-3.51 60.57,0 107.7,13.93 141.39,41.92 33.8,27.86 50.64,67.97 50.64,120.31 0,48.09 -16.84,86.38 -50.64,114.85 -33.69,28.47 -80.82,42.77 -141.39,42.77l-159.08 0 0 -519.76 314.03 0 0 79.96 -222.44 0 0 123.46zm0 239.28c19.14,1.46 35.74,2.19 49.92,2.19 40.59,0 69.66,-7.64 87.23,-22.78 17.57,-15.15 26.41,-36.83 26.41,-65.31 0,-24.83 -7.99,-44.82 -24.11,-59.97 -15.99,-15.14 -44.95,-22.78 -86.75,-22.78 -16.47,0 -34.04,0.97 -52.7,2.79l0 165.86z"/>
   <polygon id="1" class="fil2" points="3061.12,1170.69 2972.44,1170.69 2972.44,940.98 2744.3,1179.41 2720.19,1179.41 2720.19,790.51 2808.87,790.51 2808.87,1020.21 3037.01,781.79 3061.12,781.79 "/>
   <path id="2" class="fil2" d="M3359.17 972.24c21.81,6.9 39.25,18.17 52.34,33.92 13.08,15.75 19.62,32.83 19.62,51.25 0,39.5 -14.41,69.54 -43.13,90.26 -28.71,20.72 -68.09,31.02 -118,31.02 -58.28,0 -106.86,-14.06 -145.63,-42.17l43.98 -69.78c30.28,25.68 66.03,38.53 107.34,38.53 42.53,0 63.85,-15.75 63.85,-47.13 0,-34.05 -25.2,-51.01 -75.72,-51.01 -18.9,0 -35.87,0.73 -50.77,2.18l0 -69.79c8.73,0.49 27.87,0.73 57.43,0.73 40.22,0 60.34,-14.05 60.34,-42.16 0,-12.97 -4.85,-23.39 -14.54,-31.14 -9.69,-7.87 -23.63,-11.75 -41.56,-11.75 -33.68,0 -66.64,9.69 -99.1,29.08l-31.63 -69.79c45.92,-21.32 91.6,-31.99 137.27,-31.99 41.8,0 75.48,10.18 100.81,30.54 25.44,20.35 38.16,45.67 38.16,76.2 0,40.95 -20.35,68.58 -61.06,83z"/>
   <polygon id="3" class="fil2" points="3843.19,1170.69 3754.5,1170.69 3754.5,1007.86 3596.75,1007.86 3596.75,1170.69 3508.07,1170.69 3508.07,790.51 3596.75,790.51 3596.75,934.43 3754.5,934.43 3754.5,790.51 3843.19,790.51 "/>
   <path id="4" class="fil2" d="M4280.07 1007.86l-271.99 0c1.45,30.16 11.87,53.79 31.5,70.63 19.5,16.84 45.31,25.32 77.54,25.32 40.1,0 70.87,-10.66 92.44,-31.98l34.05 68.33c-31.99,25.2 -78.51,37.8 -139.58,37.8 -57.79,0 -103.59,-16.72 -137.51,-50.04 -33.8,-33.44 -50.76,-81.05 -50.76,-143.08 0,-60.34 18.53,-109.05 55.73,-146 37.19,-37.07 81.54,-55.61 133.15,-55.61 54.52,0 98.5,16.36 132.18,49.19 33.56,32.71 50.4,74.75 50.4,126.12 0,12 -2.42,28.48 -7.15,49.32zm-268.36 -66.88l186.1 0c-5.94,-55.74 -36.71,-83.6 -92.32,-83.6 -49.92,0 -81.18,27.86 -93.78,83.6z"/>
   <path id="5" class="fil2" d="M4658.8 821.04l-38.05 66.15c-21.2,-19.87 -49.06,-29.8 -83.35,-29.8 -33.44,0 -59.97,11.02 -79.6,32.95 -19.63,22.05 -29.44,53.19 -29.44,93.66 0,79.84 37.8,119.82 113.28,119.82 33.68,0 62.76,-10.9 87.35,-32.71l32.72 69.79c-27.02,16.59 -50.04,27.01 -69.31,31.01 -19.14,4 -41.43,6.06 -66.75,6.06 -57.8,0 -103.84,-16.96 -138.12,-50.77 -34.29,-33.8 -51.49,-81.53 -51.49,-143.08 0,-60.34 18.41,-108.92 55.24,-145.63 36.84,-36.83 87.36,-55.25 151.81,-55.25 44.71,0 83.24,12.6 115.71,37.8z"/>
   <polygon id="6" class="fil2" points="4725.07,1002.04 4725.07,918.44 4912.62,918.44 4912.62,1002.04 "/>
   <polygon id="7" class="fil2" points="5409.97,1170.69 5317.65,1170.69 5317.65,821.04 5045.77,1178.69 5006.52,1178.69 5006.52,650.94 5098.84,650.94 5098.84,1000.59 5370.71,642.94 5409.97,642.94 "/>
   <polygon id="8" class="fil2" points="5846.98,1170.69 5758.29,1170.69 5758.29,1007.86 5600.54,1007.86 5600.54,1170.69 5511.86,1170.69 5511.86,790.51 5600.54,790.51 5600.54,934.43 5758.29,934.43 5758.29,790.51 5846.98,790.51 "/>
   <path id="9" class="fil2" d="M6265.56 1172.87c-12.6,1.45 -26.29,2.18 -41.32,2.18 -44.58,0 -70.27,-22.78 -77.17,-68.21 -9.69,-66.51 -47.74,-99.71 -114.13,-99.71l-2.18 0 0 163.56 -87.96 0 0 -380.19 87.96 0 0 143.21 4.24 0c64.57,0 100.92,-27.38 109.28,-82.15 6.67,-43.61 31.62,-65.42 74.76,-65.42 6.66,0 19.99,0.73 39.98,2.18l0 72.33c-6.06,-1.21 -11.51,-1.82 -16.36,-1.82 -9.33,0 -15.75,7.39 -19.26,22.05 -11.63,48.22 -44.1,78.03 -97.41,89.3 57.18,15.38 91.59,52.21 103.22,110.49 2.91,13.93 9.09,20.96 18.9,20.96 8.73,0 14.66,-0.48 17.45,-1.45l0 72.69z"/>
   <path id="10" class="fil2" d="M6511.87 1231.63c-9.45,25.32 -29.44,46.4 -59.85,63 -30.53,16.72 -67,25.08 -109.52,25.08l0 -78.51c68.33,0 102.49,-17.32 102.49,-51.85 0,-22.42 -9.45,-57.07 -28.35,-103.95l-119.21 -294.9 92.32 0 102.86 262.3 93.41 -262.3 92.32 0 -166.47 441.13z"/>
   <path id="11" class="fil2" d="M6785.92 878.58c17.09,-23.02 37.2,-40.83 60.58,-53.67 23.39,-12.72 46.53,-19.14 69.43,-19.14 52.09,0 93.41,16.11 123.82,48.34 30.41,32.1 45.67,75.48 45.67,129.88 0,56.46 -15.99,102.86 -48.1,139.33 -32.1,36.47 -77.17,54.64 -135.08,54.64 -58.52,0 -104.44,-20.35 -137.64,-61.06 -33.32,-40.71 -49.92,-96.2 -49.92,-166.47 0,-45.44 4,-85.42 12.12,-119.83 8,-34.53 20.48,-63.48 37.2,-87.23 16.84,-23.63 38.4,-42.89 64.69,-57.67 26.29,-14.78 59.37,-26.05 99.47,-33.92l123.22 -24.11 18.78 78.51c-95.23,17.93 -151.08,28.71 -167.56,32.22 -16.48,3.64 -33.56,10.42 -51.25,20.48 -17.81,10.05 -32.11,24.47 -43.01,43.37 -10.91,19.02 -18.42,44.35 -22.42,76.33zm120.07 228.14c29.08,0 51.61,-10.54 67.49,-31.74 15.99,-21.21 23.98,-49.31 23.98,-84.57 0,-36.83 -8.11,-65.3 -24.35,-85.42 -16.11,-20.11 -38.53,-30.16 -67.12,-30.16 -29.56,0 -53.55,10.78 -72.09,32.47 -18.41,21.56 -27.62,48.58 -27.62,80.93 0,34.53 9.45,62.88 28.35,85.17 18.9,22.17 42.77,33.32 71.36,33.32z"/>
   <path id="12" class="fil2" d="M7368.93 1132.77c-7.99,13.08 -22.53,23.99 -43.37,32.47 -20.84,8.48 -41.31,12.72 -61.43,12.72 -41.67,0 -74.02,-10.3 -97.04,-30.9 -22.9,-20.59 -34.41,-49.43 -34.41,-86.62 0,-41.92 15.87,-75.85 47.61,-102.02 31.63,-26.17 79,-39.25 141.88,-39.25 10.18,0 22.65,1.94 37.31,5.81 0,-45.07 -28.1,-67.6 -84.32,-67.6 -33.2,0 -61.31,5.57 -84.45,16.72l-18.78 -68.33c30.05,-15.03 66.4,-22.54 109.04,-22.54 58.64,0 101.29,13.57 127.95,40.59 26.65,27.14 39.98,76.81 39.98,149.14l0 81.18c0,50.64 10.18,82.5 30.53,95.47 -6.91,12.48 -14.54,20.23 -23.02,23.5 -8.6,3.27 -19.26,4.85 -31.99,4.85 -12.6,0 -23.98,-4.6 -34.16,-13.81 -10.18,-9.21 -17.33,-19.75 -21.33,-31.38zm-8.72 -140.91c-15.39,-2.9 -26.77,-4.36 -34.41,-4.36 -69.66,0 -104.43,22.66 -104.43,68.09 0,34.53 19.62,51.86 58.76,51.86 53.43,0 80.08,-26.54 80.08,-79.72l0 -35.87z"/>
   <polygon id="13" class="fil2" points="7718.72,865.39 7718.72,1170.69 7629.3,1170.69 7629.3,865.39 7520.26,865.39 7520.26,790.51 7827.75,790.51 7827.75,865.39 "/>
   <path id="14" class="fil2" d="M7875.61 979.5c0,-57.42 16.59,-104.55 49.91,-141.26 33.2,-36.71 77.42,-55.01 132.55,-55.01 57.79,0 102.62,17.69 134.48,53.19 31.99,35.5 47.98,83.23 47.98,143.08 0,62.28 -16.6,110.86 -49.92,145.88 -33.19,35.01 -77.42,52.58 -132.54,52.58 -57.31,0 -102.02,-17.93 -134.24,-53.79 -32.11,-35.87 -48.22,-84.09 -48.22,-144.67zm92.32 -0.12c0,83.97 30.04,125.89 90.14,125.89 27.26,0 49.07,-10.67 65.42,-32.11 16.48,-21.45 24.72,-52.7 24.72,-93.78 0,-82.26 -30.05,-123.46 -90.14,-123.46 -27.38,0 -49.31,10.79 -65.67,32.23 -16.36,21.57 -24.47,51.98 -24.47,91.23z"/>
   <path id="15" class="fil2" d="M8401.78 1161.24l0 158.47 -88.68 0 0 -529.21 88.68 0 0 25.56c22.54,-21.92 49.8,-32.83 82.03,-32.83 121.28,0 181.85,67 181.85,200.88 0,61.55 -16.72,109.28 -50.03,143.08 -33.44,33.81 -79.24,50.77 -137.52,50.77 -27.01,0 -52.46,-5.57 -76.33,-16.72zm0 -277.57l0 199.54c16.12,13.21 35.02,19.87 56.83,19.87 39.98,0 69.18,-9.81 87.35,-29.44 18.3,-19.62 27.38,-50.52 27.38,-92.92 0,-42.77 -8.6,-73.79 -25.8,-93.05 -17.09,-19.27 -46.77,-28.84 -88.93,-28.84 -21.33,0 -40.23,8.24 -56.83,24.84z"/>
   <path id="16" class="fil2" d="M2449.54 1905.06l-159.08 0 0 -519.88c70.15,-3.27 119.34,-4.97 147.44,-4.97 54.04,0 96.32,11.51 126.73,34.65 30.41,23.14 45.68,56.22 45.68,99.11 0,41.19 -21.81,73.78 -65.42,97.77 64.45,22.41 96.68,68.82 96.68,139.09 0,47.25 -17.81,84.81 -53.55,112.55 -35.74,27.75 -81.9,41.68 -138.48,41.68zm-66.76 -445.98l0 124.67c14.29,0.97 29.2,1.46 44.83,1.46 60.21,0 90.38,-22.66 90.38,-67.85 0,-40.1 -27.38,-60.1 -82.15,-60.1 -14.53,0 -32.22,0.61 -53.06,1.82zm0 197l0 171.56c18.66,1.7 33.8,2.55 45.43,2.55 41.07,0 71,-7.03 89.54,-20.96 18.53,-13.94 27.86,-37.08 27.86,-69.43 0,-29.56 -8.6,-51.13 -25.92,-64.57 -17.21,-13.45 -47.38,-20.24 -90.39,-20.24 -9.08,0 -24.47,0.37 -46.52,1.09z"/>
   <path id="17" class="fil2" d="M2962.99 1905.06l0 -31.99c-12.6,10.67 -29.81,19.87 -51.86,27.63 -22.05,7.75 -42.28,11.63 -60.7,11.63 -88.32,0 -132.42,-46.89 -132.42,-140.66l0 -246.8 88.68 0 0 240.13c0,48.83 21.93,73.18 65.67,73.18 20.23,0 38.89,-5.21 56.22,-15.63 17.2,-10.42 28.71,-22.53 34.41,-36.22l0 -261.46 88.68 0 0 380.19 -88.68 0z"/>
   <path id="18" class="fil2" d="M3124.25 1880.71l31.5 -70.88c26.53,21.32 56.46,31.99 89.77,31.99 34.53,0 51.74,-12.36 51.74,-36.96 0,-14.54 -5.21,-26.41 -15.63,-35.62 -10.42,-9.2 -30.53,-20.23 -60.58,-32.71 -65.55,-27.26 -98.26,-65.42 -98.26,-114.49 0,-32.96 12.48,-58.52 37.56,-76.94 25.08,-18.29 57.07,-27.5 96.08,-27.5 39.49,0 76.57,8.85 111.34,26.53l-25.44 68.7c-19.39,-16.48 -46.28,-24.72 -80.81,-24.72 -30.9,0 -46.41,12.36 -46.41,36.96 0,9.81 5.09,18.53 15.27,26.41 10.18,7.75 31.86,18.29 65.18,31.5 33.44,13.08 57.43,29.08 72.09,47.74 14.66,18.77 21.93,41.43 21.93,67.84 0,35.38 -13.09,63.13 -39.26,83.36 -26.04,20.23 -61.54,30.41 -106.49,30.41 -25.32,0 -45.68,-2.06 -60.82,-6.18 -15.27,-4.24 -34.9,-12.72 -58.76,-25.44z"/>
   <path id="19" class="fil2" d="M3529.64 1377.3c14.29,0 26.41,5.09 36.47,15.15 10.05,10.05 15.14,22.17 15.14,36.46 0,14.18 -5.09,26.42 -15.14,36.47 -10.06,10.06 -22.18,15.15 -36.47,15.15 -14.18,0 -26.41,-5.09 -36.47,-15.15 -10.06,-10.05 -15.15,-22.29 -15.15,-36.47 0,-14.29 5.09,-26.41 15.15,-36.46 10.06,-10.06 22.29,-15.15 36.47,-15.15zm-45.8 527.76l0 -307.5 -48.7 0 0 -72.69 138.84 0 0 380.19 -90.14 0z"/>
   <path id="20" class="fil2" d="M3921.7 1905.06l0 -219.9c0,-32.47 -6.18,-56.09 -18.66,-71 -12.36,-14.9 -32.59,-22.41 -60.7,-22.41 -12.96,0 -26.89,3.63 -41.68,11.02 -14.78,7.27 -26.29,16.48 -34.53,27.39l0 274.9 -88.68 0 0 -380.19 63.85 0 16.23 35.5c24.11,-28.47 59.73,-42.77 106.74,-42.77 45.19,0 80.81,13.57 106.98,40.71 26.05,27.02 39.14,64.94 39.14,113.4l0 233.35 -88.69 0z"/>
   <path id="21" class="fil2" d="M4445.82 1742.23l-271.64 0c1.7,30.28 12.12,53.91 31.26,70.75 19.14,16.84 44.95,25.2 77.42,25.2 40.59,0 71.36,-10.42 92.44,-31.26l34.41 67.61c-31.26,25.2 -77.78,37.8 -139.81,37.8 -57.92,0 -103.71,-16.96 -137.52,-51.01 -33.68,-33.92 -50.52,-81.41 -50.52,-142.24 0,-59.97 18.54,-108.55 55.49,-145.75 37.08,-37.19 81.42,-55.73 133.27,-55.73 55.13,0 99.35,16.48 132.67,49.43 33.32,32.96 50.04,74.88 50.04,125.76 0,10.91 -2.55,27.38 -7.51,49.44zm-268 -66.88l186.09 0c-6.17,-55.74 -36.83,-83.6 -91.95,-83.6 -50.53,0 -81.91,27.86 -94.14,83.6z"/>
   <path id="22" class="fil2" d="M4501.07 1880.71l31.5 -70.88c26.53,21.32 56.46,31.99 89.77,31.99 34.53,0 51.74,-12.36 51.74,-36.96 0,-14.54 -5.21,-26.41 -15.63,-35.62 -10.42,-9.2 -30.53,-20.23 -60.58,-32.71 -65.55,-27.26 -98.26,-65.42 -98.26,-114.49 0,-32.96 12.48,-58.52 37.56,-76.94 25.08,-18.29 57.07,-27.5 96.08,-27.5 39.49,0 76.57,8.85 111.34,26.53l-25.44 68.7c-19.39,-16.48 -46.28,-24.72 -80.81,-24.72 -30.9,0 -46.41,12.36 -46.41,36.96 0,9.81 5.09,18.53 15.27,26.41 10.18,7.75 31.86,18.29 65.18,31.5 33.44,13.08 57.43,29.08 72.09,47.74 14.66,18.77 21.93,41.43 21.93,67.84 0,35.38 -13.09,63.13 -39.26,83.36 -26.04,20.23 -61.54,30.41 -106.49,30.41 -25.32,0 -45.68,-2.06 -60.82,-6.18 -15.27,-4.24 -34.9,-12.72 -58.76,-25.44z"/>
   <path id="23" class="fil2" d="M4814.14 1880.71l31.5 -70.88c26.53,21.32 56.46,31.99 89.77,31.99 34.53,0 51.74,-12.36 51.74,-36.96 0,-14.54 -5.21,-26.41 -15.63,-35.62 -10.42,-9.2 -30.53,-20.23 -60.58,-32.71 -65.55,-27.26 -98.26,-65.42 -98.26,-114.49 0,-32.96 12.48,-58.52 37.56,-76.94 25.08,-18.29 57.07,-27.5 96.08,-27.5 39.49,0 76.57,8.85 111.34,26.53l-25.44 68.7c-19.39,-16.48 -46.28,-24.72 -80.81,-24.72 -30.9,0 -46.41,12.36 -46.41,36.96 0,9.81 5.09,18.53 15.27,26.41 10.18,7.75 31.86,18.29 65.18,31.5 33.44,13.08 57.43,29.08 72.09,47.74 14.66,18.77 21.93,41.43 21.93,67.84 0,35.38 -13.09,63.13 -39.26,83.36 -26.04,20.23 -61.54,30.41 -106.49,30.41 -25.32,0 -45.68,-2.06 -60.82,-6.18 -15.27,-4.24 -34.9,-12.72 -58.76,-25.44z"/>
   <polygon id="24" class="fil2" points="5376.79,1905.06 5376.79,1385.3 5469.11,1385.3 5469.11,1905.06 "/>
   <path id="25" class="fil2" d="M5816.1 1905.06l0 -219.9c0,-32.47 -6.18,-56.09 -18.66,-71 -12.36,-14.9 -32.59,-22.41 -60.7,-22.41 -12.96,0 -26.89,3.63 -41.68,11.02 -14.78,7.27 -26.29,16.48 -34.53,27.39l0 274.9 -88.68 0 0 -380.19 63.85 0 16.23 35.5c24.11,-28.47 59.73,-42.77 106.74,-42.77 45.19,0 80.81,13.57 106.98,40.71 26.05,27.02 39.14,64.94 39.14,113.4l0 233.35 -88.69 0z"/>
   <path id="26" class="fil2" d="M6299.02 1554.67l-37.92 66.16c-20.84,-19.39 -48.7,-29.08 -83.72,-29.08 -33.56,0 -60.09,11.15 -79.6,33.56 -19.5,22.41 -29.2,53.43 -29.2,93.05 0,79.84 37.93,119.82 113.89,119.82 32.83,0 61.79,-10.9 86.87,-32.71l32.59 69.79c-25.81,16.11 -48.34,26.41 -67.6,30.65 -19.27,4.24 -42.05,6.42 -68.22,6.42 -58.76,0 -105.04,-17.08 -138.96,-51.37 -33.93,-34.17 -50.89,-81.78 -50.89,-142.6 0,-59.97 18.54,-108.44 55.73,-145.39 37.08,-36.95 87.72,-55.37 151.81,-55.37 44.23,0 82.63,12.36 115.22,37.07z"/>
   <path id="27" class="fil2" d="M6617.91 1905.06l0 -31.99c-12.6,10.67 -29.81,19.87 -51.86,27.63 -22.05,7.75 -42.28,11.63 -60.7,11.63 -88.32,0 -132.42,-46.89 -132.42,-140.66l0 -246.8 88.68 0 0 240.13c0,48.83 21.93,73.18 65.67,73.18 20.23,0 38.89,-5.21 56.22,-15.63 17.2,-10.42 28.71,-22.53 34.41,-36.22l0 -261.46 88.68 0 0 380.19 -88.68 0z"/>
   <path id="28" class="fil2" d="M6865.07 1884.34l-19.87 27.99 -50.04 0 0 -528.97 88.69 -21.32 0 177.25c23.62,-14.42 49.43,-21.69 77.41,-21.69 55.62,0 100.44,17.57 134.61,52.7 34.04,35.26 51.13,80.33 51.13,135.21 0,63.73 -17.21,114.13 -51.49,151.21 -34.29,37.07 -80.82,55.61 -139.46,55.61 -35.37,0 -65.66,-9.33 -90.98,-27.99zm18.78 -268.84l0 198.21c13.08,15.38 30.65,23.02 52.94,23.02 42.89,0 73.18,-10.18 91.11,-30.53 17.81,-20.24 26.78,-52.83 26.78,-97.41 0,-77.06 -36.96,-115.59 -110.86,-115.59 -26.17,0 -46.28,7.39 -59.97,22.3z"/>
   <path id="29" class="fil2" d="M7436.69 1867.14c-8,13.2 -22.05,24.11 -42.04,32.59 -19.99,8.36 -40.83,12.6 -62.64,12.6 -40.83,0 -73.06,-10.3 -96.44,-30.77 -23.39,-20.48 -35.14,-49.56 -35.14,-87.24 0,-44.1 16.48,-78.63 49.43,-103.46 32.96,-24.84 79.85,-37.32 140.55,-37.32 10.42,0 22.65,1.69 36.83,5.09 0,-44.59 -28.23,-66.88 -84.69,-66.88 -33.32,0 -61.31,5.57 -83.72,16.72l-19.14 -69.06c30.53,-14.54 66.88,-21.81 109.04,-21.81 57.91,0 100.44,13.21 127.45,39.62 27.02,26.41 40.47,76.33 40.47,149.99l0 81.3c0,50.64 10.18,82.5 30.53,95.47 -7.39,12.96 -15.51,20.84 -24.47,23.87 -8.97,3.03 -19.27,4.48 -30.9,4.48 -12.84,0 -24.35,-4.73 -34.53,-14.3 -10.17,-9.45 -17.08,-19.75 -20.59,-30.89zm-8.73 -141.63c-15.14,-2.91 -26.41,-4.37 -34.04,-4.37 -69.91,0 -104.8,23.15 -104.8,69.31 0,34.28 19.75,51.37 59.12,51.37 53.19,0 79.72,-26.9 79.72,-80.57l0 -35.74z"/>
   <path id="30" class="fil2" d="M7625.45 1596.11l-44.34 0 0 -71.24 44.34 0 0 -77.18 88.69 -32.59 0 109.77 104.68 0 0 71.24 -104.68 0 0 166.71c0,27.26 4.24,46.53 12.84,57.79 8.6,11.27 23.51,16.84 44.95,16.84 21.45,0 41.44,-5.81 59.97,-17.44l0 81.66c-20.59,7.15 -50.03,10.66 -88.32,10.66 -37.92,0 -67.12,-10.66 -87.47,-32.11 -20.48,-21.44 -30.66,-51.97 -30.66,-91.59l0 -192.52z"/>
   <path id="31" class="fil2" d="M7875.87 1714.12c0,-58.04 16.72,-105.29 50.16,-141.76 33.44,-36.46 77.66,-54.76 132.55,-54.76 57.67,0 102.37,17.57 134.36,52.58 31.86,35.02 47.86,83 47.86,143.94 0,60.58 -16.24,108.8 -48.71,144.54 -32.59,35.74 -77.05,53.67 -133.51,53.67 -57.8,0 -102.62,-18.05 -134.61,-54.16 -32.11,-36.1 -48.1,-84.2 -48.1,-144.05zm92.32 0c0,83.72 30.17,125.52 90.39,125.52 27.62,0 49.43,-10.91 65.66,-32.6 16.12,-21.8 24.23,-52.82 24.23,-92.92 0,-82.51 -29.92,-123.83 -89.89,-123.83 -27.75,0 -49.68,10.91 -65.91,32.6 -16.36,21.8 -24.48,52.21 -24.48,91.23z"/>
   <path id="32" class="fil2" d="M8531.7 1607.74c-15.88,-10.66 -33.2,-15.99 -52.1,-15.99 -20.6,0 -38.89,9.33 -54.89,28.11 -15.99,18.66 -23.99,41.55 -23.99,68.57l0 216.63 -88.68 0 0 -380.19 88.68 0 0 34.89c24.84,-28.1 57.92,-42.16 99.11,-42.16 30.29,0 53.43,4.6 69.54,13.93l-37.67 76.21z"/>
  </g>
 </g>
</svg>
