<?xml version="1.0" encoding="UTF-8"?>
<!DOCTYPE svg PUBLIC "-//W3C//DTD SVG 1.1//EN" "http://www.w3.org/Graphics/SVG/1.1/DTD/svg11.dtd">
<!-- Creator: CorelDRAW 2019 (64-Bit) -->
<svg xmlns="http://www.w3.org/2000/svg" xml:space="preserve" width="158.032mm" height="51.4824mm" version="1.1" style="shape-rendering:geometricPrecision; text-rendering:geometricPrecision; image-rendering:optimizeQuality; fill-rule:evenodd; clip-rule:evenodd"
viewBox="0 0 32810.86 10688.89"
 xmlns:xlink="http://www.w3.org/1999/xlink">
 <defs>
  <style type="text/css">
   <![CDATA[
    .fil0 {fill:#005FA0}
   ]]>
  </style>
 </defs>
 <g id="Слой_x0020_1">
  <metadata id="CorelCorpID_0Corel-Layer"/>
  <path class="fil0" d="M8893 1667.54l-148.22 0 0 1231.1 -564.11 0 0 -2882.17 564.11 0 0 1276.38 131.76 -57.64 794.65 -1218.74 642.3 0 -839.91 1210.52 -222.36 156.44 230.59 160.6 959.36 1354.61 -695.87 0 -852.29 -1231.1zm-8813.66 -1643.77l5963.16 0 71.57 0 7.77 0 0 7.81 0 71.53 0 4688 0 21.47 0.08 0.73 0 0.29 0.06 4.67 0 0.17 -0.15 14.78 0 0 0 29.42 0 7.81 -0.81 0c-9.57,283.22 -96.46,574.99 -246.22,854.55 -153.47,286.54 -373.01,560.33 -642.84,798.93 -283.32,250.48 -622.62,462.75 -999.35,610.47 -348.78,136.76 -729.79,218.36 -1128.36,223.88l-43.23 0.58 -0.1 0c-395.64,0 -773.95,-71.3 -1121.16,-196.6 -370.83,-133.79 -706.29,-329.23 -989.67,-565.09 -285.81,-237.83 -519.01,-517.19 -682.85,-816.49 -159.27,-291.04 -252.95,-601.07 -265.67,-910.24l-1.56 0 0 -7.81 0 -64.38 0 -7.14 0 -4688 0 -71.53 0 -7.81 7.81 0 71.53 0zm2128.31 6459.33l87.47 0 0 -248.5 9.43 -42.79 -30.19 37.12 -56.02 38.37 -34.59 -47.19 143.45 -115.75 45.95 0 0 378.74 85.58 0 0 69.22 -251.08 0 0 -69.22zm456.87 -38.39c0,-14.68 1.87,-27.78 5.65,-39.32 3.8,-11.52 9.14,-22.01 16.05,-31.43 6.93,-9.43 15.09,-17.96 24.56,-25.48 9.43,-7.58 19.58,-14.47 30.48,-20.76 -20.53,-13.04 -36.69,-28.01 -48.44,-45.01 -11.73,-16.96 -17.63,-38.06 -17.63,-63.22 0,-16.34 3.05,-31.68 9.14,-45.95 6.08,-14.24 14.91,-26.62 26.45,-37.1 11.5,-10.51 25.45,-18.69 41.84,-24.52 16.34,-5.9 34.82,-8.84 55.35,-8.84 18.89,0 36.08,2.51 51.59,7.58 15.51,5.02 28.84,12.17 39.95,21.41 11.11,9.22 19.7,20.43 25.79,33.61 6.08,13.23 9.14,27.82 9.14,43.77 0,24.73 -5.56,45.7 -16.67,62.89 -11.11,17.19 -27.39,32.93 -48.77,47.19 25.16,14.68 44.14,30.85 56.95,48.44 12.79,17.63 19.16,40.28 19.16,67.98 0,18.87 -3.43,35.94 -10.34,51.28 -6.91,15.3 -16.67,28.4 -29.27,39.32 -12.56,10.9 -27.68,19.37 -45.3,25.45 -17.63,6.12 -36.89,9.14 -57.91,9.14 -20.97,0 -39.95,-2.84 -56.91,-8.51 -17,-5.65 -31.45,-13.52 -43.41,-23.57 -11.94,-10.05 -21.18,-22.24 -27.68,-36.52 -6.52,-14.24 -9.76,-30.19 -9.76,-47.82zm202.58 -8.16c0,-9.65 -2.3,-18.46 -6.91,-26.43 -4.63,-7.97 -10.59,-15.22 -17.92,-21.7 -7.35,-6.5 -15.51,-12.5 -24.54,-17.96 -9.03,-5.42 -18.15,-10.67 -27.39,-15.7 -19.7,11.32 -33.24,23.59 -40.57,36.81 -7.35,13.18 -11.02,26.31 -11.02,39.3 0,16.82 5.77,31.12 17.29,43.1 11.54,11.94 27.59,17.92 48.13,17.92 18.87,0 34.09,-4.63 45.64,-13.85 11.54,-9.24 17.29,-23.05 17.29,-41.5zm-113.9 -215.82c0,10.09 1.93,18.89 5.69,26.43 3.78,7.58 8.91,14.16 15.43,19.81 6.48,5.69 13.81,10.92 22.01,15.74 8.18,4.84 16.67,9.32 25.5,13.54 25.14,-21.41 37.75,-44.89 37.75,-70.49 0,-17.59 -5.13,-30.91 -15.41,-39.95 -10.3,-9.01 -22.76,-13.52 -37.48,-13.52 -18.46,0 -31.97,4.82 -40.55,14.49 -8.62,9.65 -12.93,20.95 -12.93,33.95zm380.14 110.77c0,-77.19 13.2,-134.56 39.64,-172.08 26.41,-37.56 64.38,-56.35 113.84,-56.35 52.86,0 91.69,18.56 116.46,55.68 24.73,37.14 37.1,94.72 37.1,172.74 0,77.57 -13.33,135.25 -39.95,173.01 -26.66,37.72 -64.72,56.62 -114.23,56.62 -52.4,0 -91,-19.81 -115.73,-59.46 -24.77,-39.66 -37.12,-96.36 -37.12,-170.17zm81.78 0c0,51.16 5.56,90.71 16.67,118.57 11.11,27.88 29.46,41.84 55.02,41.84 24.77,0 42.94,-12.79 54.44,-38.37 11.54,-25.58 17.29,-66.25 17.29,-122.04 0,-50.76 -5.42,-89.98 -16.34,-117.68 -10.9,-27.68 -29.57,-41.52 -56.02,-41.52 -25.16,0 -43.29,13 -54.4,39.01 -11.11,25.99 -16.67,66.04 -16.67,120.19zm722.98 98.14l-69.18 0 0 122.68 -76.18 0 0 -122.68 -190.6 0 0 -46.57 199.44 -274.31 67.33 0 0 255.44 69.18 0 0 65.44zm-145.36 -161.72l5.69 -52.84 -2.51 0 -21.39 45.3 -65.44 84.92 -31.45 23.92 40.28 -5.02 74.83 0 0 -96.27zm-1654 -4437.63c-185.68,-104.5 -265.09,47.75 -447.55,85.58 -202.06,41.9 -255.87,-115.71 -341.91,-256.35 142.3,29.9 150.59,96.79 336.12,-30.29 136.35,-93.35 309,-32.2 409.87,82.68l-112.22 -301.99c334.83,-2.72 712,-46.42 1042.43,0l41.79 7.02c353.41,69.74 620.06,372.33 620.06,755.23 0,280.27 -160.39,591.66 -394.96,757.3l0 35.15c313.9,-72.02 672.74,-334.79 704.88,-482.41 -45.91,-17.94 -156.15,-81.26 -154.8,-88.8 -122.87,-88.14 -175.59,-263.8 -146.62,-396.87 29,-133.07 90.9,-197.39 179.34,-250.99 60.9,-30.85 116.06,-49.58 182.11,-56.16l1651.76 -232.97c7.81,55.83 13.18,112.64 15.86,169.23 47.86,1010.27 -732.72,1868.41 -1743.03,1916.27 -345.46,16.34 -791.12,-174.84 -948,-501.43 -8.16,1.35 -16.4,2.74 -24.69,3.76 -60.02,6.66 -115.85,16.9 -167.8,30.29 -52.76,219.66 396.72,390.33 917.71,474.13l-83.44 120.84c98.56,-31.12 203.49,-47.92 312.31,-47.92 572.7,0 1037.18,464.43 1037.18,1037.2 0,572.68 -464.47,1037.11 -1037.18,1037.11 -572.68,0 -1037.16,-464.43 -1037.16,-1037.11 0,-58.86 5,-116.58 14.43,-172.7l35.44 5.19 627.89 42.67c-31.14,50.97 -49.21,110.89 -49.21,175.05 0,185.61 150.53,336.12 336.12,336.12 185.61,0 336.1,-150.51 336.1,-336.12 0,-182.65 -145.75,-331.3 -327.27,-335.99l-1.12 -3.28 -41.23 4.88c-4.03,0.39 -8.14,0.89 -12.21,1.37l-540.86 63.57c-236.15,38.78 -440.64,54.4 -615.12,48.73l-748.17 1020.63 -93.55 -247.78c-528.83,-44.41 -345.84,200.25 -227.35,300.39 11.59,9.76 11.71,50.68 0.73,59.61 -194.27,-14.87 -364,-170.71 -364,-373.66 0,-202.95 168.59,-376.4 376.4,-376.4 138.73,0 259.86,75.06 325.18,186.78l339.73 -1071.41 -53.75 0 -205.55 295.47c-121.21,-126.59 -215.68,-278.94 -274.21,-448.09l-574.14 -710.9c-24.37,55.06 -61.66,103.08 -107.86,140.48l-114.59 -303.44c-253.84,-12.6 -410.49,48.67 -278.98,241.61l55.06 0.64 -7.18 -95.3 159.33 0 -25.12 333.44 0.19 2.39 -0.35 0 -0.44 6.02 -109.06 0 -0.46 -22.24 -8.08 -107.22c-145.23,-51.84 -282.68,-166.31 -282.68,-348.62 0,-140.37 95.11,-282.18 230.5,-344.01l-73.58 -977.07 -178.02 -225.77 301.01 0c-11.29,-125.11 27.34,-260.48 100.88,-369.75 -66.71,11.27 -128.31,47.03 -187.86,146.06 -39.37,-214.56 140.66,-490.51 385.95,-449.27 246.3,41.46 223.38,-29.84 352.81,-126.4 -9.22,79.93 -10.71,160.33 -28.36,229.73 253.74,27.59 242.15,-65.17 405.36,-186.86 -29.17,251.91 -2.28,506.72 -311.41,578.87 -281.78,65.84 -492.36,-98.95 -685.38,177.62l34.3 0 367.2 0 -177.54 225.17 -72.02 955.75c60.71,14.47 115.79,43.79 161.07,83.75l458.2 275.12 100.47 372.16 47.13 0c48.11,-623.01 560.77,-1115.87 1191.92,-1132.99l-24.52 -61.48 -634.45 2.93 -119.78 -313.92zm-28.51 -100.16c20.01,25.75 36.48,53.84 48.29,83.09 270.26,48.46 771.57,360.22 604.26,-83.09l-652.56 0zm440.84 -902.2l163.4 0 0 39.22 51.59 0 0 126.98c-33.07,13.66 -56.35,46.24 -56.35,84.23 0,40.3 26.18,74.39 62.47,86.43l0.5 0.17 1.45 0.5 0.25 0.04 0.87 0.25 0.06 0 1 0.31 0.02 0 0.54 0.12 1.58 0.44 0.04 0 0.5 0.12 0.56 0.15 0.52 0.12 0.1 0 0.44 0.12 0.56 0.1 0.56 0.12 0.96 0.21 0.1 0.04 0.52 0.08 0.58 0.1 0.52 0.1 0.21 0.04 1.45 0.23 0.56 0.08 0.23 0.04 0.04 0 0.69 0.1 0.12 0 0.56 0.1 0.54 0.06 0.29 0.06 0.31 0.04 0.52 0.06 0.6 0.06 0.96 0.1 0.69 0.06 0.56 0.06 0.58 0.04 1.12 0.08 0.56 0.04 0.02 0 1.04 0.06 0.08 0 2.22 0.06 0.06 0 1 0.04 0.17 0 0.56 0 0.56 0c50.31,0 91.04,-40.74 91.04,-91l-0.02 -1.72 0 -0.62 -0.08 -1.62 -0.08 -1.66c-0.08,-1.06 -0.15,-2.12 -0.25,-3.14l-0.12 -1.27 0 -0.17 -0.19 -1.41 0 -0.25c-0.27,-1.91 -0.58,-3.82 -0.93,-5.71l-0.21 -0.83 -0.35 -1.62 0 -0.1 -0.77 -3.09 -0.42 -1.56 -0.04 -0.17 -0.54 -1.85 -0.08 -0.31 -0.27 -0.79c-4.51,-13.95 -12.21,-26.39 -22.3,-36.48l-0.17 -0.12 -1.12 -1.12 -1.12 -1.06 0 -0.04 -0.75 -0.66 -0.48 -0.42 -1.16 -1.04 -0.02 -0.02 -1.16 -1.04 -0.5 -0.39 -0.02 0 -1.62 -1.33 -0.08 -0.02 -0.29 -0.23c-1,-0.77 -2.01,-1.54 -3.03,-2.28l-0.15 -0.15 -0.69 -0.42 -1.12 -0.77 -0.17 -0.12 -1.33 -0.89 -0.37 -0.21 -0.29 -0.23c-1.12,-0.71 -2.28,-1.39 -3.45,-2.06l0 -0.02c-1.29,-0.71 -2.57,-1.39 -3.86,-2.06l-0.35 -0.23 -1.47 -0.73 -0.17 -0.04 -1.29 -0.62 0 -23.65c0,-74.93 65.94,-173.34 140.89,-175.38l139.02 -3.74 -198.72 520.14 -568.34 1.95 -198.32 -520.14 132.09 1.79c74.97,1 140.83,100.45 140.83,175.38l0 23.77c-18.37,8.57 -33.39,23.09 -42.58,41.07l-0.1 0.25 -0.73 1.37 -0.17 0.37 -0.89 1.95 -0.02 0.06 -0.25 0.56 -0.69 1.45 -0.6 1.54 -0.19 0.52 -0.04 0.06 -0.73 1.99 -0.02 0.02 -0.15 0.39 -0.56 1.56 -0.06 0.15c-1.18,3.53 -2.16,7.16 -2.91,10.88l0 0c-0.6,2.91 -1.06,5.85 -1.39,8.82l0 0.37c-0.17,1.35 -0.27,2.68 -0.33,4.03l-0.04 0.46 0 0.46 -0.06 1.87 -0.02 0.62 -0.04 1.72c0,50.27 40.74,91 91,91l0.6 0 0.6 0 0.12 0 1 -0.04 0.02 0 2.26 -0.06 0.12 0 1.02 -0.06 0 0 0.58 -0.04 1.12 -0.08 0.56 -0.04 0.58 -0.06 0.71 -0.06 0.96 -0.1 0.6 -0.06 0.52 -0.06 0.27 -0.04 0.29 -0.06 0.56 -0.06 0.54 -0.1 0.56 -0.06 0.29 -0.04 0.27 -0.04 0.52 -0.08 0.58 -0.08 0.89 -0.15 0.19 -0.04 0.54 -0.1 0.56 -0.1 0.52 -0.08 0.06 0 1.04 -0.25 0.52 -0.12 0.54 -0.1 0.5 -0.12 3.26 -0.83 0.54 -0.12c38.45,-10.69 66.63,-45.86 66.63,-87.7 0,-37.99 -23.27,-70.57 -56.35,-84.23l0 -126.98 51.61 0 0 -39.22zm2281.83 3137.86c438.44,-177.81 845.6,-474.98 938.51,-1215.34 -86.5,365.56 -276.39,567.78 -514.45,679.88 -254.67,119.88 -564.38,136.64 -861.61,139.69 200.81,86.64 336.49,211.21 437.54,395.77zm1130.25 -3783.35l-5804.45 0 0 4529.34 0.56 0 -0.1 7.85 -0.5 50.78 0 20.04 0.04 0 0 7.81c0,297.96 83.63,599.26 234.49,883 154.57,290.65 379.74,562.91 657.95,794.42 269.62,224.38 588.84,410.26 941.88,537.55 330.51,119.13 690.76,186.96 1067.88,186.96l0 0 41.5 0c378.95,-5.25 741.4,-82.95 1073.3,-213.19 358.58,-140.75 681.64,-342.91 951.45,-581.47 260.48,-230.34 471.14,-494.27 615.83,-769.03 141.83,-269.39 220.31,-549.26 220.31,-818.11 0,-11.21 0.08,-14.16 0.17,-15.57l-0.04 0 0 -3.74 0.04 0 0 -0.17 -0.31 0 0 -7.81 0 -11.94 0.04 0 -0.85 -59.53 -0.15 -7.87 0.96 0 0 -4529.34zm20633.57 8776.75l-591.02 0 0 1697.17 -225 0 0 -1697.17 -591.02 0 0 -200.58 1407.03 0 0 200.58zm-2796.75 -200.58l1032.96 0 0 200.58 -807.92 0 0 620.85 740.13 0 0 200.65 -740.13 0 0 675.04 821.48 0 0 200.63 -1046.52 0 0 -1897.75zm-397.43 200.58l-591.02 0 0 1697.17 -225 0 0 -1697.17 -591.02 0 0 -200.58 1407.03 0 0 200.58zm-2029.51 412.13l16.26 -216.9 -10.84 0 -116.56 222.28 -916.36 1279.66 -132.88 0 0 -1897.75 225.04 0 0 1301.31 -18.98 214.18 10.84 0 119.28 -222.32 916.36 -1293.17 132.84 0 0 1897.75 -225 0 0 -1285.04zm-1612.04 1206.43c-54.21,41.57 -122.89,70.47 -206.02,86.74 -83.13,16.28 -171.7,24.4 -265.67,24.4 -113.9,0 -220.52,-19.43 -319.92,-58.3 -99.41,-38.85 -186.17,-98.04 -260.3,-177.58 -74.08,-79.5 -132.84,-181.19 -176.19,-305 -43.39,-123.78 -65.09,-270.64 -65.09,-440.55 0,-177.12 23.96,-327.59 71.86,-451.39 47.9,-123.83 111.16,-225 189.77,-303.65 78.63,-78.61 166.74,-135.99 264.32,-172.16 97.62,-36.15 197.03,-54.21 298.25,-54.21 108.44,0 196.99,5.85 265.67,17.63 68.7,11.75 127.42,27.55 176.23,47.42l-54.23 197.93c-86.74,-41.57 -210.55,-62.37 -371.44,-62.37 -74.08,0 -147.29,13.56 -219.58,40.67 -72.29,27.12 -136.91,71.4 -193.86,132.84 -56.91,61.48 -102.54,141.91 -136.91,241.32 -34.32,99.41 -51.51,221.41 -51.51,365.98 0,130.14 16.26,244.02 48.81,341.6 32.53,97.6 77.28,178.95 134.19,244 56.95,65.09 123.81,113.88 200.63,146.39 76.82,32.53 160.39,48.81 250.77,48.81 81.37,0 152.29,-8.14 212.85,-24.4 60.54,-16.28 111.6,-37.04 153.16,-62.35l54.21 176.23zm-2802.19 -1800.21c68.7,-16.24 142.8,-27.07 222.34,-32.49 79.52,-5.44 158.13,-8.14 235.84,-8.14 83.17,0 167.68,8.14 253.53,24.4 85.83,16.24 164.02,46.07 234.49,89.46 70.51,43.37 127.87,103 172.16,178.93 44.29,75.91 66.44,172.6 66.44,290.09 0,115.69 -20.8,213.27 -62.37,292.79 -41.57,79.54 -96.69,144.15 -165.39,193.86 -68.68,49.7 -147.29,85.39 -235.84,107.09 -88.57,21.7 -179.84,32.53 -273.85,32.53 -9.03,0 -23.94,0 -44.7,0 -20.8,0 -42.5,-0.46 -65.09,-1.35 -22.59,-0.93 -44.7,-2.28 -66.4,-4.07 -21.7,-1.83 -37.08,-3.63 -46.11,-5.42l0 721.13 -225.04 0 0 -1878.81zm463.62 154.53c-47.01,0 -92.16,0.93 -135.56,2.72 -43.35,1.83 -77.71,6.35 -103.02,13.56l0 786.22c9.03,3.61 23.48,5.9 43.39,6.79 19.87,0.89 40.65,1.81 62.33,2.7 21.7,0.89 42.5,1.37 62.37,1.37 19.89,0 34.34,0 43.39,0 61.44,0 122.43,-5.9 182.98,-17.63 60.54,-11.75 115.25,-32.97 164.02,-63.7 48.81,-30.75 88.14,-74.1 117.93,-130.16 29.84,-56.02 44.74,-127.42 44.74,-214.16 0,-74.1 -13.99,-136.01 -42.02,-185.72 -28.03,-49.7 -65.05,-89.44 -111.16,-119.28 -46.07,-29.84 -98.04,-51.05 -155.88,-63.72 -57.84,-12.64 -115.69,-19 -173.51,-19zm-2034.95 -173.47l1032.96 0 0 200.58 -807.92 0 0 620.85 740.13 0 0 200.65 -740.13 0 0 675.04 821.48 0 0 200.63 -1046.52 0 0 -1897.75zm-557.34 433.76c0,45.18 -7.25,91.27 -21.7,138.26 -14.45,47.01 -36.15,90.81 -65.09,131.49 -28.9,40.67 -65.94,76.36 -111.14,107.09 -45.18,30.71 -98.48,54.23 -159.95,70.51l0 10.84c54.23,9.03 106.18,24.4 155.88,46.07 49.7,21.7 93.55,51.51 131.49,89.49 37.95,37.95 68.68,84.02 92.18,138.26 23.48,54.23 35.23,118.39 35.23,192.51 0,97.58 -20.31,182.06 -60.98,253.47 -40.67,71.4 -93.99,129.68 -159.97,174.88 -65.96,45.18 -141.43,78.61 -226.39,100.3 -84.92,21.7 -171.68,32.53 -260.25,32.53 -30.73,0 -66.85,0 -108.44,0 -41.57,0 -84.94,-1.35 -130.12,-4.07 -45.2,-2.7 -90.38,-6.31 -135.56,-10.84 -45.2,-4.53 -84.96,-11.32 -119.32,-20.35l0 -1867.96c66.92,-10.82 144.63,-19.89 233.18,-27.09 88.55,-7.25 185.26,-10.84 290.09,-10.84 70.51,0 142.32,5.85 215.55,17.63 73.17,11.73 139.61,34.32 199.23,67.75 59.65,33.45 108.9,80 147.76,139.63 38.85,59.65 58.3,136.47 58.3,230.46zm-628.99 1290.48c57.84,0 113.86,-6.79 168.09,-20.35 54.23,-13.56 102.13,-35.21 143.7,-65.05 41.57,-29.81 74.54,-66.44 98.93,-109.81 24.42,-43.35 36.6,-94.88 36.6,-154.53 0,-74.08 -14.91,-133.73 -44.74,-178.91 -29.79,-45.22 -68.68,-80.43 -116.56,-105.76 -47.88,-25.29 -101.65,-42.46 -161.32,-51.49 -59.61,-9.05 -119.28,-13.56 -178.93,-13.56l-235.86 0 0 680.48c12.66,3.63 30.73,6.33 54.23,8.12 23.48,1.83 48.79,3.65 75.91,5.44 27.12,1.81 55.12,3.18 84.07,4.07 28.9,0.89 54.19,1.35 75.89,1.35zm-149.11 -889.25c30.73,0 67.79,-0.89 111.16,-2.7 43.37,-1.83 79.52,-4.55 108.46,-8.14 43.35,-14.45 84.02,-32.08 122,-52.88 37.95,-20.76 71.82,-45.18 101.65,-73.19 29.81,-28.01 53.3,-60.54 70.51,-97.58 17.15,-37.08 25.72,-77.28 25.72,-120.67 0,-59.63 -11.27,-108.9 -33.86,-147.76 -22.63,-38.85 -52.88,-70.01 -90.86,-93.51 -37.93,-23.48 -81.3,-40.22 -130.12,-50.16 -48.81,-9.92 -98.52,-14.93 -149.11,-14.93 -59.63,0 -114.32,1.37 -164.02,4.07 -49.7,2.72 -87.2,6.79 -112.51,12.21l0 645.25 140.98 0zm-1170.1 -222.28l16.28 -216.9 -10.86 0 -116.56 222.28 -916.36 1279.66 -132.88 0 0 -1897.75 225.04 0 0 1301.31 -18.98 214.18 10.84 0 119.28 -222.32 916.36 -1293.17 132.84 0 0 1897.75 -225 0 0 -1285.04zm-1964.46 414.79l-910.94 0 0 870.25 -225.04 0 0 -1897.75 225.04 0 0 826.86 910.94 0 0 -826.86 225 0 0 1897.75 -225 0 0 -870.25zm-2219.29 -27.12l70.47 241.28 13.56 0 54.23 -249.42 363.3 -992.25 230.44 0 -479.88 1233.52c-48.77,128.33 -91.71,235.42 -128.77,321.27 -37.04,85.83 -74.54,155.45 -112.51,208.76 -37.95,53.3 -78.63,91.27 -122,113.86 -43.37,22.59 -96.69,33.88 -159.95,33.88 -59.65,0 -107.11,-4.96 -142.32,-14.91 -35.25,-9.97 -68.27,-24.83 -98.97,-44.74l67.79 -187.05c36.15,19.87 69.57,32.51 100.3,37.93 30.71,5.42 58.74,8.14 84.07,8.14 50.6,0 93.06,-25.77 127.42,-77.26 34.32,-51.51 64.16,-127.87 89.44,-229.11l-702.16 -1404.31 260.25 0 485.3 1000.39zm23577.45 -4195.57l20.58 -292.33 -12.33 0 -177.06 300.55 -732.93 930.54 -337.59 0 0 -2058.7 535.25 0 0 979.96 -24.71 280 16.49 0 168.82 -292.35 741.11 -967.6 337.61 0 0 2058.7 -535.23 0 0 -938.76zm-572.33 -1959.87c19.21,107.05 51.45,182.54 96.75,226.45 45.3,43.91 103.6,65.88 174.98,65.88 76.88,0 137.92,-21.97 183.23,-65.88 45.3,-43.91 76.16,-118.01 92.64,-222.32l407.65 102.92c-32.95,178.43 -113.92,310.87 -242.94,397.33 -129,86.47 -280,129.7 -452.93,129.7 -85.08,0 -167.43,-9.59 -247.03,-28.8 -79.62,-19.23 -150.98,-50.12 -214.12,-92.66 -63.12,-42.54 -116.66,-96.77 -160.57,-162.65 -43.91,-65.88 -74.12,-146.85 -90.59,-242.92l452.93 -107.05zm-3026.26 2449.86c82.34,16.46 160.57,24.71 234.7,24.71 123.51,0 209.99,-22.65 259.38,-67.95 49.41,-45.28 74.12,-115.98 74.12,-212.04 0,-87.84 -24.71,-154.41 -74.12,-199.67 -49.39,-45.32 -131.78,-67.98 -247.05,-67.98 -90.59,0 -172.93,9.63 -247.03,28.84l0 494.1zm0 -877c65.88,-10.98 132.44,-18.56 199.67,-22.67 67.27,-4.13 128.35,-6.17 183.25,-6.17 139.98,0 256.64,15.76 349.97,47.34 93.33,31.6 168.82,76.18 226.45,133.83 57.64,57.66 98.81,125.57 123.51,203.82 24.71,78.21 37.08,162.63 37.08,253.22 0,123.51 -16.49,231.93 -49.41,325.26 -32.93,93.33 -86.47,170.87 -160.57,232.62 -74.12,61.77 -170.19,108.42 -288.24,140 -118.03,31.56 -263.49,47.36 -436.42,47.36 -156.48,0 -291.67,-2.74 -405.57,-8.22 -113.92,-5.5 -218.92,-12.37 -314.98,-20.62l0 -2058.7 535.27 0 0 732.93zm1354.63 -732.93l535.25 0 0 2058.7 -535.25 0 0 -2058.7zm-2894.54 1247.58l-671.12 0 0 811.12 -535.27 0 0 -2058.7 535.27 0 0 774.1 671.12 0 0 -774.1 535.25 0 0 2058.7 -535.25 0 0 -811.12zm-2688.62 362.34c82.34,16.46 160.57,24.71 234.7,24.71 131.74,0 227.12,-22.65 286.14,-67.95 59.03,-45.28 88.53,-115.98 88.53,-212.04 0,-178.41 -120.77,-267.65 -362.34,-267.65 -90.59,0 -172.93,9.63 -247.03,28.84l0 494.1zm0 -877c65.88,-10.98 132.44,-18.56 199.67,-22.67 67.27,-4.13 128.35,-6.17 183.25,-6.17 142.72,0 263.49,15.76 362.34,47.34 98.81,31.6 179.09,76.18 240.84,133.83 61.77,57.66 106.39,125.57 133.83,203.82 27.45,78.21 41.17,162.63 41.17,253.22 0,249.77 -74.12,436.44 -222.36,559.96 -148.22,123.51 -399.38,185.28 -753.46,185.28 -156.48,0 -291.67,-2.74 -405.57,-8.22 -113.92,-5.5 -218.92,-12.37 -314.98,-20.62l0 -2058.7 535.27 0 0 732.93zm-1535.78 -259.4l-407.62 0c-16.46,194.87 -35.67,388.4 -57.64,580.53 -21.99,192.18 -56.97,364.4 -104.99,516.75 -48.04,152.35 -113.24,275.87 -195.58,370.56 -82.36,94.68 -189.41,142.03 -321.17,142.03 -159.18,0 -271.76,-20.55 -337.64,-61.77l65.88 -444.66c43.95,16.49 85.13,24.71 123.56,24.71 54.9,0 102.9,-23.34 144.07,-70.01 41.21,-46.65 76.2,-130.39 104.99,-251.16 28.84,-120.77 52.15,-284.8 70.01,-492 17.86,-207.25 30.89,-470.08 39.12,-788.51l1412.27 0 0 2058.7 -535.25 0 0 -1585.17zm-3174.52 -354.12c109.83,-49.39 240.2,-88.51 391.18,-117.33 150.96,-28.84 308.82,-43.25 473.5,-43.25 142.72,0 262.14,17.17 358.21,51.49 96.07,34.3 172.24,83.03 228.51,146.17 56.29,63.12 96.07,138.63 119.4,226.45 23.32,87.84 34.98,186.65 34.98,296.44 0,120.77 -4.09,242.23 -12.33,364.4 -8.22,122.14 -13.06,242.23 -14.41,360.25 -1.39,118.05 2.06,232.64 10.28,343.82 8.24,111.16 28.84,216.16 61.77,315l-436.44 0 -86.47 -284.11 -20.58 0c-54.9,85.08 -131.09,158.5 -228.51,220.27 -97.46,61.75 -223.05,92.64 -376.75,92.64 -96.07,0 -182.54,-14.43 -259.4,-43.23 -76.86,-28.84 -142.72,-70.01 -197.61,-123.51 -54.9,-53.55 -97.46,-116.66 -127.67,-189.41 -30.19,-72.73 -45.26,-154.41 -45.26,-244.99 0,-126.26 28.11,-232.64 84.4,-319.07 56.29,-86.47 137.24,-156.48 242.92,-209.99 105.7,-53.55 231.96,-90.59 378.81,-111.18 146.83,-20.58 310.87,-26.76 492.02,-18.52 19.21,-153.7 8.22,-264.2 -32.95,-331.47 -41.17,-67.25 -133.13,-100.86 -275.87,-100.86 -107.03,0 -220.27,10.98 -339.69,32.95 -119.38,21.95 -217.53,50.76 -294.37,86.43l-127.67 -399.38zm679.38 1531.69c107.05,0 192.13,-24 255.27,-72.07 63.16,-48.04 109.83,-99.49 140.02,-154.39l0 -267.65c-85.08,-8.22 -166.78,-9.61 -244.97,-4.13 -78.25,5.5 -147.56,17.86 -207.95,37.08 -60.38,19.21 -108.44,46.65 -144.11,82.34 -35.69,35.67 -53.5,80.97 -53.5,135.87 0,76.86 22.61,136.55 67.91,179.12 45.3,42.56 107.76,63.82 187.34,63.82zm-2890.39 -1651.09l391.14 0 61.77 247.05 16.46 0c71.38,-104.29 155.76,-181.15 253.22,-230.54 97.46,-49.46 216.16,-74.14 356.16,-74.14 258.01,0 451.54,81.68 580.55,245.01 129,163.29 193.5,426.12 193.5,788.47 0,175.67 -20.55,334.17 -61.77,475.54 -41.17,141.37 -102.21,261.46 -183.21,360.29 -80.97,98.83 -179.8,174.28 -296.46,226.43 -116.64,52.2 -250.48,78.25 -401.44,78.25 -85.08,0 -155.09,-6.19 -209.99,-18.52 -54.9,-12.37 -109.79,-32.24 -164.69,-59.73l0 844.07 -535.25 0 0 -2882.17zm918.17 395.27c-104.31,0 -185.99,26.1 -244.97,78.25 -59.03,52.15 -104.99,130.39 -137.94,234.7l0 856.4c38.43,30.19 80.29,54.23 125.57,72.04 45.3,17.88 104.99,26.76 179.09,26.76 153.74,0 269.04,-54.21 345.88,-162.63 76.86,-108.4 115.29,-287.52 115.29,-537.33 0,-181.15 -30.21,-321.13 -90.59,-419.98 -60.38,-98.81 -157.83,-148.22 -292.33,-148.22zm-1362.87 1486.39c-82.34,65.88 -194.21,121.46 -335.58,166.76 -141.35,45.28 -291.65,67.93 -450.83,67.93 -332.15,0 -575.09,-96.77 -728.8,-290.3 -153.7,-193.48 -230.56,-459.07 -230.56,-796.71 0,-362.3 86.45,-634.08 259.4,-815.23 172.93,-181.15 415.85,-271.76 728.75,-271.76 104.33,0 205.9,13.72 304.71,41.17 98.81,27.47 186.63,72.75 263.49,135.87 76.88,63.14 138.63,148.22 185.28,255.31 46.67,107.03 70.01,240.18 70.01,399.38 0,57.64 -3.43,119.4 -10.28,185.28 -6.87,65.88 -17.17,134.5 -30.89,205.86l-1235.21 0c8.24,172.91 52.82,303.32 133.79,391.14 80.99,87.84 212.04,131.76 393.24,131.76 112.53,0 213.39,-17.13 302.61,-51.47 89.19,-34.32 157.15,-69.3 203.82,-104.99l177.04 349.99zm-765.86 -1511.09c-139.98,0 -243.58,41.88 -310.85,125.61 -67.23,83.69 -107.74,195.58 -121.46,335.56l765.84 0c10.96,-148.22 -11.65,-262.14 -67.93,-341.75 -56.24,-79.6 -144.77,-119.42 -265.59,-119.42zm-1173.44 2157.53l-391.14 0 -61.77 -469.39 -1383.43 0 -61.79 469.39 -391.14 0 0 -942.87 242.92 0c21.97,-30.19 50.12,-81.68 84.4,-154.41 34.34,-72.75 68.62,-172.24 102.96,-298.52 34.32,-126.26 63.82,-282.74 88.51,-469.37 24.71,-186.65 37.04,-407.62 37.04,-662.92l1432.88 0 0 1585.22 300.55 0 0 942.87zm-835.82 -918.17l0 -1157.02 -432.31 0c-5.5,98.83 -15.11,203.82 -28.84,315 -13.72,111.18 -30.89,218.92 -51.47,323.21 -20.6,104.31 -44.6,201.77 -72.04,292.35 -27.45,90.56 -57.64,166.06 -90.59,226.45l675.25 0zm-1609.88 271.74c-82.34,65.88 -194.23,121.46 -335.6,166.76 -141.33,45.28 -291.65,67.93 -450.83,67.93 -332.15,0 -575.09,-96.77 -728.8,-290.3 -153.7,-193.48 -230.56,-459.07 -230.56,-796.71 0,-362.3 86.45,-634.08 259.4,-815.23 172.93,-181.15 415.85,-271.76 728.75,-271.76 104.33,0 205.9,13.72 304.71,41.17 98.81,27.47 186.65,72.75 263.49,135.87 76.88,63.14 138.63,148.22 185.28,255.31 46.67,107.03 70.01,240.18 70.01,399.38 0,57.64 -3.43,119.4 -10.28,185.28 -6.87,65.88 -17.17,134.5 -30.89,205.86l-1235.21 0c8.24,172.91 52.82,303.32 133.79,391.14 80.99,87.84 212.04,131.76 393.24,131.76 112.53,0 213.39,-17.13 302.63,-51.47 89.17,-34.32 157.13,-69.3 203.8,-104.99l177.06 349.99zm-765.88 -1511.09c-139.98,0 -243.58,41.88 -310.85,125.61 -67.23,83.69 -107.74,195.58 -121.46,335.56l765.84 0c10.96,-148.22 -11.65,-262.14 -67.93,-341.75 -56.24,-79.6 -144.77,-119.42 -265.59,-119.42zm-2820.38 1712.84c-46.67,16.46 -95.38,26.1 -146.19,28.84 -50.78,2.74 -96.75,4.11 -137.92,4.11 -249.77,0 -441.94,-89.24 -576.44,-267.65 -134.48,-178.41 -201.75,-451.52 -201.75,-819.36 0,-351.32 74.1,-617.61 222.36,-798.76 148.2,-181.15 362.3,-271.76 642.3,-271.76 76.86,0 142.74,5.48 197.64,16.46l0 -798.76 527.03 0 0 802.9c49.39,-8.22 93.31,-13.72 131.74,-16.46 38.43,-2.74 75.49,-4.13 111.18,-4.13 271.74,0 476.24,80.29 613.48,240.88 137.26,160.57 205.88,423.42 205.88,788.47 0,172.93 -18.54,328.71 -55.58,467.34 -37.08,138.61 -91.27,257.33 -162.63,356.16 -71.38,98.83 -158.54,174.28 -261.46,226.43 -102.94,52.2 -221.66,78.25 -356.16,78.25 -24.71,0 -61.08,-2.06 -109.13,-6.19 -48.02,-4.11 -87.14,-11.65 -117.33,-22.63l0 794.63 -527.03 0 0 -798.76zm650.54 -1700.47c-27.45,0 -51.47,2.06 -72.07,6.15 -20.58,4.15 -45.97,8.93 -76.16,14.43l0 1276.38c21.95,5.5 47.36,8.93 76.16,10.32 28.84,1.35 59.71,2.06 92.66,2.06 131.74,0 228.51,-54.21 290.26,-162.63 61.77,-108.44 92.66,-288.91 92.66,-541.46 0,-214.08 -30.21,-368.49 -90.59,-463.21 -60.38,-94.72 -164.73,-142.03 -312.93,-142.03zm-794.67 1309.33c30.19,0 58.34,-2.06 84.44,-6.19 26.06,-4.09 54.19,-8.93 84.38,-14.41l0 -1272.27c-52.13,-10.96 -105.68,-16.46 -160.57,-16.46 -126.26,0 -223.03,48.71 -290.26,146.17 -67.27,97.44 -100.9,264.2 -100.9,500.24 0,214.12 30.89,378.12 92.66,492.04 61.75,113.92 158.52,170.87 290.26,170.87zm17107.73 -4175.88l20.58 -292.33 -12.33 0 -177.06 300.55 -732.93 930.54 -337.59 0 0 -2058.7 535.25 0 0 979.94 -24.71 280.02 16.49 0 168.82 -292.35 741.11 -967.6 337.61 0 0 2058.7 -535.23 0 0 -938.76zm-572.33 -1959.87c19.21,107.05 51.45,182.54 96.75,226.45 45.3,43.91 103.6,65.88 174.98,65.88 76.88,0 137.92,-21.97 183.23,-65.88 45.3,-43.91 76.16,-118.01 92.64,-222.32l407.65 102.92c-32.95,178.43 -113.92,310.87 -242.94,397.33 -129,86.47 -280,129.7 -452.91,129.7 -85.1,0 -167.45,-9.59 -247.05,-28.82 -79.62,-19.21 -150.98,-50.1 -214.12,-92.64 -63.12,-42.54 -116.66,-96.77 -160.57,-162.65 -43.91,-65.88 -74.12,-146.85 -90.59,-242.92l452.93 -107.05zm-1671.63 1959.87l20.55 -292.33 -12.33 0 -177.04 300.55 -732.93 930.54 -337.61 0 0 -2058.7 535.27 0 0 979.94 -24.71 280.02 16.46 0 168.82 -292.35 741.13 -967.6 337.61 0 0 2058.7 -535.23 0 0 -938.76zm-2573.37 86.47l-144.13 0 0 852.29 -535.25 0 0 -2058.7 535.25 0 0 877 127.65 -57.64 481.72 -819.36 572.31 0 -498.19 782.32 -209.99 156.44 230.59 160.6 555.83 959.34 -613.5 0 -502.28 -852.29zm-1004.68 724.64c-82.34,60.4 -181.86,106.39 -298.5,137.94 -116.66,31.58 -236.77,47.36 -360.29,47.36 -164.69,0 -304,-26.08 -417.9,-78.25 -113.92,-52.15 -206.54,-125.57 -277.92,-220.27 -71.38,-94.68 -122.85,-209.3 -154.39,-343.8 -31.58,-134.5 -47.36,-282.7 -47.36,-444.69 0,-348.58 78.21,-616.91 234.7,-804.95 156.44,-188.02 384.27,-282.03 683.47,-282.03 150.96,0 272.42,12.35 364.4,37.06 91.94,24.71 174.96,56.29 249.08,94.72l-127.63 436.42c-63.12,-30.21 -125.59,-53.5 -187.34,-69.99 -61.77,-16.46 -132.44,-24.69 -212.07,-24.69 -148.22,0 -260.75,48.71 -337.61,146.17 -76.86,97.42 -115.27,253.2 -115.27,467.3 0,87.84 9.59,168.82 28.8,242.94 19.21,74.1 48.04,138.63 86.47,193.52 38.43,54.9 88.53,98.1 150.28,129.68 61.77,31.58 133.83,47.36 216.18,47.36 90.56,0 167.43,-11.67 230.54,-35.03 63.14,-23.3 119.42,-51.45 168.84,-84.38l123.51 407.6zm-2462.19 -683.47l-671.12 0 0 811.12 -535.27 0 0 -2058.7 535.27 0 0 774.08 671.12 0 0 -774.08 535.25 0 0 2058.7 -535.25 0 0 -811.12zm-3260.96 -1128.18c109.81,-49.39 240.18,-88.53 391.18,-117.33 150.96,-28.84 308.8,-43.25 473.48,-43.25 142.72,0 262.14,17.15 358.21,51.49 96.07,34.28 172.26,83.03 228.51,146.17 56.29,63.12 96.07,138.63 119.4,226.45 23.32,87.84 35.01,186.65 35.01,296.44 0,120.77 -4.11,242.23 -12.35,364.4 -8.22,122.14 -13.06,242.23 -14.41,360.25 -1.39,118.05 2.06,232.64 10.28,343.82 8.24,111.16 28.84,216.16 61.79,314.98l-436.46 0 -86.47 -284.09 -20.58 0c-54.9,85.08 -131.07,158.5 -228.51,220.27 -97.46,61.75 -223.05,92.64 -376.75,92.64 -96.07,0 -182.54,-14.43 -259.4,-43.23 -76.84,-28.84 -142.72,-70.01 -197.61,-123.51 -54.9,-53.55 -97.46,-116.66 -127.65,-189.41 -30.21,-72.73 -45.28,-154.41 -45.28,-244.99 0,-126.26 28.11,-232.64 84.4,-319.07 56.29,-86.47 137.24,-156.48 242.92,-209.99 105.7,-53.55 231.96,-90.59 378.83,-111.18 146.83,-20.58 310.85,-26.76 492,-18.52 19.21,-153.72 8.24,-264.2 -32.93,-331.47 -41.17,-67.25 -133.15,-100.86 -275.87,-100.86 -107.05,0 -220.29,10.98 -339.69,32.95 -119.38,21.95 -217.55,50.76 -294.39,86.43l-127.65 -399.38zm679.38 1531.69c107.03,0 192.13,-24.02 255.25,-72.07 63.16,-48.04 109.83,-99.49 140.02,-154.39l0 -267.65c-85.08,-8.22 -166.76,-9.61 -244.97,-4.13 -78.25,5.5 -147.56,17.86 -207.95,37.08 -60.38,19.21 -108.42,46.65 -144.11,82.34 -35.69,35.67 -53.5,80.97 -53.5,135.87 0,76.86 22.61,136.55 67.93,179.12 45.3,42.56 107.74,63.82 187.34,63.82zm-2231.65 -444.69l0 -374.67 251.18 0c96.07,0 174.98,-19.23 236.73,-57.66 61.77,-38.41 92.66,-89.22 92.66,-152.33 0,-74.12 -27.45,-126.96 -82.34,-158.52 -54.9,-31.58 -138.63,-47.34 -251.16,-47.34 -107.05,0 -201.77,13.72 -284.11,41.17 -82.34,27.45 -148.24,56.24 -197.66,86.43l-115.27 -407.6c82.34,-46.67 191.47,-87.14 327.32,-121.48 135.89,-34.28 280.71,-51.45 434.41,-51.45 236.05,0 412.42,43.91 529.08,131.76 116.66,87.82 175,215.47 175,382.9 0,46.67 -6.19,94.01 -18.56,142.08 -12.33,48.02 -32.24,94.01 -59.69,137.92 -27.45,43.91 -61.08,83.05 -100.86,117.33 -39.8,34.34 -87.16,61.08 -142.06,80.31l0 16.46c145.46,32.93 248.42,91.27 308.8,175 60.38,83.69 90.59,195.58 90.59,335.56 0,87.82 -17.83,169.5 -53.5,244.97 -35.69,75.49 -89.92,140.68 -162.65,195.58 -72.75,54.9 -164.02,98.81 -273.81,131.74 -109.79,32.97 -240.18,49.43 -391.14,49.43 -150.96,0 -282.05,-15.8 -393.24,-47.34 -111.14,-31.58 -203.8,-67.98 -277.92,-109.15l115.29 -415.85c63.12,35.69 139.31,64.53 228.51,86.47 89.22,21.97 188.73,32.95 298.52,32.95 249.81,0 374.67,-79.6 374.67,-238.83 0,-71.36 -32.24,-123.51 -96.75,-156.46 -64.49,-32.93 -184.6,-49.39 -360.27,-49.39l-201.77 0zm-2268.67 -1087.01c109.83,-49.39 240.2,-88.53 391.18,-117.33 150.96,-28.84 308.82,-43.25 473.5,-43.25 142.72,0 262.12,17.15 358.19,51.49 96.07,34.28 172.26,83.03 228.53,146.17 56.27,63.12 96.07,138.63 119.4,226.45 23.32,87.84 34.98,186.65 34.98,296.44 0,120.77 -4.09,242.23 -12.33,364.4 -8.22,122.14 -13.06,242.23 -14.41,360.25 -1.39,118.05 2.03,232.64 10.28,343.82 8.24,111.16 28.84,216.16 61.77,314.98l-436.44 0 -86.47 -284.09 -20.58 0c-54.9,85.08 -131.09,158.5 -228.51,220.27 -97.46,61.75 -223.05,92.64 -376.75,92.64 -96.07,0 -182.56,-14.43 -259.4,-43.23 -76.86,-28.84 -142.74,-70.01 -197.64,-123.51 -54.9,-53.55 -97.46,-116.66 -127.65,-189.41 -30.19,-72.73 -45.26,-154.41 -45.26,-244.99 0,-126.26 28.11,-232.64 84.4,-319.07 56.27,-86.47 137.24,-156.48 242.92,-209.99 105.7,-53.55 231.96,-90.59 378.81,-111.18 146.83,-20.58 310.85,-26.76 492.02,-18.52 19.21,-153.72 8.22,-264.2 -32.95,-331.47 -41.17,-67.25 -133.13,-100.86 -275.87,-100.86 -107.05,0 -220.27,10.98 -339.69,32.95 -119.38,21.95 -217.53,50.76 -294.39,86.43l-127.65 -399.38zm679.38 1531.69c107.05,0 192.13,-24.02 255.27,-72.07 63.16,-48.04 109.81,-99.49 140.02,-154.39l0 -267.65c-85.1,-8.22 -166.78,-9.61 -244.99,-4.13 -78.23,5.5 -147.56,17.86 -207.93,37.08 -60.38,19.21 -108.44,46.65 -144.11,82.34 -35.69,35.67 -53.5,80.97 -53.5,135.87 0,76.86 22.61,136.55 67.91,179.12 45.3,42.56 107.74,63.82 187.34,63.82z"/>
 </g>
</svg>
