<?xml version="1.0" encoding="UTF-8"?>
<!DOCTYPE svg PUBLIC "-//W3C//DTD SVG 1.1//EN" "http://www.w3.org/Graphics/SVG/1.1/DTD/svg11.dtd">
<!-- Creator: CorelDRAW 2019 (64-Bit) -->
<svg xmlns="http://www.w3.org/2000/svg" xml:space="preserve" width="68.6402mm" height="84.4169mm" version="1.1" style="shape-rendering:geometricPrecision; text-rendering:geometricPrecision; image-rendering:optimizeQuality; fill-rule:evenodd; clip-rule:evenodd"
viewBox="0 0 6864.02 8441.69"
 xmlns:xlink="http://www.w3.org/1999/xlink">
 <defs>
  <style type="text/css">
   <![CDATA[
    .fil12 {fill:#0060AA}
    .fil6 {fill:#FEFEFE;fill-rule:nonzero}
    .fil2 {fill:#ECEDED;fill-rule:nonzero}
    .fil8 {fill:#9E9E9F;fill-rule:nonzero}
    .fil13 {fill:#8A8A89;fill-rule:nonzero}
    .fil4 {fill:#E63B24;fill-rule:nonzero}
    .fil10 {fill:#E42D24;fill-rule:nonzero}
    .fil7 {fill:#9E2B1F;fill-rule:nonzero}
    .fil5 {fill:#5FC6F1;fill-rule:nonzero}
    .fil15 {fill:#00A0E3;fill-rule:nonzero}
    .fil11 {fill:#0097DB;fill-rule:nonzero}
    .fil9 {fill:#0078AB;fill-rule:nonzero}
    .fil14 {fill:#0060AA;fill-rule:nonzero}
    .fil1 {fill:url(#id2);fill-rule:nonzero}
    .fil0 {fill:url(#id3);fill-rule:nonzero}
    .fil3 {fill:url(#id4);fill-rule:nonzero}
   ]]>
  </style>
      <mask id="id0">
        <pattern id="id1" patternUnits="userSpaceOnUse" x="2876.56" y="2623.24" width="1110.9" height="996.79" viewBox="2894.2 2603.66 1110.9 996.79">
         <image x="2823.64" y="2533.1" width="1253.06" height="1143" xlink:href="rdsh_Images\rdsh_ImgID1.png"/>
        </pattern>
       <rect style="fill:url(#id1)" x="2872.75" y="2619.43" width="1118.52" height="1004.41"/>
      </mask>
  <linearGradient id="id2" gradientUnits="userSpaceOnUse" x1="1947.27" y1="2002.32" x2="1947.27" y2="5734.75">
   <stop offset="0" style="stop-opacity:1; stop-color:#E3E3E3"/>
   <stop offset="1" style="stop-opacity:1; stop-color:#C6C7C7"/>
  </linearGradient>
  <linearGradient id="id3" gradientUnits="userSpaceOnUse" x1="4916.75" y1="2002.31" x2="4916.75" y2="5734.75">
   <stop offset="0" style="stop-opacity:1; stop-color:#E42D24"/>
   <stop offset="1" style="stop-opacity:1; stop-color:#D22023"/>
  </linearGradient>
  <linearGradient id="id4" gradientUnits="userSpaceOnUse" x1="1413.09" y1="1001.16" x2="5450.94" y2="1001.16">
   <stop offset="0" style="stop-opacity:1; stop-color:#00A9E7"/>
   <stop offset="1" style="stop-opacity:1; stop-color:#0092D7"/>
  </linearGradient>
 </defs>
 <g id="Слой_x0020_1">
  <metadata id="CorelCorpID_0Corel-Layer"/>
  <g id="_1599171838896">
   <g>
    <path class="fil0" d="M5450.94 2002.31c0.04,5.57 0.06,11.11 0.06,16.7 0,722.71 -379.75,1356.74 -950.56,1713.45 -6.2,764.37 -437.14,1427.55 -1068.43,1765.01 283.25,151.41 606.87,237.28 950.5,237.28 1115.06,0 2018.99,-903.94 2018.99,-2018.98 0,-722.71 -379.75,-1356.75 -950.56,-1713.46z"/>
    <path class="fil1" d="M1413.09 2002.32c-570.82,356.7 -950.57,990.74 -950.57,1713.45 0,1115.04 903.94,2018.98 2019.01,2018.98 343.62,0 667.24,-85.87 950.48,-237.28 -631.29,-337.46 -1062.23,-1000.64 -1068.43,-1765.02 -570.82,-356.7 -950.56,-990.73 -950.56,-1713.44 0,-5.59 0.02,-11.12 0.07,-16.69z"/>
    <path class="fil2" d="M2363.58 3732.45c6.2,764.38 437.14,1427.56 1068.43,1765.02 631.29,-337.46 1062.23,-1000.64 1068.43,-1765.01 -309.89,193.65 -676.08,305.55 -1068.43,305.55 -392.35,0 -758.54,-111.9 -1068.43,-305.56z"/>
    <path class="fil3" d="M3432.01 0c-1109.47,0 -2009.94,894.95 -2018.92,2002.32 309.89,-193.65 676.08,-305.56 1068.44,-305.56 343.62,0 667.24,85.87 950.48,237.28 283.25,-151.41 606.87,-237.28 950.5,-237.28 392.35,0 758.54,111.9 1068.43,305.55 -8.99,-1107.36 -909.45,-2002.31 -2018.93,-2002.31z"/>
    <path class="fil4" d="M4382.51 1696.76c-343.63,0 -667.25,85.87 -950.5,237.28 635.89,339.93 1068.5,1010.29 1068.5,1781.73 0,5.58 -0.03,11.12 -0.07,16.69 570.81,-356.71 950.56,-990.74 950.56,-1713.45 0,-5.59 -0.02,-11.13 -0.06,-16.7 -309.89,-193.65 -676.08,-305.55 -1068.43,-305.55z"/>
    <path class="fil5" d="M2481.53 1696.76c-392.36,0 -758.55,111.91 -1068.44,305.56 -0.05,5.57 -0.07,11.1 -0.07,16.69 0,722.71 379.74,1356.74 950.56,1713.44 -0.05,-5.57 -0.07,-11.1 -0.07,-16.68 0,-771.44 432.61,-1441.8 1068.5,-1781.73 -283.24,-151.41 -606.86,-237.28 -950.48,-237.28z"/>
    <path class="fil6" d="M3432.01 1934.04c-635.89,339.93 -1068.5,1010.29 -1068.5,1781.73 0,5.58 0.02,11.11 0.07,16.68 309.89,193.66 676.08,305.56 1068.43,305.56 392.35,0 758.54,-111.9 1068.43,-305.55 0.04,-5.57 0.07,-11.11 0.07,-16.69 0,-771.44 -432.61,-1441.8 -1068.5,-1781.73z"/>
    <path class="fil7" d="M5450.88 2002.32c0.04,5.57 0.07,11.1 0.07,16.68 0,63.23 -2.91,125.82 -8.6,187.57 -59.31,644 -421.09,1200.39 -941.97,1525.88l0 0.05c555.19,-276.22 965.14,-800.54 1084.89,-1427.86 11.93,-62.48 20.96,-125.85 26.99,-190.23 -51.83,-39.86 -105.74,-77.32 -161.38,-112.09z"/>
    <path class="fil8" d="M3277.33 5405.73c-546.02,-357.78 -908.14,-973.08 -913.82,-1673.28 -5.69,61.74 -8.59,124.32 -8.59,187.55 0,633.27 291.52,1198.42 747.73,1568.59 43.29,35.13 88.15,68.56 134.3,100.07 66.83,-26.98 131.95,-57.47 194.99,-91.18 -53.01,-28.34 -104.56,-58.95 -154.61,-91.75z"/>
    <path class="fil9" d="M2326.65 1605.12c-259.51,0 -507.64,48.98 -735.54,138.17 -57.44,22.48 -113.57,47.5 -168.31,74.95 -5.97,60.57 -9.28,122.06 -9.78,184.08 55.04,-34.4 111.77,-66.17 170.2,-95.24 270.52,-134.6 575.58,-210.32 898.23,-210.32 342.88,0 665.79,85.46 948.58,236.26 -317.13,-207.34 -696.19,-327.9 -1103.38,-327.9z"/>
    <path class="fil8" d="M2363.58 3732.45c0.27,33.37 1.64,66.46 3.51,99.42 310.85,187.95 675.17,296.35 1064.92,296.35 389.76,0 754.07,-108.4 1064.92,-296.35 1.87,-32.96 3.24,-66.05 3.51,-99.41 -309.89,193.65 -676.08,305.55 -1068.43,305.55 -392.35,0 -758.54,-111.9 -1068.43,-305.56z"/>
   </g>
   <g>
    <path class="fil10" d="M2056.32 6746.95c-6.84,70.1 -114.56,106.01 -165.85,103.42l0 226.57 -71.81 0 -20.52 -597.55c80.36,-10.26 247.92,-31.65 258.18,71.81 6.84,65.81 6.84,130.78 0,195.75zm-84.62 -183.82l0 0c-15.39,-12.8 -80.36,-13.68 -80.36,-9.38 0,22.22 5.13,190.62 5.97,192.37 3.42,3.42 32.48,4.25 41.03,2.54 9.43,-1.71 17.97,-4.29 25.65,-7.71 15.38,-7.68 14.55,-20.52 17.97,-34.2 2.54,-12.8 11.97,-124.77 -10.26,-143.62z"/>
    <path class="fil10" d="M2394.06 6563.13c0,37.62 -1.71,150.46 -1.71,250.5l-1.71 192.37c0,35.87 -25.65,72.65 -62.41,72.65 -23.08,0.83 -58.99,0 -90.62,-0.83 -18.81,-0.88 -37.61,-0.88 -57.27,-0.88 -54.72,-9.39 -70.11,-47.87 -67.54,-100.04l0.85 -415.44c0.86,-15.43 3.42,-29.11 8.55,-41.04 9.41,-20.51 26.5,-41.91 63.27,-42.78 36.75,-0.84 70.09,-0.84 94.89,0l40.18 1.75c13.68,2.54 25.64,6.84 36.76,12.81 17.95,11.13 36.76,32.48 36.76,70.93zm-81.22 185.53l0 0c0,-104.29 -3.42,-170.98 -3.42,-170.98 -0.85,-9.38 -1.71,-28.23 -4.27,-35.9 -6.84,-12.85 -21.37,-14.52 -49.59,-14.52 -56.42,0 -59.84,7.68 -59.84,48.71 0,12.85 -1.71,368.48 -1.71,387.25 0,41.03 4.28,48.75 60.7,48.75 27.36,0 47.02,-11.14 53.86,-23.94 2.56,-7.71 4.27,-16.22 5.98,-25.65 0,0 -1.71,-128.23 -1.71,-213.72z"/>
    <path class="fil10" d="M2709.57 6569.97l-141.07 17.1c-7.68,0.87 -14.52,3.42 -20.52,7.71 -10.26,7.71 -20.52,22.23 -23.06,52.17 -3.42,58.97 -2.59,306.88 7.67,326.53 11.13,17.97 17.1,29.94 59.01,29.94 20.52,0 53.83,-2.59 81.19,-5.13 16.26,-1.71 32.49,-3.42 49.59,-5.96l5.13 71.8 -150.46 13.69c-77.78,6.83 -119.69,-26.53 -126.53,-100.92l10.26 -407.77c0.88,-8.55 3.42,-17.09 8.55,-24.77 9.42,-12.84 25.64,-28.23 59.01,-35.94 65.8,-16.22 163.26,-29.91 185.49,-29.91l-4.26 91.46z"/>
    <path class="fil10" d="M3038.74 6569.97l-141.05 17.1c-7.7,0.87 -14.54,3.42 -20.52,7.71 -10.26,7.71 -20.52,22.23 -23.08,52.17 -3.42,58.97 -2.56,306.88 7.69,326.53 11.12,17.97 17.1,29.94 58.99,29.94 20.52,0 53.86,-2.59 81.22,-5.13 16.24,-1.71 32.48,-3.42 49.58,-5.96l5.13 71.8 -150.46 13.69c-77.8,6.83 -119.69,-26.53 -126.53,-100.92l10.26 -407.77c0.86,-8.55 3.42,-17.09 8.55,-24.77 9.41,-12.84 25.65,-28.23 58.99,-35.94 65.82,-16.22 163.28,-29.91 185.51,-29.91l-4.28 91.46z"/>
    <polygon class="fil10" points="3306.37,7078.65 3319.21,6723.85 3209.78,7080.36 3122.58,7083.78 3110.61,6477.64 3194.4,6467.38 3202.94,6873.47 3320.92,6482.81 3401.28,6479.39 3393.57,7076.94 "/>
    <path class="fil10" d="M3653.52 7078.65l12.81 -354.8 -109.43 356.51 -87.2 3.42 -11.97 -606.14 83.78 -10.26 8.55 406.09 117.98 -390.66 80.35 -3.42 -7.67 597.55 -87.2 1.71zm-47.04 -610.39l0 0 -132.48 -89.79 20.51 -60.67 97.46 60.67 84.61 -60.67 43.62 47.87 -113.72 102.59z"/>
    <path class="fil10" d="M4062.22 6569.97l-141.06 17.1c-7.69,0.87 -14.53,3.42 -20.51,7.71 -10.26,7.71 -20.52,22.23 -23.09,52.17 -3.42,58.97 -2.56,306.88 7.7,326.53 11.11,17.97 17.1,29.94 58.99,29.94 20.51,0 53.85,-2.59 81.21,-5.13 16.24,-1.71 32.48,-3.42 49.58,-5.96l5.13 71.8 -150.46 13.69c-77.79,6.83 -119.68,-26.53 -126.52,-100.92l10.26 -407.77c0.85,-8.55 3.42,-17.09 8.54,-24.77 9.41,-12.84 25.65,-28.23 58.99,-35.94 65.83,-16.22 163.29,-29.91 185.51,-29.91l-4.27 91.46z"/>
    <polygon class="fil10" points="4209.3,6467.38 4212.72,6723.85 4367.45,6472.55 4416.18,6531.52 4262.3,6777.73 4403.36,7027.36 4335.83,7080.36 4217.85,6822.18 4216.14,7082.07 4140.91,7082.07 4134.07,6481.06 "/>
    <path class="fil10" d="M4752.22 6563.13c0,37.62 -1.71,150.46 -1.71,250.5l-1.71 192.37c0,35.87 -25.65,72.65 -62.41,72.65 -23.08,0.83 -58.99,0 -90.62,-0.83 -18.81,-0.88 -37.61,-0.88 -57.28,-0.88 -54.71,-9.39 -70.1,-47.87 -67.53,-100.04l0.85 -415.44c0.86,-15.43 3.42,-29.11 8.55,-41.04 9.4,-20.51 26.5,-41.91 63.26,-42.78 36.76,-0.84 70.11,-0.84 94.89,0l40.19 1.75c13.67,2.54 25.64,6.84 36.76,12.81 17.95,11.13 36.76,32.48 36.76,70.93zm-81.22 185.53l0 0c0,-104.29 -3.42,-170.98 -3.42,-170.98 -0.85,-9.38 -1.71,-28.23 -4.27,-35.9 -6.84,-12.85 -21.38,-14.52 -49.58,-14.52 -56.43,0 -59.85,7.68 -59.85,48.71 0,12.85 -1.71,368.48 -1.71,387.25 0,41.03 4.28,48.75 60.7,48.75 27.35,0 47.02,-11.14 53.86,-23.94 2.56,-7.71 4.27,-16.22 5.98,-25.65 0,0 -1.71,-128.23 -1.71,-213.72z"/>
    <path class="fil10" d="M4810.41 6478.51c85.49,-4.29 182.95,0 268.43,0l0 64.1 -192.35 0c-4.27,57.3 7.7,232.53 10.26,256.47l160.72 0 0 64.14 -160.72 21.35 0 10.26c0,33.36 7.7,84.65 8.55,118.01l173.54 0 0 64.1 -256.46 0 -11.97 -598.43z"/>
    <path class="fil11" d="M480.87 7853.34l-4.28 175.27 -80.35 1.67 -1.71 -94.87 -306.91 1.71 -1.71 98.33 -80.36 0c0,-2.58 -0.85,-26.52 -1.71,-50.46l-1.71 -46.16 -0.85 -5.13c-2.57,-26.52 -0.86,-52.13 1.71,-78.65l68.39 -1.71c12.82,-29.9 23.94,-59.84 34.19,-88.04 17.96,-48.74 36.76,-106.88 40.18,-147.04 3.42,-40.2 3.42,-108.59 2.57,-170.14l-2.57 -112.01 218 -3.42c4.27,209.47 3.42,364.22 5.98,518.1l111.14 2.55zm-213.72 -436.83l0 0c-9.41,0.83 -44.46,-0.88 -49.59,-0.88 -0.85,4.3 2.57,176.95 0,204.3 -16.24,178.7 -53,216.31 -50.43,231.7 1.7,5.13 109.42,-2.58 109.42,-2.58 0,0 -7.69,-419.74 -9.4,-432.54z"/>
    <path class="fil11" d="M815.23 7713.14c-2.56,29.9 -5.13,74.36 -8.55,111.97 -2.56,22.27 -4.27,44.45 -5.98,67.56 -0.86,6 -4.28,11.96 -8.55,17.09 -7.69,9.43 -23.08,18.81 -51.29,19.69 -29.92,2.54 -76.94,3.42 -118.83,5.96l-76.09 3.42c-16.24,-221.4 -16.24,-412.06 -8.55,-599.3 53.86,-7.67 110.28,-11.1 161.58,-8.51 17.1,-0.87 32.48,1.67 46.16,7.68 23.09,9.42 47.02,29.06 51.29,70.1 3.42,41.91 3.42,80.36 2.57,108.55l-2.57 46.2c-3.42,9.38 -8.54,17.94 -14.53,25.61 -11.11,12.84 -30.78,26.52 -60.69,29.1 -30.78,2.55 -52.15,2.55 -66.69,2.55 -8.55,0 -15.39,0 -21.37,-0.88l108.57 23.94c14.53,2.59 26.51,6.84 37.62,12.84 19.66,10.26 38.47,26.53 35.9,56.43zm-136.78 -19.64l0 0c-10.26,-8.59 -46.16,-9.43 -47.02,-7.72 -6.84,32.49 0.86,199.21 0.86,199.21 0,0 44.45,0.84 53,-12.84 8.55,-14.52 11.11,-33.36 12.82,-50.46 1.71,-15.35 3.42,-30.78 4.28,-46.12 0.85,-28.24 -1.71,-62.43 -23.94,-82.07zm-47.02 -135.95l0 0c0,0 22.23,-0.84 29.92,-4.26 15.39,-7.71 24.79,-32.52 26.5,-47.04 2.57,-19.68 0.86,-98.33 0,-106 -1.71,-24.78 -31.63,-35.03 -53,-30.78l-1.71 0.84 -1.71 187.24z"/>
    <polygon class="fil11" points="1069.18,7933.7 1082.02,7578.9 972.59,7935.41 885.39,7938.83 873.42,7332.69 957.21,7322.43 965.75,7728.53 1083.73,7337.86 1164.09,7334.44 1156.38,7931.99 "/>
    <path class="fil11" d="M1676.23 7734.53l-17.1 197.46 -69.25 -3.42c0.86,-28.23 2.57,-54.71 5.13,-79.52 2.57,-41.87 5.99,-88.91 8.55,-106.84 2.57,-17.94 -7.69,-25.65 -17.95,-31.62 -5.98,-2.58 -12.82,-4.29 -20.52,-5.17l-75.23 0 -16.24 228.28 -70.96 -3.42 -2.56 -212.85c-4.28,0 -10.26,0 -16.24,-0.87 -10.26,0 -24.8,-0.88 -41.89,-1.71 -17.1,-0.84 -25.65,17.1 -29.93,35.03 -2.56,10.26 -3.42,22.27 -4.27,35.94l0 149.59 -82.07 0 3.42 -55.59c2.57,-33.32 1.71,-75.23 -0.85,-112.84 -2.57,-23.07 18.8,-88.04 77.79,-97.42 -41.89,-2.59 -62.41,-25.69 -72.66,-48.75 -5.99,-12.8 -9.41,-27.36 -9.41,-43.58l0 -241.12 89.76 0c1.71,0 -12.82,162.47 -9.4,212.89 2.56,26.48 8.55,37.62 17.95,44.45 4.28,4.3 10.26,5.97 16.25,6.84l65.82 3.42 3.42 -274.44 42.75 0c21.37,0 42.74,0.88 42.74,1.75 0,0.84 1.71,68.39 4.27,135.91l5.13 135.07c2.57,0 5.13,0 9.41,-0.83 6.84,-0.88 17.95,0 35.05,-2.59 19.66,-0.83 31.63,-11.96 41.03,-22.23 5.13,-5.96 9.41,-12.8 11.97,-20.51l21.38 -226.57 73.51 0c-4.27,39.36 -6.83,75.23 -9.4,108.59 -4.27,57.3 -8.55,118.85 -8.55,141.04 -0.85,24.81 -17.95,40.2 -37.61,49.63 -11.11,5.96 -23.09,10.25 -37.62,12.8 59.84,-2.55 76.94,69.26 74.38,93.2z"/>
    <path class="fil11" d="M1751.56 7333.57c85.48,-4.3 182.94,0 268.43,0l0 64.09 -192.35 0c-4.27,57.3 7.69,232.53 10.26,256.47l160.72 0 0 64.14 -160.72 21.35 0 10.26c0,33.36 7.7,84.65 8.55,118.01l173.54 0 0 64.1 -256.46 0 -11.97 -598.42z"/>
    <path class="fil11" d="M2074.77 7340.41c2.54,0 19.64,0.87 35.9,0.87 9.38,0.84 20.52,0.84 31.61,0.84l16.26 288.95 90.62 5.13 25.65 -306.93 61.55 0 -1.71 594.17 -70.97 1.71 -17.94 -218.85 -80.36 -5.13 -5.13 227.4 -36.78 4.3c-17.93,2.54 -36.73,3.42 -34.19,0.83 3.42,-3.42 -19.65,-593.29 -14.51,-593.29z"/>
    <polygon class="fil11" points="2591.16,7933.7 2604,7578.9 2494.58,7935.41 2407.38,7938.83 2395.41,7332.69 2479.19,7322.43 2487.74,7728.53 2605.71,7337.86 2686.07,7334.44 2678.36,7931.99 "/>
    <path class="fil11" d="M2744.25 7333.57c85.48,-4.3 182.94,0 268.43,0l0 64.09 -192.33 0c-4.29,57.3 7.67,232.53 10.26,256.47l160.72 0 0 64.14 -160.72 21.35 0 10.26c0,33.36 7.67,84.65 8.55,118.01l173.52 0 0 64.1 -256.47 0 -11.96 -598.42z"/>
    <polygon class="fil11" points="3401.77,7334.44 3407.76,7856.76 3493.24,7851.63 3491.53,7331.02 3577.02,7331.02 3577.02,7856.76 3657.38,7848.21 3680.46,7331.02 3769.37,7332.69 3751.42,7928.57 3312.87,7930.28 3318,7337.86 "/>
    <polygon class="fil11" points="3902.81,7322.43 3906.23,7578.9 4060.97,7327.6 4109.69,7386.57 3955.81,7632.78 4096.87,7882.41 4029.34,7935.41 3911.36,7677.23 3909.65,7937.12 3834.42,7937.12 3827.58,7336.11 "/>
    <path class="fil11" d="M4445.73 7418.18c0,37.62 -1.71,150.46 -1.71,250.5l-1.71 192.37c0,35.87 -25.65,72.65 -62.41,72.65 -23.08,0.84 -58.99,0 -90.62,-0.83 -18.8,-0.88 -37.61,-0.88 -57.27,-0.88 -54.72,-9.38 -70.11,-47.87 -67.54,-100.04l0.86 -415.44c0.85,-15.43 3.41,-29.11 8.54,-41.04 9.41,-20.51 26.5,-41.9 63.26,-42.78 36.77,-0.83 70.1,-0.83 94.9,0l40.18 1.75c13.67,2.55 25.64,6.84 36.76,12.81 17.95,11.13 36.76,32.48 36.76,70.93zm-81.22 185.53l0 0c0,-104.29 -3.42,-170.98 -3.42,-170.98 -0.85,-9.38 -1.71,-28.23 -4.27,-35.9 -6.84,-12.85 -21.37,-14.51 -49.59,-14.51 -56.42,0 -59.84,7.67 -59.84,48.7 0,12.85 -1.71,368.48 -1.71,387.25 0,41.03 4.28,48.75 60.7,48.75 27.36,0 47.02,-11.14 53.86,-23.94 2.57,-7.71 4.27,-16.22 5.98,-25.65 0,0 -1.71,-128.23 -1.71,-213.72z"/>
    <path class="fil11" d="M4495.37 7935.41l5.13 -74.36 45.31 -1.75c34.19,0 83.78,-31.61 83.78,-93.16 0,-29.94 -0.86,-138.49 -0.86,-239.37 -0.85,-58.97 -0.85,-123.94 -0.85,-194.08l241.93 -1.67 16.25 607.81 -88.91 0 -1.71 -529.16 -87.2 0 -1.71 359.05c-4.27,81.2 -79.51,164.98 -144.48,164.98l-66.68 1.71z"/>
    <path class="fil11" d="M5179.36 7704.59l0 54.71c0,31.61 -1.71,70.98 -2.58,102.59 -2.54,33.36 -21.35,48.71 -41.03,58.13 -11.1,6.01 -24.78,9.43 -39.33,10.26l-152.17 -1.71 11.13 -600.14 69.23 -1.7 9.42 294.08 17.93 0c12.85,0 32.49,-0.88 65.85,-1.71 31.61,-0.84 47,20.52 54.72,41.87 4.25,12.84 6.83,27.36 6.83,43.62zm-61.55 17.93l0 0c-3.42,-13.68 -2.58,-26.48 -17.97,-34.19 -7.68,-3.42 -16.22,-5.97 -25.65,-7.68 -8.55,-1.71 -37.61,-0.83 -41.03,2.59 -0.84,1.67 -5.97,170.1 -5.97,192.33 0,4.25 64.97,3.42 80.36,-9.43 22.23,-18.76 12.81,-130.77 10.26,-143.62z"/>
    <path class="fil11" d="M5233.26 7340.41c2.57,0 19.66,0.87 35.91,0.87 9.4,0.84 20.51,0.84 31.63,0.84l16.24 288.95 90.62 5.13 25.65 -306.93 61.55 0 -1.71 594.17 -70.96 1.71 -17.95 -218.85 -80.36 -5.13 -5.13 227.4 -36.76 4.3c-17.95,2.54 -36.76,3.42 -34.2,0.83 3.42,-3.42 -19.66,-593.29 -14.53,-593.29z"/>
    <polygon class="fil11" points="5749.68,7933.7 5762.48,7578.9 5653.05,7935.41 5565.85,7938.83 5553.89,7332.69 5637.66,7322.43 5646.22,7728.53 5764.19,7337.86 5844.55,7334.44 5836.88,7931.99 "/>
    <polygon class="fil11" points="5977.99,7322.43 5981.41,7578.9 6136.13,7327.6 6184.88,7386.57 6031,7632.78 6172.03,7882.41 6104.51,7935.41 5986.54,7677.23 5984.83,7937.12 5909.6,7937.12 5902.76,7336.11 "/>
    <path class="fil11" d="M6520.91 7418.18c0,37.62 -1.71,150.46 -1.71,250.5l-1.71 192.37c0,35.87 -25.65,72.65 -62.43,72.65 -23.06,0.84 -58.97,0 -90.62,-0.83 -18.81,-0.88 -37.61,-0.88 -57.25,-0.88 -54.72,-9.38 -70.11,-47.87 -67.56,-100.04l0.87 -415.44c0.84,-15.43 3.42,-29.11 8.55,-41.04 9.39,-20.51 26.48,-41.9 63.26,-42.78 36.74,-0.83 70.1,-0.83 94.88,0l40.2 1.75c13.68,2.55 25.64,6.84 36.74,12.81 17.97,11.13 36.78,32.48 36.78,70.93zm-81.24 185.53l0 0c0,-104.29 -3.42,-170.98 -3.42,-170.98 -0.83,-9.38 -1.71,-28.23 -4.25,-35.9 -6.84,-12.85 -21.39,-14.51 -49.59,-14.51 -56.42,0 -59.84,7.67 -59.84,48.7 0,12.85 -1.71,368.48 -1.71,387.25 0,41.03 4.26,48.75 60.68,48.75 27.36,0 47.04,-11.14 53.88,-23.94 2.54,-7.71 4.25,-16.22 5.96,-25.65 0,0 -1.71,-128.23 -1.71,-213.72z"/>
    <path class="fil11" d="M6863.78 7713.14c-2.59,29.9 -5.13,74.36 -8.55,111.97 -2.59,22.27 -4.29,44.45 -6,67.56 -0.84,6 -4.26,11.96 -8.55,17.09 -7.68,9.43 -23.07,18.81 -51.3,19.69 -29.9,2.54 -76.94,3.42 -118.81,5.96l-76.1 3.42c-16.23,-221.4 -16.23,-412.06 -8.55,-599.3 53.88,-7.67 110.3,-11.1 161.59,-8.51 17.1,-0.87 32.49,1.67 46.17,7.68 23.06,9.42 47,29.06 51.29,70.1 3.42,41.91 3.42,80.36 2.55,108.55l-2.55 46.2c-3.42,9.38 -8.55,17.94 -14.55,25.61 -11.1,12.84 -30.78,26.52 -60.68,29.1 -30.77,2.55 -52.17,2.55 -66.68,2.55 -8.55,0 -15.39,0 -21.39,-0.88l108.59 23.94c14.51,2.59 26.48,6.84 37.61,12.84 19.65,10.26 38.45,26.53 35.91,56.43zm-136.78 -19.64l0 0c-10.26,-8.59 -46.17,-9.43 -47.04,-7.72 -6.84,32.49 0.87,199.21 0.87,199.21 0,0 44.46,0.84 53.01,-12.84 8.54,-14.52 11.09,-33.36 12.8,-50.46 1.71,-15.35 3.42,-30.78 4.29,-46.12 0.84,-28.24 -1.71,-62.43 -23.93,-82.07zm-47.04 -135.95l0 0c0,0 22.22,-0.84 29.94,-4.26 15.39,-7.71 24.77,-32.52 26.48,-47.04 2.59,-19.68 0.88,-98.33 0,-106 -1.71,-24.78 -31.61,-35.03 -53,-30.78l-1.71 0.84 -1.71 187.24z"/>
    <path class="fil12" d="M6721.81 8367.92c-8.06,0 -16.11,0 -24.12,0 -14.71,-4.01 32.29,-0.25 53.04,0 28.57,0.36 62.31,-1.29 77.24,1.53 13.9,5.41 25.27,11.26 24.16,18.42 -2.81,17.89 -48.32,16.6 -106.21,23.06 -62.39,6.96 -142.69,19.72 -183.37,23.02 -345.35,6.62 -718.02,6.16 -1076.26,7.7 -50.66,0.21 -93.05,-0.48 -139.97,-4.62 -193.02,7.89 -420.34,0.54 -627.4,0 -57.66,-0.16 -116.19,1.51 -173.77,1.53 -55.31,0.04 -110.4,-0.11 -164.1,0 -311.93,0.76 -682.14,-0.95 -1032.82,-1.53 -64.29,-0.12 -128.84,2.37 -193.02,1.53 -301.78,-3.89 -612.36,-2.34 -854.28,-3.06 -321.59,-0.97 -656.2,3.66 -994.18,6.15 -76.02,-4.89 -191.49,-3.64 -275.11,-4.62 -211.76,-2.48 -446.97,-2.84 -646.76,-19.96 -44.33,-3.8 -97.43,-11.79 -149.58,-16.9 -52.35,-5.13 -113.33,-8.53 -149.63,-16.9 -25.85,-5.94 -32.56,-21.43 -72.38,-23.02 11.33,-18.82 -37.88,-47.46 72.38,-53.76 72.65,-4.15 152.47,6.48 222.01,10.76 448.78,27.55 1032.87,21.61 1491.33,21.49 164.42,-0.02 343.55,-6.3 492.3,3.08 155.85,-4.71 316.45,-2.43 468.12,-1.53 487.69,2.84 979.1,-1.77 1467.18,0 271.41,0.97 538.29,3 830.12,6.14 510.73,5.47 1003.73,7.88 1505.82,18.43 18.22,2.85 106.31,7.38 159.26,3.06z"/>
   </g>
   <g>
    <path class="fil13" d="M3030.8 2922.16c116.72,28.1 222.48,78.22 300.42,142.67l0 -28.36c-80.18,-62.22 -185.27,-110.47 -300.42,-137.65l0 23.34zm401.2 -108.76l0 0c-119.13,-121.35 -325.22,-201.25 -555.44,-201.25l0 795.53c230.22,0 436.31,79.91 555.44,201.26 119.15,-121.35 325.24,-201.26 555.46,-201.26l0 -795.53c-230.22,0 -436.31,79.9 -555.46,201.25zm-492.3 533.03l0 0 0 -45.08c22.23,0.69 275.74,13.24 479.71,212.38 -122.5,-95.53 -295.61,-156.19 -479.71,-167.3zm0 -68.04l0 0 0 -46.67c47.47,4.92 290.86,39.94 480.24,250.79 -208.35,-192.03 -459.21,-203.51 -480.24,-204.12zm480.82 170.85l0 0c-194.99,-203.95 -437.2,-236.33 -480.82,-240.57l0 -531.15c182.02,12.8 348.86,79.91 447.26,180.12l33.56 34.19 0 557.41zm503.8 -102.81l0 0c-184.11,11.11 -357.22,71.77 -479.72,167.3 203.98,-199.14 457.49,-211.69 479.72,-212.38l0 45.08zm0 -68.04l0 0c-21.03,0.61 -271.89,12.09 -480.26,204.12 189.39,-210.85 432.79,-245.87 480.26,-250.79l0 46.67zm0 -69.72l0 0c-43.63,4.24 -285.84,36.62 -480.84,240.57l0 -557.41 33.58 -34.19c98.39,-100.21 265.24,-167.32 447.26,-180.12l0 531.15zm-893.52 -188.94l0 0c116.72,28.1 222.48,78.22 300.42,142.66l0 -28.35c-80.18,-62.22 -185.27,-110.48 -300.42,-137.66l0 23.35zm802.42 -120.91l0 0c-115.15,27.18 -220.25,75.43 -300.42,137.65l0 28.36c77.93,-64.45 183.7,-114.57 300.42,-142.67l0 -23.34zm-802.42 216.68l0 0c116.72,28.07 222.48,78.19 300.42,142.64l0 -28.35c-80.19,-62.22 -185.29,-110.48 -300.42,-137.64l0 23.35zm802.42 -313.51l0 0c-115.13,27.16 -220.23,75.42 -300.42,137.64l0 28.35c77.93,-64.45 183.7,-114.57 300.42,-142.64l0 -23.35zm0 194.39l0 0c-115.15,27.18 -220.25,75.44 -300.42,137.66l0 28.35c77.93,-64.44 183.7,-114.56 300.42,-142.66l0 -23.35zm0 95.77l0 0c-115.13,27.16 -220.23,75.42 -300.42,137.64l0 28.35c77.93,-64.45 183.7,-114.57 300.42,-142.64l0 -23.35zm-802.42 -266.81l0 0c116.72,28.07 222.48,78.19 300.42,142.64l0 -28.35c-80.19,-62.22 -185.29,-110.48 -300.42,-137.64l0 23.35z"/>
    <g>
     <path class="fil14" d="M3030.8 2933.25c116.72,28.1 222.48,78.22 300.42,142.67l0 -28.36c-80.18,-62.22 -185.27,-110.47 -300.42,-137.65l0 23.34zm401.2 -108.76l0 0c-119.13,-121.35 -325.22,-201.25 -555.44,-201.25l0 795.53c230.22,0 436.31,79.9 555.44,201.26 119.15,-121.36 325.24,-201.26 555.46,-201.26l0 -795.53c-230.22,0 -436.31,79.9 -555.46,201.25zm-492.3 533.03l0 0 0 -45.08c22.23,0.69 275.74,13.24 479.71,212.38 -122.5,-95.54 -295.61,-156.2 -479.71,-167.3zm0 -68.05l0 0 0 -46.66c47.47,4.92 290.86,39.94 480.24,250.79 -208.35,-192.03 -459.21,-203.52 -480.24,-204.13zm480.82 170.85l0 0c-194.99,-203.94 -437.2,-236.32 -480.82,-240.57l0 -531.15c182.02,12.8 348.86,79.92 447.26,180.12l33.56 34.2 0 557.4zm503.8 -102.8l0 0c-184.11,11.1 -357.22,71.76 -479.72,167.3 203.98,-199.14 457.49,-211.69 479.72,-212.38l0 45.08zm0 -68.05l0 0c-21.03,0.61 -271.89,12.1 -480.26,204.13 189.39,-210.85 432.79,-245.87 480.26,-250.79l0 46.66zm0 -69.72l0 0c-43.63,4.25 -285.84,36.63 -480.84,240.57l0 -557.4 33.58 -34.2c98.39,-100.2 265.24,-167.32 447.26,-180.12l0 531.15zm-893.52 -188.94l0 0c116.72,28.1 222.48,78.22 300.42,142.67l0 -28.35c-80.18,-62.22 -185.27,-110.48 -300.42,-137.66l0 23.34zm802.42 -120.9l0 0c-115.15,27.18 -220.25,75.43 -300.42,137.65l0 28.36c77.93,-64.45 183.7,-114.57 300.42,-142.67l0 -23.34zm-802.42 216.68l0 0c116.72,28.07 222.48,78.19 300.42,142.64l0 -28.35c-80.19,-62.22 -185.29,-110.48 -300.42,-137.64l0 23.35zm802.42 -313.51l0 0c-115.13,27.16 -220.23,75.41 -300.42,137.64l0 28.35c77.93,-64.45 183.7,-114.57 300.42,-142.65l0 -23.34zm0 194.39l0 0c-115.15,27.18 -220.25,75.44 -300.42,137.66l0 28.35c77.93,-64.45 183.7,-114.57 300.42,-142.67l0 -23.34zm0 95.77l0 0c-115.13,27.16 -220.23,75.42 -300.42,137.64l0 28.35c77.93,-64.45 183.7,-114.57 300.42,-142.64l0 -23.35zm-802.42 -266.82l0 0c116.72,28.08 222.48,78.2 300.42,142.65l0 -28.35c-80.19,-62.23 -185.29,-110.48 -300.42,-137.64l0 23.34z"/>
     <path class="fil15" style="mask:url(#id0)" d="M3030.8 2933.25c116.72,28.1 222.48,78.22 300.42,142.67l0 -28.36c-80.18,-62.22 -185.27,-110.47 -300.42,-137.65l0 23.34zm401.2 -108.76l0 0c-119.13,-121.35 -325.22,-201.25 -555.44,-201.25l0 795.53c230.22,0 436.31,79.9 555.44,201.26 119.15,-121.36 325.24,-201.26 555.46,-201.26l0 -795.53c-230.22,0 -436.31,79.9 -555.46,201.25zm-492.3 533.03l0 0 0 -45.08c22.23,0.69 275.74,13.24 479.71,212.38 -122.5,-95.54 -295.61,-156.2 -479.71,-167.3zm0 -68.05l0 0 0 -46.66c47.47,4.92 290.86,39.94 480.24,250.79 -208.35,-192.03 -459.21,-203.52 -480.24,-204.13zm480.82 170.85l0 0c-194.99,-203.94 -437.2,-236.32 -480.82,-240.57l0 -531.15c182.02,12.8 348.86,79.92 447.26,180.12l33.56 34.2 0 557.4zm503.8 -102.8l0 0c-184.11,11.1 -357.22,71.76 -479.72,167.3 203.98,-199.14 457.49,-211.69 479.72,-212.38l0 45.08zm0 -68.05l0 0c-21.03,0.61 -271.89,12.1 -480.26,204.13 189.39,-210.85 432.79,-245.87 480.26,-250.79l0 46.66zm0 -69.72l0 0c-43.63,4.25 -285.84,36.63 -480.84,240.57l0 -557.4 33.58 -34.2c98.39,-100.2 265.24,-167.32 447.26,-180.12l0 531.15zm-893.52 -188.94l0 0c116.72,28.1 222.48,78.22 300.42,142.67l0 -28.35c-80.18,-62.22 -185.27,-110.48 -300.42,-137.66l0 23.34zm802.42 -120.9l0 0c-115.15,27.18 -220.25,75.43 -300.42,137.65l0 28.36c77.93,-64.45 183.7,-114.57 300.42,-142.67l0 -23.34zm-802.42 216.68l0 0c116.72,28.07 222.48,78.19 300.42,142.64l0 -28.35c-80.19,-62.22 -185.29,-110.48 -300.42,-137.64l0 23.35zm802.42 -313.51l0 0c-115.13,27.16 -220.23,75.41 -300.42,137.64l0 28.35c77.93,-64.45 183.7,-114.57 300.42,-142.65l0 -23.34zm0 194.39l0 0c-115.15,27.18 -220.25,75.44 -300.42,137.66l0 28.35c77.93,-64.45 183.7,-114.57 300.42,-142.67l0 -23.34zm0 95.77l0 0c-115.13,27.16 -220.23,75.42 -300.42,137.64l0 28.35c77.93,-64.45 183.7,-114.57 300.42,-142.64l0 -23.35zm-802.42 -266.82l0 0c116.72,28.08 222.48,78.2 300.42,142.65l0 -28.35c-80.19,-62.23 -185.29,-110.48 -300.42,-137.64l0 23.34z"/>
    </g>
   </g>
  </g>
 </g>
</svg>
