<?xml version="1.0" encoding="UTF-8"?>
<!DOCTYPE svg PUBLIC "-//W3C//DTD SVG 1.1//EN" "http://www.w3.org/Graphics/SVG/1.1/DTD/svg11.dtd">
<!-- Creator: CorelDRAW 2019 (64-Bit) -->
<svg xmlns="http://www.w3.org/2000/svg" xml:space="preserve" width="83.2265mm" height="25.4001mm" version="1.1" style="shape-rendering:geometricPrecision; text-rendering:geometricPrecision; image-rendering:optimizeQuality; fill-rule:evenodd; clip-rule:evenodd"
viewBox="0 0 8322.66 2540.01"
 xmlns:xlink="http://www.w3.org/1999/xlink">
 <defs>
  <style type="text/css">
   <![CDATA[
    .fil14 {fill:black}
    .fil3 {fill:#0034CD}
    .fil13 {fill:#009345}
    .fil7 {fill:#010080}
    .fil10 {fill:#01A99E}
    .fil5 {fill:#35C238}
    .fil2 {fill:#422172}
    .fil11 {fill:#642194}
    .fil12 {fill:#A90124}
    .fil6 {fill:#CB1DB2}
    .fil8 {fill:#F9B800}
    .fil4 {fill:#FD51B3}
    .fil1 {fill:#FD7441}
    .fil9 {fill:#FECE02}
    .fil0 {fill:white}
   ]]>
  </style>
 </defs>
 <g id="Layer_x0020_1">
  <metadata id="CorelCorpID_0Corel-Layer"/>
  <g id="_1599119265904">
   <g>
    <path class="fil0" d="M887.67 2223.27c218.45,14.31 352.68,-22.61 489.71,-130.05 102.53,-80.37 203.5,-217.54 231.47,-397.57l1.11 -715.83 -178.14 -0.32c-2.09,138.6 -0.46,278.45 -0.46,417.18 0,227.41 43.13,464.69 -209.38,615.77 -73.38,43.85 -250.28,99.4 -339.67,49.86 -84.43,0 -189.12,-90.31 -228.59,-130.1 -49.47,-49.8 -106.13,-145.53 -113.84,-238.2 -8.49,-102.85 0.07,-564.34 -0.65,-711.31l-177.49 0.07c3.86,145.2 0.39,295.3 0.39,441.03 0,261.52 -17.05,459.13 221.21,660.14 140.43,118.55 229.83,109.53 304.33,139.33z"/>
    <polygon class="fil1" points="5.2,624.01 361.55,622.89 362.59,618.91 5.53,621.46 6.25,2.09 364.88,2.55 893.09,4.11 891.98,443.97 365.34,446.19 365.21,449.72 1603.94,446.91 1605.97,625.05 1612.05,625.12 1614.27,447.96 1965.25,445.34 1965.45,976.82 1965.51,985.05 1968.91,983.35 1967.8,1.5 5.73,0 "/>
    <path class="fil0" d="M362.59 618.91l-1.04 3.98 515.27 0.85c23.39,33.2 8.49,204.48 8.49,257.74 0,90.37 -0.65,180.68 -0.65,271.13 0,179.57 -1.9,360.26 0.26,539.57l205.52 0.2 1.57 -1067.13 513.96 -0.2 -2.03 -178.14 -1238.73 2.81 -2.62 169.19z"/>
    <path class="fil2" d="M1090.44 1692.38c83.78,7.71 309.16,-10.72 331.77,7.51 0.33,-130.69 -10.58,-638.18 4.18,-723.2 38.23,-13.99 142,-10.85 184.15,-4.18l1.51 -347.39 -6.08 -0.07 -513.96 0.2 -1.57 1067.13z"/>
    <path class="fil3" d="M887.67 2223.27c-16.41,38.23 -4.78,246.88 -5.17,307.33 268.91,45.81 571.14,-83.91 726.61,-212.58 86.91,-71.95 156.9,-144.03 222.12,-252.31 72.73,-120.83 91.48,-191.14 134.55,-346.87l3.26 -25.42 -351.89 1.38 -8.3 0.85c-27.97,180.03 -128.94,317.2 -231.47,397.57 -137.03,107.44 -271.26,144.36 -489.71,130.05z"/>
    <path class="fil4" d="M882.5 2530.6c0.39,-60.45 -11.24,-269.1 5.17,-307.33 -74.5,-29.8 -163.9,-20.78 -304.33,-139.33 -238.26,-201.01 -221.21,-398.62 -221.21,-660.14 0,-145.73 3.47,-295.83 -0.39,-441.03l-3.53 0.19c-3.92,116.19 7.26,654.66 -4.9,709.81l-338.11 0.52c-10.85,-42.08 -5.36,-621.19 -4.11,-711.63l-5.82 -0.53c-10.91,191.21 -1.5,411.04 -1.44,605.39 0.13,180.55 40.58,325.75 134.16,475.01 83.32,132.92 170.82,224.14 295.5,307.79 115.61,77.5 284.86,151.93 449.01,161.28z"/>
    <path class="fil5" d="M539.69 977.47l-0.46 5.23c0.72,146.97 -7.84,608.46 0.65,711.31 7.71,92.67 64.37,188.4 113.84,238.2 39.47,39.79 144.16,130.1 228.59,130.1l2.61 -370.13c-2.16,-179.31 -0.26,-360 -0.26,-539.57 0,-90.45 0.65,-180.76 0.65,-271.13 0,-53.26 14.9,-224.54 -8.49,-257.74l1.57 3.27 0.45 350.85 -339.15 -0.39z"/>
    <path class="fil6" d="M358.21 982.96l-347.12 -1.3c-1.25,90.44 -6.74,669.55 4.11,711.63l338.11 -0.52c12.16,-55.15 0.98,-593.62 4.9,-709.81z"/>
    <polygon class="fil7" points="1617.15,1694.8 1969.04,1693.42 1965.78,1718.84 1968.91,983.35 1965.51,985.05 1620.41,985.97 "/>
    <path class="fil8" d="M365.34 446.19l526.64 -2.22 1.11 -439.86 -528.21 -1.56 -0.33 329.74c0,17.71 5.56,103.84 -9.15,91.49 1.51,1.57 4.38,1.05 4.71,4.44 0.39,3.53 4.57,15.82 5.23,17.97z"/>
    <path class="fil9" d="M362.59 618.91l2.62 -169.19 0.13 -3.53c-0.66,-2.15 -4.84,-14.44 -5.23,-17.97 -0.33,-3.39 -3.2,-2.87 -4.71,-4.44 14.71,12.35 9.15,-73.78 9.15,-91.49l0.33 -329.74 -358.63 -0.46 -0.72 619.37 357.06 -2.55z"/>
    <path class="fil10" d="M5.27 981.13l5.82 0.53 347.12 1.3 3.53 -0.19 177.49 -0.07 0.46 -5.23 0.65 -345.49c63.32,-14.31 260.61,-4.97 338.05,-4.97l-1.57 -3.27 -515.27 -0.85 -356.35 1.12 0.07 357.12z"/>
    <path class="fil11" d="M1090.44 1692.38l-205.52 -0.2 -2.61 370.13c89.39,49.54 266.29,-6.01 339.67,-49.86 252.51,-151.08 209.38,-388.36 209.38,-615.77 0,-138.73 -1.63,-278.58 0.46,-417.18l178.14 0.32 -1.11 715.83 8.3 -0.85 3.26 -708.83 345.1 -0.92 -0.06 -8.23c-57.96,3.66 -313.02,9.41 -354.91,-4.31 -42.15,-6.67 -145.92,-9.81 -184.15,4.18 -14.76,85.02 -3.85,592.51 -4.18,723.2 -22.61,-18.23 -247.99,0.2 -331.77,-7.51z"/>
    <path class="fil12" d="M1612.05 625.12l-1.51 347.39c41.89,13.72 296.95,7.97 354.91,4.31l-0.2 -531.48 -350.98 2.62 -2.22 177.16z"/>
    <path class="fil13" d="M539.69 977.47l339.15 0.39 -0.45 -350.85c-77.44,0 -274.73,-9.34 -338.05,4.97l-0.65 345.49z"/>
   </g>
   <g>
    <g>
     <path class="fil14" d="M6477.17 1804.19l-88.16 0.07 -29.6 -2.16 -0.07 -107.17c40.12,-6.99 145.4,-9.74 171.93,8.82 48.1,33.59 27.78,100.44 -54.1,100.44zm-118.35 -302.62l30.19 -3.66 88.16 -0.07c80.83,0.07 83.31,70.9 45.02,94.49 -22.22,13.73 -131.74,12.62 -162.78,5.36l-0.59 -96.12zm278.84 184.15c-17.06,-23.2 -30.52,-25.49 -48.75,-43.07 38.69,-39.21 70.97,-50.05 62.93,-128.73 -5.36,-52.74 -41.76,-85.15 -82.99,-98.94 -38.36,-12.87 -311.12,-13.99 -360.59,-6.27l1.44 87.95 44.95 2.42 2.95 396.6c75.21,4.64 288.64,10.39 340,-17.25 69.07,-37.12 84.76,-132.14 40.06,-192.71z"/>
     <path class="fil14" d="M5870.73 1495.82c206.5,-36.53 234.8,281.12 54.5,312.42 -201,34.9 -240.74,-279.55 -54.5,-312.42zm-224.07 207.8c56.91,311.78 567.81,247.15 502.13,-106.25 -23.92,-128.74 -148.21,-222.71 -304.78,-194.35 -129.33,23.4 -226.83,139.52 -197.35,300.6z"/>
     <polygon class="fil14" points="4644.67,1500.26 4645.46,1895.81 4751,1895.74 4751.78,1691.4 4978.93,1691.66 4982.85,1896.53 5085.77,1895.61 5084.92,1406.68 4979.58,1407.47 4979.39,1597.56 4751.32,1597.76 4750.8,1406.75 4586.58,1407.53 4588.41,1496.99 "/>
     <path class="fil14" d="M4283.56 1521.82l68.49 197.42 -145.27 -0.92 76.78 -196.5zm-257.01 283.48c9.34,5.56 9.21,3.4 16.01,6.86 15.16,7.78 3.13,-0.98 13.85,8.5 -11.89,21.43 -21.56,44.7 -24.57,75.15 147.3,0.07 102.79,16.14 146.12,-83.38l205.98 1.04 32.02 81.82 118.73 -0.53 -188 -488.08c-162.07,-0.46 -120.5,-31.43 -190.69,152.13 -14.37,37.51 -46,132.53 -65.41,159.32l-64.04 3.53 0 83.64z"/>
     <path class="fil14" d="M3051.35 1719.11c9.54,-37.84 57.57,-178.47 74.95,-198.2l69.4 197.81 -144.35 0.39zm-49.34 -311.06c-8.43,164.29 40.78,39.08 6.14,127.63 -29.4,75.08 -128.21,312.69 -134.81,360.26l114.95 -0.2 31.89 -83.31 207.67 1.96 28.69 80.44 120.83 -0.26 -188.2 -488.35 -187.16 1.83z"/>
     <path class="fil14" d="M3448.86 1904.11c197.22,-0.85 193.89,-206.57 212.45,-399.67 34.44,-11.37 106.51,-4.97 147.29,-4.83l2.35 396.59 100.18 -0.13c9.02,-31.89 7.58,-436.78 2.68,-489.85l-396.14 3.21 0.46 84.03 29.14 10.65c1.25,-1.89 4.38,1.7 6.34,2.95 -2.55,61.62 -10.58,135.4 -21.37,194.21 -21.3,116.19 -56.19,94.62 -86.78,117.62l3.4 85.22z"/>
     <path class="fil14" d="M5468.91 1818.89c-5.29,-23.91 -37.31,-2.48 -43.33,-27.11l1.24 -291c141.09,-9.67 50.19,22.61 127.43,24.44 15.49,0.39 34.7,-0.85 51.11,-0.98l-2.1 -118.02 -425.61 1.9 0.98 90.57 142.2 4.9 1.24 392.15c43.98,0.14 105.47,7.32 141.81,-5.09 7.77,-21.57 5.03,-43.33 5.03,-71.76z"/>
     <path class="fil14" d="M2463.28 1524.44c63.45,0.06 38.56,-3.66 60.64,-18.04 17.45,-11.3 35.49,-6.86 62.61,-6.86l0.72 395.75 105.92 -0.26 1.25 -395.29 140.04 -2.23 -0.72 -91.03 -406.2 -0.13 -0.66 118.09 36.4 0z"/>
    </g>
    <g>
     <path class="fil14" d="M4330.35 930.16c76.27,-6.99 192.13,-19.34 192.46,54.96 0.26,76.46 -129.98,58.29 -192.78,53.39l0.32 -108.35zm0.66 -195.13c65.28,-5.35 184.87,-21.17 182.84,53.26 -1.96,70.78 -126.64,53.72 -184.15,48.43l1.31 -101.69zm218.98 144.95c121.87,-74.24 70.12,-187.49 9.02,-219.44 -46.66,-24.38 -272.76,-23.85 -335.83,-14.05l-1.04 393.13 -53.72 1.44 1.96 89.66c70.58,3.92 337.2,9.34 383.66,-9.87 88.35,-36.47 122.07,-178.92 -4.05,-240.87z"/>
     <path class="fil14" d="M6445.08 1131.57c23.4,0 50.78,-51.17 66.33,-73.39 19.15,-27.32 40.91,-56.98 59.34,-82.99 23.13,-32.61 95.27,-141.15 118.08,-157.75l3.01 314.19 135.27 -2.74 0.19 -82.87c-14.7,-9.93 -27.57,-4.5 -31.36,-20.32l-3.4 -381.83 -103.32 0.33c-11.56,4.51 -141.41,192.91 -166.89,228.06 -12.22,16.86 -14.84,21.9 -27.91,39.87l-18.56 23.13c-1.04,1.11 -3.13,2.88 -4.05,3.79l-11.7 -295.18 -98.28 0.4c-8.36,28.62 -8.17,443.51 -1.76,486.45l85.01 0.85z"/>
     <path class="fil14" d="M3719.47 1127.97c45.88,-54.5 199.9,-291.91 229.05,-313.08l0.06 316.81 104.88 -1.44 -0.13 -486.12 -112.2 0.45c-9.02,20.33 -207.35,297.27 -218.85,303.28l-0.19 -304.06 -149.06 0.19 0 76.66c10.91,8.23 2.22,6.14 18.03,12.02 0.39,0.13 20.72,2.94 24.44,3.4l0.07 395.94 103.9 -4.05z"/>
     <path class="fil14" d="M3111.34 928.73l229.18 1.11 2.48 201.46 104.23 -0.65 0.26 -486.58 -106.52 2.48 -2.54 188.6 -227.09 -1.51 -0.45 -189.96 -104.69 1.37 -0.07 486.12 136.64 -0.39 -0.71 -84.76c-29.61,-17.83 -20.26,10.26 -31.04,-20.32l0.32 -96.97z"/>
     <polygon class="fil14" points="4800.21,1131.5 5143.35,1130.78 5142.37,1040.34 4902.28,1036.68 4902.61,930.88 5139.69,926.96 5138.84,837.37 4903.2,836.39 4902.74,737.71 5142.63,737.06 5144.07,644 4742.5,645.25 4744.66,732.75 4797.53,735.3 "/>
     <path class="fil14" d="M7546.92 737.71l239.96 -0.71 1.24 -91.69 -346.35 0.85c0.07,229.37 12.81,190.1 -46.46,198.07l1.63 87.76 44.57 4.18 2.88 194.61 343.01 -0.06 -0.66 -90.58 -239.04 -0.58 0.13 -109.13 235.97 -3.67 -0.78 -89.39 -234.99 -1.05 -1.37 -68.22 0.26 -30.39z"/>
     <path class="fil14" d="M5422.12 739.74c53.53,-6.41 149.39,-13.79 171.41,26.4 35.81,65.35 -20.78,100.18 -84.1,100.18l-61.04 0.46 -26.27 -2.75 0 -124.29zm0.4 220.09c79.98,-6.66 162.71,13.92 222.7,-28.69 43.59,-30.97 80.05,-94.16 59.73,-175 -36.92,-147.23 -241.26,-115.8 -387.58,-111.68l-2.35 221.4 -44.24 2.22 0.46 86.07 45.94 6.01 0.06 171.27 104.82 -0.91 0.46 -170.69z"/>
     <path class="fil14" d="M6167.09 978.52c-12.48,8.04 -5.36,2.29 -17.97,15.68 -5.49,5.82 -6.01,7.65 -12.41,14.64 -73,79.79 -234.86,31.17 -240.03,-111.81 -6.66,-184.48 215.39,-215.58 260.87,-98.61 35.42,-7.71 63,-27.18 92.86,-40.45 -63.12,-192.25 -471.09,-165.72 -462.66,138.93 5.88,214.08 230.15,286.23 364.12,221.79 52.93,-25.48 71.75,-52.28 100.96,-98.74l-85.74 -41.43z"/>
     <path class="fil14" d="M2455.71 1107.06c46.07,41.76 142,44.7 197.94,12.16 47.44,-27.58 71.62,-84.37 101.41,-142.33l166.64 -332.82 -117.82 0.78 -120.63 250.09c-35.09,-61.95 -89.66,-179.38 -116.39,-250.48l-139.97 -0.59 3.07 89.33 60.97 2.23 131.68 263.15c-33.79,69.99 -67.71,50.25 -130.38,26.73 -15.35,18.69 -32.93,55.87 -36.52,81.75z"/>
     <path class="fil14" d="M8001.22 1043.15l1.24 88.22 188.33 -1.83 -0.39 -87.44 -40.97 -5.62 2.22 -298.83 69.86 -0.72c19.93,20.45 -14.71,33.85 100.76,23.39l0.39 -116.38 -421.43 1.11 0.72 91.42 140.89 1.57 -0.13 299.88 -41.49 5.23z"/>
     <polygon class="fil14" points="6916.83,736.73 7058.77,738.69 7058.9,1131.5 7165.28,1131.57 7167.77,737.26 7306.63,735.75 7306.96,643.94 6915.85,643.87 "/>
    </g>
   </g>
  </g>
 </g>
</svg>
