<?xml version="1.0" encoding="UTF-8"?>
<!DOCTYPE svg PUBLIC "-//W3C//DTD SVG 1.1//EN" "http://www.w3.org/Graphics/SVG/1.1/DTD/svg11.dtd">
<!-- Creator: CorelDRAW 2019 (64-Bit) -->
<svg xmlns="http://www.w3.org/2000/svg" xml:space="preserve" width="104.963mm" height="104.963mm" version="1.1" style="shape-rendering:geometricPrecision; text-rendering:geometricPrecision; image-rendering:optimizeQuality; fill-rule:evenodd; clip-rule:evenodd"
viewBox="0 0 10496.3 10496.3"
 xmlns:xlink="http://www.w3.org/1999/xlink"
 xmlns:xodm="http://www.corel.com/coreldraw/odm/2003">
 <defs>
  <style type="text/css">
   <![CDATA[
    .fil0 {fill:#4680C2}
    .fil1 {fill:white}
   ]]>
  </style>
 </defs>
 <g id="Слой_x0020_1">
  <metadata id="CorelCorpID_0Corel-Layer"/>
  <path class="fil0" d="M3637.04 0l3222.22 0c2940.74,0 3637.04,696.3 3637.04,3637.04l0 3222.22c0,2940.74 -696.3,3637.04 -3637.04,3637.04l-3222.22 0c-2940.74,0 -3637.04,-696.3 -3637.04,-3637.04l0 -3222.22c0,-2940.74 696.3,-3637.04 3637.04,-3637.04z"/>
  <path class="fil1" d="M8592.59 3614.82c51.85,-162.96 0,-281.48 -229.63,-281.48l-762.96 0c-192.59,0 -281.48,103.7 -333.33,214.81 0,0 -392.59,948.15 -940.74,1562.96 -177.78,177.78 -259.26,237.04 -355.56,237.04 -51.85,0 -118.52,-59.26 -118.52,-222.22l0 -1518.52c0,-192.59 -59.26,-281.48 -222.22,-281.48l-1200 0c-118.52,0 -192.59,88.89 -192.59,177.78 0,185.19 274.07,229.63 303.7,748.15l0 1125.93c0,244.44 -44.44,288.89 -140.74,288.89 -259.26,0 -888.89,-955.56 -1266.67,-2044.44 -74.07,-214.81 -148.15,-296.3 -340.74,-296.3l-770.37 -0.01c-222.22,0 -259.26,103.7 -259.26,214.81 0,200 259.26,1207.41 1207.41,2540.74 629.63,911.11 1525.93,1400 2333.33,1400 488.89,0 548.15,-111.11 548.15,-296.3l0 -688.89c0,-222.22 44.44,-259.26 200,-259.26 111.11,0 311.11,59.26 762.96,496.3 518.52,518.52 607.41,755.56 896.3,755.56l762.97 0c222.22,0 325.93,-111.11 266.67,-325.93 -66.67,-214.81 -318.52,-525.93 -644.44,-896.3 -177.78,-207.41 -444.44,-437.04 -525.93,-548.15 -111.11,-148.15 -81.48,-207.41 0,-340.74 -7.42,0.01 925.92,-1318.51 1022.21,-1762.95z"/>
 </g>
</svg>
