<?xml version="1.0" encoding="UTF-8"?>
<!DOCTYPE svg PUBLIC "-//W3C//DTD SVG 1.1//EN" "http://www.w3.org/Graphics/SVG/1.1/DTD/svg11.dtd">
<!-- Creator: CorelDRAW 2019 (64-Bit) -->
<svg xmlns="http://www.w3.org/2000/svg" xml:space="preserve" width="122.849mm" height="21.3309mm" version="1.1" style="shape-rendering:geometricPrecision; text-rendering:geometricPrecision; image-rendering:optimizeQuality; fill-rule:evenodd; clip-rule:evenodd"
viewBox="0 0 8434.08 1464.46"
 xmlns:xlink="http://www.w3.org/1999/xlink"
 xmlns:xodm="http://www.corel.com/coreldraw/odm/2003">
 <defs>
  <style type="text/css">
   <![CDATA[
    .fil0 {fill:white}
    .fil1 {fill:white;fill-rule:nonzero}
   ]]>
  </style>
 </defs>
 <g id="Слой_x0020_1">
  <metadata id="CorelCorpID_0Corel-Layer"/>
  <g id="_2396604350480">
   <path class="fil0" d="M365.68 0l733.1 0c201.12,0 365.68,164.55 365.68,365.68l0 733.1c0,201.12 -164.56,365.67 -365.68,365.67l-733.1 0c-201.12,0 -365.68,-164.55 -365.68,-365.67l0 -733.1c0,-201.13 164.56,-365.68 365.68,-365.68zm534.73 473.19l0 117.37 1.67 65.39 8.39 55.33c2.23,14.53 3.35,26.27 3.35,35.21l0 20.12c2.24,15.65 3.35,30.18 3.35,43.6 8.95,8.95 12.86,19 11.74,30.18l-1.68 33.53c5.59,5.59 13.41,25.43 23.47,59.52 10.06,34.09 16.77,51.14 20.12,51.14 10.06,0 25.71,-24.03 46.95,-72.09l77.13 -174.38c35.77,-79.36 58.69,-138.61 68.74,-177.74 0,-52.53 3.35,-88.3 10.06,-107.3 11.18,-32.42 34.09,-55.33 68.74,-68.74l25.15 -10.06c14.53,1.12 21.8,15.08 21.8,41.91 0,7.83 -3.36,28.51 -10.06,62.04 -8.94,44.71 -16.77,68.74 -23.48,72.09 0,12.3 -11.18,47.51 -33.53,105.64l-77.13 201.2c-26.82,70.43 -58.12,134.14 -93.88,191.15 3.35,7.82 5.03,16.2 5.03,25.14 0,13.42 -8.39,28.22 -25.15,44.44 -16.77,16.2 -26.27,25.99 -28.51,29.34 -21.24,25.71 -39.68,41.36 -55.34,46.94l-31.86 5.03c-33.54,0 -50.3,-13.42 -50.3,-40.24 0,-16.77 8.38,-33.54 25.14,-50.3l-28.49 -68.74 -10.06 -60.37c-6.71,-4.46 -13.42,-20.11 -20.12,-46.94 -5.59,-23.47 -8.38,-41.91 -8.38,-55.32 -12.3,-33.54 -19.57,-61.49 -21.8,-83.84l0.01 -1.52c-13.38,118.8 -28.81,210.96 -46.28,276.49 -2.24,12.3 -6.15,26.82 -11.74,43.6l-21.8 38.56 -41.91 20.12c-12.3,8.94 -25.15,13.42 -38.56,13.42 -26.83,0 -59.8,-45.84 -98.93,-137.49l-88.86 -209.59 -36.89 -83.83c-16.76,-38 -27.38,-59.24 -31.85,-63.71 -6.7,6.7 -16.21,30.74 -28.5,72.09l-36.89 125.75c-21.24,80.47 -35.77,136.37 -43.6,167.66l-45.26 155.93c-3.36,10.06 -10.34,16.22 -20.96,18.44 -10.62,2.24 -17.05,5.58 -19.29,10.06 -10.05,-4.48 -15.08,-13.42 -15.08,-26.83l5.03 -31.86c5.6,-36.89 10.62,-63.71 15.09,-80.48 1.12,-15.65 3.91,-36.33 8.38,-62.03 14.53,-98.37 24.04,-150.9 28.51,-157.61 10.06,-48.07 19,-111.23 26.82,-189.47 13.42,-133.02 23.48,-206.24 30.18,-219.65l-1.68 -18.45c0,-25.7 3.92,-48.62 11.74,-68.74 4.48,-17.89 11.19,-26.83 20.13,-26.83l3.35 0 33.54 -5.03c24.58,0 37.44,5.03 38.56,15.09l10.06 -6.71c12.3,-7.82 20.69,-13.96 25.15,-18.43 21.25,-19.01 36.33,-28.51 45.27,-28.51 10.06,1.11 15.1,10.61 15.1,28.51l-33.54 93.89c-4.46,12.3 -6.71,30.74 -6.71,55.34l35.22 110.66c12.3,38 26.27,73.77 41.92,107.31 7.82,27.94 13.41,48.62 16.76,62.04l55.34 134.14c34.65,84.95 58.69,130.21 72.09,135.81 5.6,-8.95 12.86,-41.92 21.8,-98.93l28.51 -181.08c2.24,-14.53 5.59,-93.34 10.06,-236.41 2.24,-60.45 11.71,-115.91 28.39,-166.38 4.83,-38.87 17.5,-72.83 38.01,-101.89l45.27 -21.79c13.41,-6.71 25.15,-10.06 35.21,-10.06 11.18,0 18.45,5.03 21.8,15.1 7.83,7.81 11.73,27.39 11.73,58.67l-6.7 73.78 -11.75 65.39 6.72 35.21z"/>
   <path class="fil1" d="M2580.8 701.08c25.83,11.99 48.89,27.67 69.18,47.05 17.53,16.61 33.44,38.75 47.74,66.42 14.3,27.67 21.45,61.34 21.45,101.01 0,33.21 -6.92,64.81 -20.75,94.79 -13.84,29.98 -33.44,56.27 -58.81,78.87 -25.37,22.6 -55.35,40.82 -89.94,54.66 -34.59,13.83 -72.65,20.75 -114.16,20.75l-373.62 0 0 -871.77 359.78 0c37.82,0 72.88,6.46 105.16,19.37 32.29,12.91 60.2,30.44 83.72,52.58 23.53,22.14 41.74,47.74 54.66,76.8 12.91,29.06 19.37,60.2 19.37,93.4 0,29.52 -5.53,54.89 -16.6,76.1 -11.07,21.22 -23.07,38.29 -35.98,51.2 -15.68,15.68 -32.75,28.59 -51.2,38.74zm-352.86 -55.35l179.89 0c31.36,0 57.66,-10.37 78.87,-31.13 21.22,-20.75 31.83,-44.97 31.83,-72.64 0,-27.67 -10.61,-51.9 -31.83,-72.65 -21.21,-20.75 -47.51,-31.13 -78.87,-31.13l-179.89 0 0 207.56zm193.73 373.62c38.75,0 70.34,-11.99 94.78,-35.98 24.45,-23.98 36.68,-53.5 36.68,-88.56 0,-35.05 -12.23,-64.58 -36.68,-88.56 -24.44,-23.99 -56.04,-35.98 -94.78,-35.98l-193.73 0 0 249.08 193.73 0z"/>
   <path id="1" class="fil1" d="M3061.65 1171.56c-37.82,0 -72.42,-6.23 -103.78,-18.68 -31.36,-12.45 -58.34,-30.44 -80.94,-53.97 -22.61,-23.52 -40.14,-51.89 -52.59,-85.1 -12.45,-33.21 -18.68,-70.58 -18.68,-112.08l0 -373.62 159.13 0 0 352.86c0,41.52 12.23,74.96 36.67,100.32 24.45,25.37 56.04,38.06 94.79,38.06 38.74,0 70.34,-12.69 94.78,-38.06 24.45,-25.37 36.67,-58.81 36.67,-100.32l0 -352.86 159.13 0 0 636.53 -117.62 0 -27.67 -62.27c-15.68,12.91 -32.75,24.45 -51.2,34.59 -15.68,9.23 -34.59,17.29 -56.73,24.21 -22.14,6.92 -46.13,10.38 -71.96,10.38z"/>
   <path id="2" class="fil1" d="M3763.91 521.2c27.67,0 52.58,3.69 74.72,11.07 22.14,7.38 41.05,15.22 56.74,23.52 17.53,10.15 33.67,21.68 48.43,34.59l27.67 -62.27 117.62 0 0 595.01c0,83.03 -26.52,149.91 -79.56,200.65 -53.04,50.74 -128,76.1 -224.86,76.1 -59.04,0 -106.78,-10.61 -143.22,-31.83 -36.43,-21.21 -65.26,-45.2 -86.48,-71.95 -23.98,-30.45 -41.97,-65.04 -53.96,-103.78l159.13 0c6.46,11.99 15.23,22.6 26.29,31.83 10.15,7.38 23.06,14.3 38.74,20.75 15.69,6.46 35.52,9.69 59.5,9.69 45.2,0 80.72,-12.22 106.55,-36.67 25.83,-24.45 38.74,-56.04 38.74,-94.79l0 -48.43c-12.91,12.91 -27.67,24.45 -44.28,34.59 -14.76,9.23 -32.29,17.29 -52.58,24.21 -20.29,6.92 -43.36,10.38 -69.19,10.38 -39.67,0 -77.26,-7.84 -112.78,-23.53 -35.51,-15.68 -66.42,-37.36 -92.71,-65.04 -26.29,-27.67 -47.05,-60.42 -62.27,-98.24 -15.22,-37.82 -22.83,-79.34 -22.83,-124.54 0,-45.2 7.61,-86.72 22.83,-124.54 15.22,-37.82 35.98,-70.57 62.27,-98.24 26.29,-27.67 57.2,-49.36 92.71,-65.04 35.52,-15.68 73.11,-23.53 112.78,-23.53zm-131.46 311.35c0,22.14 3.92,42.9 11.77,62.27 7.84,19.37 18.68,36.21 32.51,50.51 13.84,14.29 29.98,25.59 48.43,33.9 18.45,8.3 38.29,12.45 59.5,12.45 20.29,0 39.67,-4.15 58.12,-12.45 18.45,-8.31 34.59,-19.61 48.43,-33.9 13.83,-14.3 24.91,-31.13 33.21,-50.51 8.31,-19.37 12.45,-40.13 12.45,-62.27 0,-22.14 -4.15,-42.9 -12.45,-62.27 -8.3,-19.37 -19.37,-36.21 -33.21,-50.51 -13.84,-14.29 -29.98,-25.59 -48.43,-33.9 -18.45,-8.3 -37.83,-12.45 -58.12,-12.45 -21.21,0 -41.05,4.15 -59.5,12.45 -18.45,8.31 -34.59,19.61 -48.43,33.9 -13.83,14.3 -24.67,31.13 -32.51,50.51 -7.85,19.37 -11.77,40.13 -11.77,62.27z"/>
   <polygon id="3" class="fil1" points="4597.63,880.97 4182.49,880.97 4182.49,742.6 4597.63,742.6 "/>
   <path id="4" class="fil1" d="M4760.21 375.9l138.38 0 0 152.21 138.37 0 0 145.29 -138.37 0 0 262.92c0,27.67 8.07,49.58 24.21,65.72 16.14,16.15 38.05,24.22 65.73,24.22 7.38,0 13.37,-0.23 17.99,-0.69 4.61,-0.46 8.76,-1.15 12.45,-2.08 3.69,-0.92 7.38,-2.3 11.07,-4.15l0 138.37c-6.45,2.77 -13.83,5.07 -22.14,6.92 -15.68,4.61 -33.67,6.92 -53.96,6.92 -31.37,0 -60.2,-5.31 -86.48,-15.91 -26.29,-10.61 -48.9,-26.06 -67.81,-46.36 -18.91,-20.29 -33.67,-44.28 -44.28,-71.96 -10.61,-27.67 -15.91,-59.04 -15.91,-94.1l0 -269.83 -96.86 0 0 -131.45 41.52 0c50.74,0 76.1,-25.37 76.1,-76.11l0 -89.94z"/>
   <path id="5" class="fil1" d="M5434.8 521.2c7.38,0 13.83,0.47 19.37,1.39 5.54,0.92 10.61,1.85 15.22,2.77 4.61,0.92 9.23,1.85 13.84,2.77l0 166.05c-4.61,-0.93 -9.69,-1.85 -15.22,-2.77 -4.61,-0.93 -10.38,-1.85 -17.3,-2.77 -6.91,-0.92 -14.53,-1.38 -22.83,-1.38 -38.75,0 -70.34,12.68 -94.79,38.06 -24.44,25.37 -36.67,58.81 -36.67,100.32l0 339.02 -159.13 0 0 -636.53 117.63 0 27.67 69.19c11.07,-13.84 24.44,-26.29 40.13,-37.36 12.91,-10.15 28.83,-19.14 47.74,-26.98 18.91,-7.85 40.36,-11.77 64.35,-11.77z"/>
   <path id="6" class="fil1" d="M5811.87 521.2c35.97,0 69.18,6.23 99.63,18.68 30.44,12.45 56.73,29.75 78.87,51.9 22.14,22.14 39.44,48.43 51.89,78.87 12.45,30.44 18.68,63.66 18.68,99.63l0 394.37 -117.62 0 -27.67 -62.27c-14.76,12.91 -30.9,24.45 -48.43,34.59 -15.68,9.23 -34.59,17.29 -56.74,24.21 -22.14,6.92 -47.05,10.38 -74.72,10.38 -69.18,0 -122.23,-16.83 -159.13,-50.51 -36.9,-33.67 -55.36,-76.8 -55.36,-129.38 0,-31.37 6.23,-60.2 18.68,-86.48 12.45,-26.29 33.44,-48.9 62.96,-67.81 29.52,-18.91 68.5,-33.67 116.93,-44.28 48.44,-10.61 109.09,-15.91 181.97,-15.91 0,-35.05 -9.46,-62.27 -28.37,-81.64 -18.91,-19.37 -44.05,-29.05 -75.42,-29.05 -21.21,0 -38.06,3.69 -50.51,11.07 -12.45,7.38 -22.37,15.22 -29.75,23.52 -8.3,10.15 -13.83,21.68 -16.61,34.59l-159.13 0c3.69,-29.52 12.22,-57.2 25.59,-83.02 13.38,-25.83 31.6,-48.43 54.66,-67.8 23.06,-19.37 50.51,-34.83 82.33,-46.36 31.83,-11.53 67.58,-17.3 107.24,-17.3zm-48.44 525.83c41.52,0 74.96,-12.22 100.32,-36.67 25.37,-24.45 38.06,-56.04 38.06,-94.79l0 -27.67c-47.05,0 -84.87,2.08 -113.47,6.23 -28.59,4.15 -50.97,10.15 -67.11,17.99 -16.15,7.85 -26.98,17.3 -32.52,28.37 -5.53,11.07 -8.3,23.53 -8.3,37.36 0,17.53 7.84,33.44 23.53,47.74 15.68,14.3 35.51,21.45 59.5,21.45z"/>
   <path id="7" class="fil1" d="M6756.27 929.41c-7.38,31.36 -19.83,61.58 -37.36,90.64 -17.53,29.05 -39.21,54.89 -65.04,77.49 -25.83,22.6 -55.35,40.59 -88.56,53.96 -33.21,13.38 -68.73,20.07 -106.55,20.07 -43.36,0 -84.18,-8.53 -122.46,-25.6 -38.29,-17.07 -71.96,-40.36 -101.02,-69.88 -29.06,-29.52 -52.12,-63.89 -69.19,-103.09 -17.06,-39.21 -25.59,-81.41 -25.59,-126.61 0,-45.21 8.53,-87.41 25.59,-126.62 17.07,-39.2 40.13,-73.57 69.19,-103.08 29.06,-29.52 62.73,-52.82 101.02,-69.88 38.28,-17.07 79.1,-25.6 122.46,-25.6 37.82,0 73.34,6.69 106.55,20.07 33.21,13.37 62.73,31.36 88.56,53.97 25.83,22.6 47.51,48.43 65.04,77.49 17.53,29.05 29.98,59.27 37.36,90.63l-159.13 0c-7.38,-16.6 -17.53,-31.36 -30.44,-44.28 -11.07,-11.07 -25.37,-21.45 -42.9,-31.13 -17.53,-9.69 -39.21,-14.53 -65.04,-14.53 -45.2,0 -83.02,15.69 -113.46,47.05 -30.45,31.37 -45.67,73.34 -45.67,125.93 0,52.58 15.22,94.55 45.67,125.92 30.44,31.37 68.26,47.05 113.46,47.05 25.83,0 47.51,-4.61 65.04,-13.84 17.53,-9.22 31.83,-19.37 42.9,-30.44 12.91,-12.91 23.06,-28.13 30.44,-45.66l159.13 0z"/>
   <polygon id="8" class="fil1" points="7216.38,1164.64 6994.97,874.06 6994.97,1164.64 6835.84,1164.64 6835.84,292.88 6994.97,292.88 6994.97,791.03 7188.7,528.12 7368.59,528.12 7140.27,832.54 7396.26,1164.64 "/>
   <path id="9" class="fil1" d="M7980.9 970.92c-8.31,23.99 -20.99,47.98 -38.06,71.96 -17.07,23.99 -37.82,45.44 -62.27,64.35 -24.45,18.91 -52.12,34.36 -83.02,46.36 -30.91,11.99 -64.35,17.99 -100.32,17.99 -43.36,0 -84.18,-8.53 -122.46,-25.6 -38.29,-17.07 -71.96,-40.36 -101.02,-69.88 -29.06,-29.52 -52.12,-63.89 -69.19,-103.09 -17.06,-39.21 -25.59,-81.41 -25.59,-126.61 0,-45.21 8.53,-87.41 25.59,-126.62 17.07,-39.2 40.13,-73.57 69.19,-103.08 29.06,-29.52 62.73,-52.82 101.02,-69.88 38.28,-17.07 79.1,-25.6 122.46,-25.6 41.52,0 80.72,7.85 117.62,23.53 36.9,15.68 69.19,37.82 96.86,66.42 27.67,28.6 49.58,62.96 65.73,103.09 16.14,40.13 24.21,84.18 24.21,132.15 0,7.38 -0.46,14.53 -1.39,21.45 -0.92,6.91 -1.84,13.61 -2.77,20.06 -0.92,7.38 -1.84,14.3 -2.77,20.76l-442.8 0c7.38,31.36 23.06,57.66 47.05,78.87 23.98,21.22 56.73,31.83 98.24,31.83 21.22,0 38.98,-2.31 53.28,-6.92 14.3,-4.61 26.52,-10.15 36.67,-16.61 11.07,-7.38 20.29,-15.68 27.67,-24.91l166.05 0zm-283.67 -297.51c-41.52,0 -75.42,11.99 -101.7,35.98 -26.29,23.98 -43.13,53.5 -50.51,88.56l304.43 0c-7.38,-35.05 -24.21,-64.58 -50.51,-88.56 -26.29,-23.99 -60.19,-35.98 -101.7,-35.98z"/>
   <path id="10" class="fil1" d="M8385.65 521.2c7.38,0 13.83,0.47 19.37,1.39 5.54,0.92 10.61,1.85 15.22,2.77 4.61,0.92 9.23,1.85 13.84,2.77l0 166.05c-4.61,-0.93 -9.69,-1.85 -15.22,-2.77 -4.61,-0.93 -10.38,-1.85 -17.3,-2.77 -6.91,-0.92 -14.53,-1.38 -22.83,-1.38 -38.75,0 -70.34,12.68 -94.79,38.06 -24.44,25.37 -36.67,58.81 -36.67,100.32l0 339.02 -159.13 0 0 -636.53 117.63 0 27.67 69.19c11.07,-13.84 24.44,-26.29 40.13,-37.36 12.91,-10.15 28.83,-19.14 47.74,-26.98 18.91,-7.85 40.36,-11.77 64.35,-11.77z"/>
  </g>
 </g>
</svg>
