<?xml version="1.0" encoding="UTF-8"?>
<!DOCTYPE svg PUBLIC "-//W3C//DTD SVG 1.1//EN" "http://www.w3.org/Graphics/SVG/1.1/DTD/svg11.dtd">
<!-- Creator: CorelDRAW 2019 (64-Bit) -->
<svg xmlns="http://www.w3.org/2000/svg" xml:space="preserve" width="98.6621mm" height="21.3309mm" version="1.1" style="shape-rendering:geometricPrecision; text-rendering:geometricPrecision; image-rendering:optimizeQuality; fill-rule:evenodd; clip-rule:evenodd"
viewBox="0 0 5439.99 1176.13"
 xmlns:xlink="http://www.w3.org/1999/xlink"
 xmlns:xodm="http://www.corel.com/coreldraw/odm/2003">
 <defs>
  <style type="text/css">
   <![CDATA[
    .fil0 {fill:white}
    .fil1 {fill:white;fill-rule:nonzero}
   ]]>
  </style>
 </defs>
 <g id="Слой_x0020_1">
  <metadata id="CorelCorpID_0Corel-Layer"/>
  <g id="_2396718800672">
   <path class="fil0" d="M293.68 0l588.77 0c161.53,0 293.68,132.16 293.68,293.69l0 588.76c0,161.53 -132.16,293.68 -293.68,293.68l-588.77 0c-161.52,0 -293.68,-132.15 -293.68,-293.68l0 -588.76c0,-161.53 132.16,-293.69 293.68,-293.69zm429.45 380.03l0 94.26 1.34 52.51 6.74 44.44c1.79,11.67 2.69,21.1 2.69,28.27l0 16.16c1.8,12.57 2.69,24.24 2.69,35.02 7.19,7.18 10.33,15.26 9.43,24.24l-1.35 26.93c4.49,4.49 10.77,20.42 18.85,47.8 8.08,27.38 13.47,41.07 16.16,41.07 8.08,0 20.65,-19.29 37.7,-57.9l61.95 -140.04c28.73,-63.74 47.13,-111.32 55.21,-142.75 0,-42.19 2.69,-70.92 8.08,-86.17 8.98,-26.04 27.38,-44.44 55.21,-55.21l20.2 -8.08c11.67,0.9 17.51,12.11 17.51,33.66 0,6.29 -2.7,22.89 -8.08,49.82 -7.18,35.91 -13.47,55.21 -18.86,57.9 0,9.88 -8.98,38.15 -26.93,84.83l-61.95 161.59c-21.54,56.57 -46.67,107.73 -75.4,153.51 2.69,6.28 4.04,13.02 4.04,20.2 0,10.77 -6.74,22.67 -20.2,35.69 -13.47,13.01 -21.1,20.86 -22.89,23.57 -17.06,20.64 -31.87,33.21 -44.44,37.7l-25.58 4.04c-26.93,0 -40.39,-10.78 -40.39,-32.32 0,-13.47 6.73,-26.93 20.19,-40.4l-22.88 -55.21 -8.08 -48.48c-5.39,-3.58 -10.77,-16.15 -16.16,-37.7 -4.49,-18.85 -6.73,-33.66 -6.73,-44.44 -9.88,-26.93 -15.71,-49.38 -17.51,-67.33l0.01 -1.22c-10.75,95.41 -23.14,169.43 -37.17,222.06 -1.8,9.87 -4.94,21.54 -9.43,35.01l-17.51 30.97 -33.66 16.16c-9.88,7.18 -20.2,10.78 -30.97,10.78 -21.55,0 -48.03,-36.82 -79.45,-110.42l-71.36 -168.32 -29.63 -67.33c-13.46,-30.52 -21.99,-47.58 -25.58,-51.17 -5.38,5.38 -13.02,24.69 -22.89,57.91l-29.63 101c-17.06,64.63 -28.73,109.52 -35.02,134.65l-36.35 125.23c-2.7,8.08 -8.3,13.02 -16.83,14.82 -8.53,1.8 -13.69,4.48 -15.49,8.08 -8.07,-3.59 -12.11,-10.77 -12.11,-21.55l4.04 -25.58c4.49,-29.63 8.53,-51.16 12.12,-64.63 0.9,-12.57 3.14,-29.18 6.73,-49.82 11.67,-79 19.3,-121.19 22.89,-126.58 8.08,-38.6 15.26,-89.32 21.54,-152.16 10.78,-106.83 18.86,-165.63 24.24,-176.4l-1.35 -14.82c0,-20.65 3.15,-39.05 9.43,-55.21 3.59,-14.37 8.99,-21.55 16.17,-21.55l2.69 0 26.93 -4.04c19.74,0 30.07,4.04 30.97,12.11l8.08 -5.39c9.88,-6.28 16.61,-11.21 20.2,-14.8 17.07,-15.27 29.18,-22.89 36.36,-22.89 8.08,0.89 12.12,8.52 12.12,22.89l-26.93 75.4c-3.58,9.88 -5.39,24.7 -5.39,44.44l28.29 88.88c9.88,30.52 21.1,59.25 33.67,86.18 6.28,22.44 10.77,39.04 13.46,49.82l44.44 107.73c27.83,68.23 47.13,104.58 57.9,109.07 4.49,-7.18 10.33,-33.66 17.51,-79.45l22.89 -145.43c1.8,-11.67 4.49,-74.96 8.08,-189.87 1.8,-48.54 9.4,-93.09 22.8,-133.63 3.88,-31.21 14.05,-58.48 30.53,-81.82l36.36 -17.51c10.77,-5.39 20.2,-8.08 28.27,-8.08 8.98,0 14.82,4.04 17.51,12.12 6.29,6.27 9.42,21.99 9.42,47.12l-5.38 59.26 -9.43 52.51 5.4 28.29z"/>
   <polygon class="fil1" points="1789.3,935.35 1655.94,935.35 1655.94,235.22 1789.3,235.22 "/>
   <polygon id="1" class="fil1" points="1853.2,235.22 2397.75,235.22 2397.75,363.03 2192.15,363.03 2192.15,935.35 2058.79,935.35 2058.79,363.03 1853.2,363.03 "/>
   <polygon id="2" class="fil1" points="2739.48,707.53 2406.08,707.53 2406.08,596.4 2739.48,596.4 "/>
   <polygon id="3" class="fil1" points="3053.43,935.35 2958.96,935.35 2736.7,235.22 2870.05,235.22 3008.97,690.86 3153.45,235.22 3231.23,235.22 3375.71,690.86 3514.62,235.22 3647.98,235.22 3425.71,935.35 3331.25,935.35 3192.34,496.38 "/>
   <path id="4" class="fil1" d="M3878.58 418.59c28.89,0 55.56,5 80.02,15 24.45,10 45.56,23.9 63.34,41.68 17.78,17.78 31.67,38.89 41.67,63.34 10,24.45 15,51.12 15,80.02l0 316.73 -94.46 0 -22.23 -50.01c-11.85,10.37 -24.82,19.63 -38.89,27.78 -12.59,7.41 -27.78,13.89 -45.57,19.45 -17.78,5.56 -37.79,8.34 -60.01,8.34 -55.56,0 -98.17,-13.52 -127.8,-40.56 -29.64,-27.04 -44.46,-61.68 -44.46,-103.91 0,-25.19 5,-48.34 15,-69.46 10,-21.12 26.86,-39.27 50.57,-54.46 23.71,-15.18 55.01,-27.04 93.9,-35.56 38.9,-8.52 87.61,-12.78 146.14,-12.78 0,-28.15 -7.6,-50.01 -22.78,-65.57 -15.19,-15.56 -35.38,-23.33 -60.57,-23.33 -17.04,0 -30.56,2.96 -40.56,8.89 -10,5.93 -17.96,12.22 -23.89,18.89 -6.67,8.15 -11.11,17.41 -13.34,27.78l-127.8 0c2.96,-23.71 9.81,-45.94 20.56,-66.68 10.75,-20.74 25.38,-38.89 43.9,-54.45 18.52,-15.56 40.56,-27.97 66.12,-37.23 25.56,-9.26 54.27,-13.89 86.13,-13.89zm-38.9 422.3c33.34,0 60.2,-9.81 80.57,-29.45 20.37,-19.63 30.56,-45.01 30.56,-76.13l0 -22.23c-37.79,0 -68.16,1.67 -91.13,5 -22.96,3.34 -40.93,8.15 -53.9,14.45 -12.97,6.3 -21.67,13.89 -26.12,22.78 -4.44,8.89 -6.67,18.9 -6.67,30.01 0,14.08 6.3,26.86 18.9,38.34 12.59,11.49 28.52,17.22 47.78,17.22z"/>
   <polygon id="5" class="fil1" points="4298.1,935.35 4170.3,935.35 4170.3,235.22 4298.1,235.22 "/>
   <polygon id="6" class="fil1" points="4523.15,935.35 4395.34,935.35 4395.34,235.22 4523.15,235.22 "/>
   <path id="7" class="fil1" d="M5076.03 779.77c-6.67,19.27 -16.86,38.53 -30.56,57.79 -13.71,19.27 -30.38,36.49 -50.01,51.68 -19.63,15.18 -41.86,27.6 -66.68,37.23 -24.82,9.63 -51.68,14.45 -80.57,14.45 -34.82,0 -67.6,-6.85 -98.35,-20.56 -30.75,-13.71 -57.79,-32.42 -81.13,-56.12 -23.34,-23.71 -41.86,-51.31 -55.57,-82.79 -13.7,-31.49 -20.56,-65.38 -20.56,-101.68 0,-36.31 6.85,-70.2 20.56,-101.69 13.71,-31.48 32.23,-59.09 55.57,-82.79 23.34,-23.71 50.38,-42.42 81.13,-56.12 30.74,-13.71 63.53,-20.56 98.35,-20.56 33.34,0 64.83,6.3 94.46,18.9 29.64,12.59 55.57,30.38 77.79,53.34 22.23,22.97 39.82,50.57 52.79,82.79 12.96,32.23 19.45,67.6 19.45,106.13 0,5.93 -0.37,11.67 -1.11,17.22 -0.74,5.55 -1.48,10.93 -2.22,16.11 -0.74,5.93 -1.48,11.49 -2.22,16.67l-355.62 0c5.93,25.19 18.52,46.3 37.79,63.34 19.26,17.04 45.56,25.56 78.9,25.56 17.04,0 31.3,-1.85 42.79,-5.56 11.49,-3.71 21.3,-8.15 29.45,-13.34 8.89,-5.93 16.3,-12.59 22.23,-20l133.36 0zm-227.82 -238.93c-33.34,0 -60.57,9.63 -81.68,28.9 -21.12,19.26 -34.64,42.97 -40.56,71.12l244.49 0c-5.93,-28.15 -19.45,-51.86 -40.56,-71.12 -21.11,-19.27 -48.34,-28.9 -81.68,-28.9z"/>
   <path id="8" class="fil1" d="M5217.73 301.9l111.14 0 0 122.25 111.13 0 0 116.69 -111.13 0 0 211.15c0,22.23 6.48,39.82 19.45,52.78 12.96,12.97 30.56,19.45 52.79,19.45 5.93,0 10.74,-0.19 14.45,-0.56 3.71,-0.37 7.04,-0.93 10,-1.67 2.96,-0.74 5.93,-1.85 8.89,-3.33l0 111.13c-5.18,2.22 -11.11,4.07 -17.78,5.56 -12.59,3.71 -27.04,5.56 -43.34,5.56 -25.19,0 -48.34,-4.26 -69.46,-12.78 -21.12,-8.52 -39.27,-20.93 -54.46,-37.23 -15.18,-16.3 -27.04,-35.56 -35.56,-57.79 -8.52,-22.23 -12.78,-47.42 -12.78,-75.57l0 -216.71 -77.79 0 0 -105.57 33.34 0c40.75,0 61.12,-20.37 61.12,-61.13l0 -72.24z"/>
  </g>
 </g>
</svg>
