<?xml version="1.0" encoding="UTF-8"?>
<!DOCTYPE svg PUBLIC "-//W3C//DTD SVG 1.1//EN" "http://www.w3.org/Graphics/SVG/1.1/DTD/svg11.dtd">
<!-- Creator: CorelDRAW 2019 (64-Bit) -->
<svg xmlns="http://www.w3.org/2000/svg" xml:space="preserve" width="104.406mm" height="21.3309mm" version="1.1" style="shape-rendering:geometricPrecision; text-rendering:geometricPrecision; image-rendering:optimizeQuality; fill-rule:evenodd; clip-rule:evenodd"
viewBox="0 0 6091.88 1244.61"
 xmlns:xlink="http://www.w3.org/1999/xlink"
 xmlns:xodm="http://www.corel.com/coreldraw/odm/2003">
 <defs>
  <style type="text/css">
   <![CDATA[
    .fil0 {fill:white}
    .fil1 {fill:white;fill-rule:nonzero}
   ]]>
  </style>
 </defs>
 <g id="Слой_x0020_1">
  <metadata id="CorelCorpID_0Corel-Layer"/>
  <g id="_1336528364768">
   <path class="fil0" d="M310.78 0l623.05 0c170.93,0 310.78,139.85 310.78,310.78l0 623.05c0,170.93 -139.85,310.78 -310.78,310.78l-623.05 0c-170.92,0 -310.78,-139.85 -310.78,-310.78l0 -623.05c0,-170.94 139.86,-310.78 310.78,-310.78zm454.45 402.15l0 99.75 1.42 55.56 7.13 47.03c1.9,12.35 2.85,22.32 2.85,29.92l0 17.1c1.91,13.3 2.85,25.65 2.85,37.05 7.61,7.6 10.93,16.15 9.98,25.65l-1.42 28.5c4.75,4.75 11.4,21.61 19.94,50.59 8.55,28.98 14.25,43.46 17.1,43.46 8.55,0 21.85,-20.42 39.9,-61.27l65.55 -148.2c30.4,-67.45 49.88,-117.8 58.42,-151.06 0,-44.64 2.85,-75.04 8.55,-91.19 9.5,-27.55 28.98,-47.02 58.42,-58.42l21.37 -8.55c12.35,0.95 18.53,12.82 18.53,35.62 0,6.66 -2.85,24.23 -8.55,52.72 -7.6,38 -14.25,58.42 -19.95,61.27 0,10.46 -9.5,40.37 -28.5,89.77l-65.55 171c-22.79,59.85 -49.39,114 -79.79,162.45 2.85,6.65 4.27,13.77 4.27,21.37 0,11.4 -7.13,23.99 -21.37,37.77 -14.25,13.77 -22.33,22.08 -24.23,24.94 -18.05,21.85 -33.73,35.15 -47.03,39.89l-27.07 4.28c-28.5,0 -42.75,-11.4 -42.75,-34.2 0,-14.25 7.12,-28.5 21.37,-42.75l-24.21 -58.42 -8.55 -51.31c-5.7,-3.79 -11.4,-17.09 -17.1,-39.89 -4.75,-19.94 -7.12,-35.62 -7.12,-47.02 -10.46,-28.51 -16.63,-52.26 -18.53,-71.25l0.01 -1.29c-11.37,100.97 -24.48,179.29 -39.33,234.98 -1.9,10.45 -5.23,22.8 -9.98,37.05l-18.53 32.77 -35.62 17.1c-10.46,7.6 -21.37,11.41 -32.77,11.41 -22.8,0 -50.83,-38.96 -84.08,-116.85l-75.52 -178.13 -31.36 -71.24c-14.24,-32.3 -23.27,-50.35 -27.07,-54.15 -5.69,5.69 -13.78,26.12 -24.22,61.27l-31.35 106.88c-18.05,68.39 -30.4,115.9 -37.06,142.49l-38.47 132.53c-2.85,8.55 -8.79,13.78 -17.81,15.67 -9.03,1.91 -14.49,4.74 -16.4,8.55 -8.54,-3.81 -12.82,-11.41 -12.82,-22.8l4.28 -27.07c4.76,-31.35 9.03,-54.15 12.82,-68.4 0.95,-13.3 3.33,-30.88 7.12,-52.72 12.35,-83.61 20.43,-128.25 24.23,-133.95 8.55,-40.86 16.14,-94.53 22.79,-161.02 11.41,-113.05 19.95,-175.28 25.65,-186.67l-1.42 -15.68c0,-21.85 3.33,-41.32 9.98,-58.42 3.8,-15.21 9.51,-22.8 17.11,-22.8l2.85 0 28.5 -4.27c20.89,0 31.82,4.27 32.77,12.82l8.55 -5.71c10.46,-6.65 17.58,-11.87 21.37,-15.67 18.06,-16.16 30.88,-24.23 38.47,-24.23 8.55,0.95 12.83,9.02 12.83,24.23l-28.5 79.8c-3.79,10.45 -5.71,26.13 -5.71,47.03l29.93 94.04c10.45,32.3 22.33,62.69 35.63,91.2 6.65,23.75 11.4,41.32 14.24,52.72l47.03 114.01c29.45,72.19 49.88,110.66 61.27,115.42 4.76,-7.6 10.93,-35.63 18.53,-84.08l24.23 -153.89c1.9,-12.35 4.75,-79.32 8.55,-200.92 1.91,-51.38 9.95,-98.51 24.13,-141.41 4.11,-33.04 14.87,-61.9 32.31,-86.59l38.47 -18.52c11.4,-5.71 21.37,-8.55 29.92,-8.55 9.5,0 15.68,4.27 18.53,12.83 6.65,6.64 9.97,23.27 9.97,49.86l-5.69 62.71 -9.98 55.57 5.71 29.93z"/>
   <polygon class="fil1" points="2346.25,248.91 2346.25,989.81 2222.77,989.81 1893.47,507.64 1893.47,989.81 1752.35,989.81 1752.35,248.91 1875.84,248.91 2205.12,731.08 2205.12,248.91 "/>
   <path id="1" class="fil1" d="M2943.08 825.16c-7.06,20.39 -17.84,40.77 -32.34,61.15 -14.51,20.39 -32.14,38.61 -52.92,54.69 -20.78,16.07 -44.3,29.2 -70.56,39.4 -26.27,10.19 -54.69,15.29 -85.26,15.29 -36.85,0 -71.54,-7.25 -104.07,-21.76 -32.54,-14.51 -61.15,-34.3 -85.85,-59.39 -24.7,-25.09 -44.3,-54.3 -58.8,-87.62 -14.5,-33.32 -21.75,-69.19 -21.75,-107.61 0,-38.42 7.25,-74.29 21.75,-107.61 14.51,-33.32 34.1,-62.53 58.8,-87.61 24.7,-25.09 53.31,-44.89 85.85,-59.39 32.53,-14.51 67.23,-21.76 104.07,-21.76 35.28,0 68.6,6.67 99.96,20 31.36,13.33 58.8,32.14 82.32,56.45 23.52,24.31 42.14,53.51 55.86,87.62 13.72,34.1 20.58,71.54 20.58,112.31 0,6.27 -0.39,12.35 -1.18,18.23 -0.78,5.88 -1.56,11.56 -2.35,17.05 -0.78,6.27 -1.56,12.15 -2.35,17.64l-376.33 0c6.27,26.65 19.6,49 39.99,67.03 20.38,18.04 48.21,27.05 83.5,27.05 18.04,0 33.12,-1.96 45.28,-5.88 12.15,-3.92 22.54,-8.62 31.16,-14.11 9.41,-6.27 17.25,-13.33 23.52,-21.17l141.13 0zm-241.09 -252.84c-35.28,0 -64.1,10.19 -86.44,30.58 -22.35,20.38 -36.65,45.47 -42.93,75.26l258.73 0c-6.27,-29.79 -20.58,-54.88 -42.93,-75.26 -22.34,-20.39 -51.15,-30.58 -86.44,-30.58z"/>
   <path id="2" class="fil1" d="M3140.06 719.32c0,44.69 12.94,80.36 38.81,107.02 25.87,26.66 58.02,39.99 96.43,39.99 38.42,0 70.56,-13.33 96.43,-39.99 25.88,-26.66 38.81,-62.33 38.81,-107.02 0,-44.69 -12.94,-80.36 -38.81,-107.02 -25.87,-26.65 -58.02,-39.99 -96.43,-39.99 -38.42,0 -70.56,13.33 -96.43,39.99 -25.88,26.66 -38.81,62.33 -38.81,107.02zm405.73 0c0,38.42 -7.25,74.28 -21.75,107.61 -14.51,33.32 -34.1,62.53 -58.8,87.62 -24.7,25.08 -53.31,44.88 -85.85,59.39 -32.54,14.51 -67.23,21.76 -104.08,21.76 -36.85,0 -71.54,-7.25 -104.07,-21.76 -32.54,-14.51 -61.15,-34.3 -85.85,-59.39 -24.7,-25.09 -44.3,-54.3 -58.8,-87.62 -14.5,-33.32 -21.75,-69.19 -21.75,-107.61 0,-38.42 7.25,-74.29 21.75,-107.61 14.51,-33.32 34.1,-62.53 58.8,-87.61 24.7,-25.09 53.31,-44.89 85.85,-59.39 32.53,-14.51 67.23,-21.76 104.07,-21.76 36.85,0 71.54,7.25 104.08,21.76 32.53,14.51 61.15,34.3 85.85,59.39 24.7,25.08 44.3,54.29 58.8,87.61 14.51,33.32 21.75,69.19 21.75,107.61z"/>
   <polygon id="3" class="fil1" points="3895.66,989.81 3795.7,989.81 3560.49,248.91 3701.61,248.91 3848.62,731.08 4001.5,248.91 4083.82,248.91 4236.7,731.08 4383.71,248.91 4524.83,248.91 4289.63,989.81 4189.66,989.81 4042.66,525.28 "/>
   <path id="4" class="fil1" d="M4768.86 442.95c30.57,0 58.8,5.29 84.67,15.88 25.87,10.58 48.21,25.29 67.03,44.11 18.82,18.82 33.51,41.16 44.1,67.03 10.58,25.87 15.88,54.1 15.88,84.67l0 335.17 -99.96 0 -23.52 -52.92c-12.54,10.98 -26.26,20.78 -41.16,29.4 -13.33,7.84 -29.4,14.7 -48.22,20.58 -18.82,5.88 -39.99,8.82 -63.51,8.82 -58.8,0 -103.88,-14.31 -135.24,-42.93 -31.36,-28.61 -47.05,-65.27 -47.05,-109.96 0,-26.66 5.29,-51.16 15.88,-73.5 10.58,-22.35 28.42,-41.56 53.51,-57.63 25.09,-16.07 58.21,-28.61 99.37,-37.63 41.16,-9.01 92.71,-13.53 154.65,-13.53 0,-29.79 -8.04,-52.92 -24.11,-69.39 -16.07,-16.47 -37.44,-24.69 -64.1,-24.69 -18.03,0 -32.34,3.13 -42.93,9.41 -10.58,6.27 -19.01,12.94 -25.28,19.99 -7.05,8.62 -11.76,18.43 -14.11,29.4l-135.24 0c3.13,-25.09 10.39,-48.61 21.75,-70.56 11.37,-21.95 26.86,-41.16 46.46,-57.62 19.6,-16.47 42.93,-29.6 69.97,-39.4 27.05,-9.8 57.43,-14.7 91.15,-14.7zm-41.16 446.89c35.28,0 63.7,-10.39 85.26,-31.16 21.56,-20.78 32.34,-47.63 32.34,-80.56l0 -23.52c-39.99,0 -72.13,1.77 -96.44,5.29 -24.3,3.53 -43.32,8.62 -57.03,15.29 -13.72,6.67 -22.93,14.7 -27.64,24.11 -4.7,9.41 -7.05,20 -7.05,31.75 0,14.9 6.66,28.42 20,40.58 13.33,12.15 30.18,18.23 50.56,18.23z"/>
   <polygon id="5" class="fil1" points="5547.98,448.83 5342.17,989.81 5212.81,989.81 5007.01,448.83 5148.13,448.83 5277.49,822.81 5406.85,448.83 "/>
   <path id="6" class="fil1" d="M6074.25 825.16c-7.06,20.39 -17.84,40.77 -32.34,61.15 -14.51,20.39 -32.14,38.61 -52.92,54.69 -20.78,16.07 -44.3,29.2 -70.56,39.4 -26.27,10.19 -54.69,15.29 -85.26,15.29 -36.85,0 -71.54,-7.25 -104.07,-21.76 -32.54,-14.51 -61.15,-34.3 -85.85,-59.39 -24.7,-25.09 -44.3,-54.3 -58.8,-87.62 -14.5,-33.32 -21.75,-69.19 -21.75,-107.61 0,-38.42 7.25,-74.29 21.75,-107.61 14.51,-33.32 34.1,-62.53 58.8,-87.61 24.7,-25.09 53.31,-44.89 85.85,-59.39 32.53,-14.51 67.23,-21.76 104.07,-21.76 35.28,0 68.6,6.67 99.96,20 31.36,13.33 58.8,32.14 82.32,56.45 23.52,24.31 42.14,53.51 55.86,87.62 13.72,34.1 20.58,71.54 20.58,112.31 0,6.27 -0.39,12.35 -1.18,18.23 -0.78,5.88 -1.56,11.56 -2.35,17.05 -0.78,6.27 -1.56,12.15 -2.35,17.64l-376.33 0c6.27,26.65 19.6,49 39.99,67.03 20.38,18.04 48.21,27.05 83.5,27.05 18.04,0 33.12,-1.96 45.28,-5.88 12.15,-3.92 22.54,-8.62 31.16,-14.11 9.41,-6.27 17.25,-13.33 23.52,-21.17l141.13 0zm-241.09 -252.84c-35.28,0 -64.1,10.19 -86.44,30.58 -22.35,20.38 -36.65,45.47 -42.93,75.26l258.73 0c-6.27,-29.79 -20.58,-54.88 -42.93,-75.26 -22.34,-20.39 -51.15,-30.58 -86.44,-30.58z"/>
  </g>
 </g>
</svg>
