<?xml version="1.0" encoding="UTF-8"?>
<!DOCTYPE svg PUBLIC "-//W3C//DTD SVG 1.1//EN" "http://www.w3.org/Graphics/SVG/1.1/DTD/svg11.dtd">
<!-- Creator: CorelDRAW 2019 (64-Bit) -->
<svg xmlns="http://www.w3.org/2000/svg" xml:space="preserve" width="97.601mm" height="19.9406mm" version="1.1" style="shape-rendering:geometricPrecision; text-rendering:geometricPrecision; image-rendering:optimizeQuality; fill-rule:evenodd; clip-rule:evenodd"
viewBox="0 0 5323.61 1087.65"
 xmlns:xlink="http://www.w3.org/1999/xlink"
 xmlns:xodm="http://www.corel.com/coreldraw/odm/2003">
 <defs>
  <style type="text/css">
   <![CDATA[
    .fil0 {fill:#53599C}
    .fil2 {fill:#53599C;fill-rule:nonzero}
    .fil1 {fill:white;fill-rule:nonzero}
   ]]>
  </style>
 </defs>
 <g id="Слой_x0020_1">
  <metadata id="CorelCorpID_0Corel-Layer"/>
  <g id="_1336535591648">
   <g>
    <path class="fil0" d="M271.59 0l544.47 0c149.38,0 271.59,122.22 271.59,271.59l0 544.46c0,149.38 -122.21,271.59 -271.59,271.59l-544.47 0c-149.38,0 -271.59,-122.22 -271.59,-271.59l0 -544.46c0,-149.38 122.21,-271.59 271.59,-271.59z"/>
    <path class="fil1" d="M668.72 351.43l0 87.17 1.24 48.56 6.23 41.09c1.66,10.79 2.49,19.51 2.49,26.15l0 14.94c1.66,11.62 2.49,22.41 2.49,32.38 6.64,6.64 9.55,14.12 8.72,22.42l-1.24 24.9c4.15,4.16 9.96,18.89 17.43,44.21 7.47,25.33 12.45,37.98 14.94,37.98 7.47,0 19.1,-17.85 34.87,-53.54l57.28 -129.51c26.56,-58.94 43.59,-102.94 51.06,-132 0,-39.02 2.49,-65.58 7.47,-79.7 8.3,-24.08 25.31,-41.09 51.05,-51.05l18.68 -7.47c10.79,0.83 16.19,11.2 16.19,31.13 0.01,5.81 -2.49,21.17 -7.47,46.07 -6.64,33.21 -12.45,51.06 -17.43,53.55 0,9.14 -8.3,35.28 -24.91,78.45l-57.28 149.44c-19.92,52.3 -43.17,99.62 -69.74,141.96 2.49,5.81 3.74,12.04 3.74,18.68 0,9.97 -6.23,20.97 -18.68,33 -12.45,12.03 -19.51,19.3 -21.17,21.79 -15.77,19.09 -29.47,30.71 -41.09,34.86l-23.66 3.74c-24.9,0 -37.36,-9.96 -37.36,-29.89 0,-12.45 6.23,-24.91 18.68,-37.36l-21.17 -51.05 -7.47 -44.84c-4.99,-3.32 -9.97,-14.94 -14.95,-34.86 -4.15,-17.43 -6.23,-31.13 -6.23,-41.09 -9.13,-24.91 -14.53,-45.66 -16.19,-62.27l0.01 -1.12c-9.94,88.23 -21.4,156.68 -34.37,205.35 -1.66,9.13 -4.57,19.93 -8.72,32.38l-16.19 28.64 -31.13 14.95c-9.14,6.64 -18.68,9.97 -28.65,9.97 -19.92,0 -44.41,-34.04 -73.47,-102.11l-65.99 -155.66 -27.4 -62.26c-12.45,-28.23 -20.34,-44 -23.66,-47.32 -4.98,4.98 -12.04,22.83 -21.17,53.55l-27.4 93.39c-15.77,59.77 -26.56,101.28 -32.37,124.53l-33.63 115.81c-2.49,7.47 -7.67,12.04 -15.56,13.7 -7.89,1.66 -12.67,4.15 -14.32,7.47 -7.47,-3.33 -11.21,-9.97 -11.21,-19.93l3.74 -23.66c4.16,-27.4 7.89,-47.32 11.21,-59.78 0.83,-11.62 2.91,-26.98 6.22,-46.07 10.79,-73.06 17.85,-112.07 21.17,-117.05 7.47,-35.7 14.11,-82.6 19.92,-140.71 9.97,-98.79 17.44,-153.17 22.42,-163.13l-1.25 -13.7c0,-19.1 2.91,-36.11 8.72,-51.05 3.33,-13.29 8.31,-19.93 14.95,-19.93l2.49 0 24.91 -3.74c18.26,0 27.81,3.74 28.64,11.21l7.47 -4.99c9.13,-5.81 15.36,-10.37 18.68,-13.7 15.77,-14.12 26.98,-21.17 33.62,-21.17 7.47,0.82 11.21,7.89 11.21,21.17l-24.91 69.74c-3.32,9.13 -4.98,22.83 -4.98,41.09l26.15 82.18c9.14,28.23 19.51,54.8 31.13,79.7 5.81,20.75 9.96,36.11 12.45,46.07l41.09 99.63c25.73,63.09 43.58,96.71 53.55,100.86 4.15,-6.64 9.55,-31.13 16.19,-73.47l21.17 -134.49c1.66,-10.79 4.15,-69.32 7.47,-175.58 1.66,-44.89 8.69,-86.08 21.08,-123.58 3.58,-28.86 12.99,-54.09 28.23,-75.67l33.63 -16.19c9.96,-4.98 18.68,-7.47 26.15,-7.47 8.3,0 13.7,3.74 16.19,11.21 5.81,5.8 8.72,20.34 8.72,43.58l-4.98 54.79 -8.72 48.57 4.98 26.15z"/>
   </g>
   <polygon class="fil2" points="2050.35,217.52 2050.35,864.98 1942.44,864.98 1654.68,443.62 1654.68,864.98 1531.36,864.98 1531.36,217.52 1639.27,217.52 1927.02,638.88 1927.02,217.52 "/>
   <path id="1" class="fil2" d="M2571.91 721.1c-6.16,17.81 -15.58,35.63 -28.26,53.44 -12.68,17.81 -28.09,33.75 -46.25,47.79 -18.15,14.05 -38.71,25.52 -61.66,34.43 -22.95,8.91 -47.79,13.36 -74.51,13.36 -32.2,0 -62.52,-6.34 -90.95,-19.01 -28.43,-12.67 -53.44,-29.97 -75.02,-51.9 -21.58,-21.92 -38.71,-47.44 -51.39,-76.56 -12.68,-29.12 -19.01,-60.46 -19.01,-94.03 0,-33.57 6.34,-64.91 19.01,-94.03 12.68,-29.12 29.8,-54.64 51.39,-76.56 21.58,-21.92 46.59,-39.22 75.02,-51.9 28.43,-12.68 58.75,-19.01 90.95,-19.01 30.83,0 59.95,5.82 87.36,17.47 27.4,11.65 51.38,28.09 71.94,49.33 20.55,21.24 36.82,46.76 48.81,76.56 11.99,29.8 17.99,62.52 17.99,98.14 0,5.48 -0.34,10.79 -1.03,15.93 -0.68,5.14 -1.37,10.11 -2.06,14.9 -0.68,5.48 -1.37,10.62 -2.05,15.41l-328.87 0c5.48,23.3 17.13,42.82 34.95,58.58 17.81,15.76 42.14,23.63 72.96,23.63 15.76,0 28.95,-1.71 39.57,-5.14 10.62,-3.43 19.7,-7.53 27.23,-12.33 8.23,-5.48 15.08,-11.65 20.56,-18.5l123.32 0zm-210.68 -220.96c-30.83,0 -56.01,8.91 -75.53,26.72 -19.53,17.81 -32.03,39.74 -37.52,65.78l226.1 0c-5.48,-26.03 -17.98,-47.96 -37.51,-65.78 -19.53,-17.81 -44.7,-26.72 -75.54,-26.72z"/>
   <path id="2" class="fil2" d="M2744.05 628.61c0,39.05 11.31,70.23 33.92,93.52 22.61,23.3 50.7,34.94 84.27,34.94 33.57,0 61.66,-11.65 84.27,-34.94 22.61,-23.3 33.92,-54.47 33.92,-93.52 0,-39.05 -11.31,-70.23 -33.92,-93.52 -22.61,-23.29 -50.7,-34.94 -84.27,-34.94 -33.57,0 -61.66,11.65 -84.27,34.94 -22.61,23.3 -33.92,54.47 -33.92,93.52zm354.56 0c0,33.57 -6.34,64.92 -19.01,94.03 -12.68,29.12 -29.8,54.64 -51.39,76.56 -21.58,21.93 -46.59,39.23 -75.02,51.9 -28.43,12.68 -58.75,19.01 -90.95,19.01 -32.2,0 -62.52,-6.34 -90.95,-19.01 -28.43,-12.67 -53.44,-29.97 -75.02,-51.9 -21.58,-21.92 -38.71,-47.44 -51.39,-76.56 -12.68,-29.12 -19.01,-60.46 -19.01,-94.03 0,-33.57 6.34,-64.91 19.01,-94.03 12.68,-29.12 29.8,-54.64 51.39,-76.56 21.58,-21.92 46.59,-39.22 75.02,-51.9 28.43,-12.68 58.75,-19.01 90.95,-19.01 32.2,0 62.52,6.33 90.95,19.01 28.43,12.68 53.44,29.98 75.02,51.9 21.58,21.93 38.71,47.45 51.39,76.56 12.68,29.12 19.01,60.46 19.01,94.03z"/>
   <polygon id="3" class="fil2" points="3404.36,864.98 3317,864.98 3111.46,217.52 3234.79,217.52 3363.25,638.88 3496.85,217.52 3568.79,217.52 3702.39,638.88 3830.86,217.52 3954.18,217.52 3748.64,864.98 3661.29,864.98 3532.82,459.04 "/>
   <path id="4" class="fil2" d="M4167.44 387.1c26.72,0 51.39,4.62 74,13.87 22.61,9.25 42.14,22.1 58.58,38.54 16.44,16.44 29.29,35.97 38.54,58.58 9.25,22.61 13.88,47.28 13.88,74l0 292.9 -87.36 0 -20.55 -46.25c-10.96,9.59 -22.95,18.16 -35.97,25.7 -11.65,6.85 -25.7,12.85 -42.14,17.98 -16.45,5.14 -34.95,7.71 -55.5,7.71 -51.39,0 -90.78,-12.5 -118.19,-37.51 -27.4,-25.01 -41.1,-57.04 -41.1,-96.09 0,-23.3 4.62,-44.7 13.87,-64.23 9.25,-19.53 24.84,-36.31 46.76,-50.36 21.93,-14.05 50.87,-25.01 86.84,-32.89 35.97,-7.88 81.02,-11.81 135.15,-11.81 0,-26.04 -7.03,-46.25 -21.07,-60.64 -14.05,-14.39 -32.71,-21.58 -56.01,-21.58 -15.76,0 -28.27,2.74 -37.51,8.23 -9.25,5.48 -16.61,11.3 -22.1,17.47 -6.17,7.53 -10.28,16.1 -12.33,25.69l-118.19 0c2.74,-21.93 9.08,-42.48 19.01,-61.66 9.94,-19.18 23.47,-35.97 40.6,-50.36 17.13,-14.39 37.51,-25.87 61.15,-34.43 23.63,-8.56 50.19,-12.85 79.65,-12.85zm-35.97 390.53c30.83,0 55.67,-9.08 74.51,-27.23 18.84,-18.16 28.26,-41.62 28.26,-70.4l0 -20.55c-34.94,0 -63.03,1.54 -84.27,4.63 -21.24,3.08 -37.85,7.53 -49.84,13.36 -11.99,5.83 -20.04,12.85 -24.15,21.07 -4.11,8.22 -6.17,17.47 -6.17,27.75 0,13.01 5.83,24.83 17.47,35.45 11.65,10.62 26.38,15.93 44.19,15.93z"/>
   <polygon id="5" class="fil2" points="4848.29,392.24 4668.44,864.98 4555.39,864.98 4375.54,392.24 4498.87,392.24 4611.92,719.05 4724.97,392.24 "/>
   <path id="6" class="fil2" d="M5308.19 721.1c-6.16,17.81 -15.58,35.63 -28.26,53.44 -12.68,17.81 -28.09,33.75 -46.25,47.79 -18.15,14.05 -38.71,25.52 -61.66,34.43 -22.95,8.91 -47.79,13.36 -74.51,13.36 -32.2,0 -62.52,-6.34 -90.95,-19.01 -28.43,-12.67 -53.44,-29.97 -75.02,-51.9 -21.58,-21.92 -38.71,-47.44 -51.39,-76.56 -12.68,-29.12 -19.01,-60.46 -19.01,-94.03 0,-33.57 6.34,-64.91 19.01,-94.03 12.68,-29.12 29.8,-54.64 51.39,-76.56 21.58,-21.92 46.59,-39.22 75.02,-51.9 28.43,-12.68 58.75,-19.01 90.95,-19.01 30.83,0 59.95,5.82 87.36,17.47 27.4,11.65 51.38,28.09 71.94,49.33 20.55,21.24 36.82,46.76 48.81,76.56 11.99,29.8 17.99,62.52 17.99,98.14 0,5.48 -0.34,10.79 -1.03,15.93 -0.68,5.14 -1.37,10.11 -2.06,14.9 -0.68,5.48 -1.37,10.62 -2.05,15.41l-328.87 0c5.48,23.3 17.13,42.82 34.95,58.58 17.81,15.76 42.14,23.63 72.96,23.63 15.76,0 28.95,-1.71 39.57,-5.14 10.62,-3.43 19.7,-7.53 27.23,-12.33 8.23,-5.48 15.08,-11.65 20.56,-18.5l123.32 0zm-210.68 -220.96c-30.83,0 -56.01,8.91 -75.53,26.72 -19.53,17.81 -32.03,39.74 -37.52,65.78l226.1 0c-5.48,-26.03 -17.98,-47.96 -37.51,-65.78 -19.53,-17.81 -44.7,-26.72 -75.54,-26.72z"/>
  </g>
 </g>
</svg>
