<?xml version="1.0" encoding="UTF-8"?>
<!DOCTYPE svg PUBLIC "-//W3C//DTD SVG 1.1//EN" "http://www.w3.org/Graphics/SVG/1.1/DTD/svg11.dtd">
<!-- Creator: CorelDRAW 2019 (64-Bit) -->
<svg xmlns="http://www.w3.org/2000/svg" xml:space="preserve" width="60.2948mm" height="13.5121mm" version="1.1" style="shape-rendering:geometricPrecision; text-rendering:geometricPrecision; image-rendering:optimizeQuality; fill-rule:evenodd; clip-rule:evenodd"
viewBox="0 0 2871.09 643.41"
 xmlns:xlink="http://www.w3.org/1999/xlink"
 xmlns:xodm="http://www.corel.com/coreldraw/odm/2003">
 <defs>
  <style type="text/css">
   <![CDATA[
    .fil0 {fill:white}
    .fil1 {fill:white;fill-rule:nonzero}
   ]]>
  </style>
 </defs>
 <g id="Слой_x0020_1">
  <metadata id="CorelCorpID_0Corel-Layer"/>
  <g id="_2398704431536">
   <path class="fil0" d="M160.66 0l322.09 0c88.36,0 160.66,72.3 160.66,160.67l0 322.08c0,88.36 -72.3,160.66 -160.66,160.66l-322.09 0c-88.36,0 -160.66,-72.3 -160.66,-160.66l0 -322.08c0,-88.37 72.3,-160.67 160.66,-160.67zm234.94 207.9l0 51.56 0.73 28.73 3.69 24.31c0.98,6.39 1.47,11.54 1.47,15.47l0 8.84c0.99,6.88 1.47,13.26 1.47,19.16 3.93,3.93 5.65,8.35 5.16,13.26l-0.74 14.73c2.46,2.46 5.9,11.17 10.31,26.15 4.42,14.98 7.37,22.47 8.84,22.47 4.42,0 11.29,-10.55 20.63,-31.68l33.89 -76.61c15.71,-34.87 25.78,-60.9 30.2,-78.09 0,-23.08 1.47,-38.79 4.42,-47.14 4.91,-14.24 14.98,-24.31 30.2,-30.2l11.05 -4.42c6.39,0.5 9.58,6.63 9.58,18.42 0,3.44 -1.48,12.52 -4.42,27.25 -3.93,19.65 -7.37,30.2 -10.31,31.68 0,5.4 -4.91,20.87 -14.73,46.41l-33.88 88.4c-11.79,30.94 -25.54,58.93 -41.25,83.98 1.47,3.44 2.2,7.12 2.2,11.05 0,5.9 -3.68,12.4 -11.05,19.53 -7.37,7.12 -11.54,11.41 -12.52,12.89 -9.33,11.29 -17.43,18.17 -24.31,20.62l-13.99 2.21c-14.74,0 -22.1,-5.9 -22.1,-17.68 0,-7.37 3.68,-14.74 11.05,-22.1l-12.52 -30.2 -4.42 -26.52c-2.95,-1.96 -5.9,-8.84 -8.84,-20.62 -2.46,-10.31 -3.69,-18.42 -3.69,-24.31 -5.4,-14.74 -8.59,-27.01 -9.58,-36.84l0 -0.67c-5.88,52.2 -12.66,92.69 -20.33,121.48 -0.98,5.4 -2.7,11.78 -5.16,19.15l-9.58 16.94 -18.42 8.84c-5.4,3.93 -11.05,5.9 -16.94,5.9 -11.79,0 -26.28,-20.14 -43.46,-60.41l-39.04 -92.09 -16.21 -36.83c-7.37,-16.69 -12.03,-26.03 -13.99,-27.99 -2.95,2.95 -7.12,13.5 -12.52,31.68l-16.21 55.25c-9.33,35.36 -15.72,59.92 -19.16,73.66l-19.89 68.51c-1.48,4.42 -4.55,7.12 -9.21,8.1 -4.67,0.99 -7.49,2.45 -8.48,4.42 -4.41,-1.97 -6.63,-5.9 -6.63,-11.79l2.21 -13.99c2.45,-16.21 4.66,-27.99 6.62,-35.36 0.5,-6.88 1.72,-15.97 3.69,-27.26 6.39,-43.22 10.56,-66.3 12.52,-69.25 4.42,-21.12 8.35,-48.87 11.79,-83.24 5.9,-58.44 10.31,-90.61 13.26,-96.5l-0.73 -8.1c0,-11.29 1.72,-21.36 5.16,-30.2 1.97,-7.86 4.91,-11.79 8.84,-11.79l1.47 0 14.74 -2.21c10.79,0 16.45,2.21 16.94,6.63l4.42 -2.95c5.4,-3.43 9.09,-6.13 11.05,-8.1 9.34,-8.35 15.97,-12.52 19.89,-12.52 4.42,0.49 6.63,4.66 6.63,12.52l-14.73 41.25c-1.96,5.4 -2.95,13.51 -2.95,24.31l15.47 48.62c5.4,16.69 11.54,32.41 18.42,47.15 3.43,12.28 5.89,21.36 7.36,27.26l24.31 58.93c15.22,37.32 25.78,57.21 31.68,59.66 2.46,-3.93 5.65,-18.41 9.58,-43.46l12.52 -79.56c0.98,-6.38 2.46,-41 4.42,-103.87 0.99,-26.56 5.14,-50.92 12.47,-73.1 2.12,-17.08 7.69,-32 16.7,-44.77l19.89 -9.58c5.89,-2.95 11.05,-4.42 15.47,-4.42 4.91,0 8.1,2.2 9.58,6.63 3.44,3.43 5.16,12.03 5.16,25.78l-2.95 32.42 -5.16 28.73 2.95 15.47z"/>
   <path class="fil1" d="M890.69 235.68c0,-14.59 3.14,-28.58 9.42,-41.95 6.28,-13.37 15.2,-25.02 26.75,-34.96 11.55,-9.93 25.53,-17.93 41.95,-24.01 16.41,-6.08 34.96,-9.12 55.63,-9.12 19.05,0 36.38,3.04 51.98,9.12 15.6,6.08 29.08,14.59 40.43,25.53 11.35,10.95 20.06,23.81 26.14,38.61 6.08,14.79 9.12,30.9 9.12,48.33l-69.92 0c0,-17.02 -5.07,-30.4 -15.2,-40.13 -10.13,-9.72 -24.32,-14.59 -42.56,-14.59 -18.24,0 -32.42,4.46 -42.56,13.38 -10.13,8.92 -15.2,18.64 -15.2,29.18 0,11.35 4.87,20.07 14.59,26.14 9.73,6.08 21.89,11.55 36.48,16.42 14.59,4.86 30.5,9.93 47.72,15.19 17.23,5.27 33.13,12.36 47.73,21.28 14.59,8.92 26.75,20.57 36.48,34.96 9.73,14.39 14.59,33.13 14.59,56.24 0,13.78 -3.34,27.16 -10.03,40.13 -6.69,12.97 -16.11,24.62 -28.27,34.96 -12.16,10.33 -26.85,18.64 -44.08,24.92 -17.22,6.29 -36.38,9.42 -57.45,9.42 -21.48,0 -40.63,-3.04 -57.45,-9.12 -16.82,-6.08 -31.11,-14.69 -42.86,-25.84 -11.75,-11.15 -20.77,-24.32 -27.05,-39.52 -6.29,-15.2 -9.42,-31.92 -9.42,-50.16l72.95 0c0,17.02 5.68,30.9 17.02,41.65 11.35,10.74 26.96,16.11 46.81,16.11 21.48,0 37.49,-4.56 48.03,-13.68 10.54,-9.12 15.81,-19.76 15.81,-31.92 0,-11.76 -4.86,-20.88 -14.59,-27.36 -9.73,-6.49 -21.89,-12.26 -36.48,-17.32 -14.59,-5.07 -30.5,-10.03 -47.72,-14.89 -17.22,-4.87 -33.13,-11.55 -47.72,-20.07 -14.59,-8.51 -26.75,-19.55 -36.48,-33.13 -9.73,-13.58 -14.59,-31.51 -14.59,-53.8z"/>
   <path id="1" class="fil1" d="M1451.52 426.58c-3.65,10.54 -9.22,21.08 -16.72,31.61 -7.49,10.54 -16.61,19.96 -27.36,28.27 -10.74,8.3 -22.9,15.09 -36.48,20.37 -13.58,5.27 -28.27,7.9 -44.08,7.9 -19.05,0 -36.98,-3.75 -53.8,-11.25 -16.82,-7.49 -31.61,-17.73 -44.38,-30.7 -12.77,-12.97 -22.9,-28.07 -30.4,-45.29 -7.49,-17.22 -11.25,-35.77 -11.25,-55.63 0,-19.86 3.75,-38.4 11.25,-55.63 7.5,-17.23 17.63,-32.32 30.4,-45.29 12.77,-12.97 27.56,-23.2 44.38,-30.7 16.82,-7.5 34.76,-11.25 53.8,-11.25 18.24,0 35.47,3.44 51.68,10.33 16.21,6.89 30.39,16.62 42.56,29.18 12.16,12.57 21.79,27.67 28.88,45.29 7.1,17.63 10.64,36.98 10.64,58.06 0,3.24 -0.2,6.39 -0.61,9.42 -0.4,3.04 -0.81,5.98 -1.22,8.81 -0.4,3.24 -0.81,6.28 -1.21,9.12l-194.55 0c3.24,13.78 10.13,25.33 20.67,34.66 10.54,9.32 24.93,13.98 43.17,13.98 9.32,0 17.12,-1.01 23.41,-3.04 6.28,-2.03 11.65,-4.46 16.11,-7.3 4.86,-3.24 8.92,-6.89 12.16,-10.94l72.95 0zm-124.63 -130.71c-18.24,0 -33.13,5.27 -44.68,15.8 -11.55,10.54 -18.95,23.51 -22.19,38.91l133.75 0c-3.24,-15.4 -10.64,-28.37 -22.19,-38.91 -11.55,-10.54 -26.45,-15.8 -44.68,-15.8z"/>
   <path id="2" class="fil1" d="M1629.35 228.99c3.24,0 6.08,0.2 8.51,0.6 2.43,0.4 4.66,0.81 6.69,1.22 2.02,0.4 4.05,0.81 6.08,1.21l0 72.95c-2.03,-0.4 -4.26,-0.81 -6.69,-1.22 -2.02,-0.4 -4.56,-0.81 -7.6,-1.21 -3.04,-0.4 -6.38,-0.61 -10.03,-0.61 -17.02,0 -30.9,5.58 -41.65,16.72 -10.74,11.14 -16.11,25.84 -16.11,44.07l0 148.95 -69.92 0 0 -279.66 51.67 0 12.16 30.4c4.86,-6.08 10.74,-11.55 17.63,-16.42 5.68,-4.46 12.67,-8.41 20.98,-11.85 8.31,-3.45 17.73,-5.17 28.27,-5.17z"/>
   <polygon id="3" class="fil1" points="1934.84,232.03 1828.45,511.69 1761.58,511.69 1655.18,232.03 1728.14,232.03 1795.01,425.36 1861.89,232.03 "/>
   <path id="4" class="fil1" d="M2027.56 511.69l-69.92 0 0 -279.66 69.92 0 0 279.66zm-33.44 -316.13c-10.54,0 -19.76,-3.95 -27.67,-11.86 -7.9,-7.9 -11.85,-17.12 -11.85,-27.66 0,-10.54 3.95,-19.76 11.85,-27.66 7.9,-7.9 17.12,-11.86 27.67,-11.86 10.54,0 19.76,3.95 27.66,11.86 7.9,7.9 11.85,17.12 11.85,27.66 0,10.54 -3.95,19.76 -11.85,27.66 -7.9,7.9 -17.12,11.86 -27.66,11.86z"/>
   <path id="5" class="fil1" d="M2336.09 408.33c-3.24,13.78 -8.71,27.06 -16.41,39.82 -7.7,12.77 -17.22,24.11 -28.58,34.05 -11.35,9.93 -24.32,17.83 -38.91,23.71 -14.59,5.88 -30.19,8.81 -46.81,8.81 -19.05,0 -36.98,-3.75 -53.8,-11.25 -16.82,-7.49 -31.61,-17.73 -44.38,-30.7 -12.77,-12.97 -22.9,-28.07 -30.4,-45.29 -7.49,-17.22 -11.25,-35.77 -11.25,-55.63 0,-19.86 3.75,-38.4 11.25,-55.63 7.5,-17.23 17.63,-32.32 30.4,-45.29 12.77,-12.97 27.56,-23.2 44.38,-30.7 16.82,-7.5 34.76,-11.25 53.8,-11.25 16.62,0 32.22,2.94 46.81,8.81 14.59,5.88 27.56,13.78 38.91,23.71 11.35,9.93 20.88,21.28 28.58,34.05 7.7,12.77 13.17,26.04 16.41,39.82l-69.91 0c-3.24,-7.3 -7.7,-13.78 -13.38,-19.46 -4.87,-4.86 -11.15,-9.42 -18.85,-13.68 -7.7,-4.25 -17.23,-6.38 -28.58,-6.38 -19.86,0 -36.48,6.89 -49.85,20.67 -13.38,13.78 -20.06,32.22 -20.06,55.32 0,23.1 6.69,41.54 20.06,55.32 13.38,13.78 29.99,20.67 49.85,20.67 11.35,0 20.88,-2.02 28.58,-6.08 7.7,-4.05 13.98,-8.51 18.85,-13.37 5.67,-5.68 10.13,-12.36 13.38,-20.07l69.91 0z"/>
   <path id="6" class="fil1" d="M2620.31 426.58c-3.65,10.54 -9.22,21.08 -16.72,31.61 -7.49,10.54 -16.61,19.96 -27.36,28.27 -10.74,8.3 -22.9,15.09 -36.48,20.37 -13.58,5.27 -28.27,7.9 -44.08,7.9 -19.05,0 -36.98,-3.75 -53.8,-11.25 -16.82,-7.49 -31.61,-17.73 -44.38,-30.7 -12.77,-12.97 -22.9,-28.07 -30.4,-45.29 -7.49,-17.22 -11.25,-35.77 -11.25,-55.63 0,-19.86 3.75,-38.4 11.25,-55.63 7.5,-17.23 17.63,-32.32 30.4,-45.29 12.77,-12.97 27.56,-23.2 44.38,-30.7 16.82,-7.5 34.76,-11.25 53.8,-11.25 18.24,0 35.47,3.44 51.68,10.33 16.21,6.89 30.39,16.62 42.56,29.18 12.16,12.57 21.79,27.67 28.88,45.29 7.1,17.63 10.64,36.98 10.64,58.06 0,3.24 -0.2,6.39 -0.61,9.42 -0.4,3.04 -0.81,5.98 -1.22,8.81 -0.4,3.24 -0.81,6.28 -1.21,9.12l-194.55 0c3.24,13.78 10.13,25.33 20.67,34.66 10.54,9.32 24.93,13.98 43.17,13.98 9.32,0 17.12,-1.01 23.41,-3.04 6.28,-2.03 11.65,-4.46 16.11,-7.3 4.86,-3.24 8.92,-6.89 12.16,-10.94l72.95 0zm-124.63 -130.71c-18.24,0 -33.13,5.27 -44.68,15.8 -11.55,10.54 -18.95,23.51 -22.19,38.91l133.75 0c-3.24,-15.4 -10.64,-28.37 -22.19,-38.91 -11.55,-10.54 -26.45,-15.8 -44.68,-15.8z"/>
   <path id="7" class="fil1" d="M2719.1 423.53c1.62,9.32 6.08,17.23 13.38,23.71 7.3,6.48 17.02,9.72 29.18,9.72 12.16,0 21.79,-3.14 28.88,-9.42 7.1,-6.28 10.64,-13.27 10.64,-20.97 0,-6.49 -3.54,-11.55 -10.64,-15.2 -7.09,-3.65 -15.91,-6.99 -26.45,-10.03 -10.54,-3.04 -21.98,-6.18 -34.35,-9.42 -12.36,-3.24 -23.81,-8 -34.35,-14.29 -10.54,-6.28 -19.35,-14.39 -26.45,-24.32 -7.09,-9.93 -10.64,-23 -10.64,-39.21 0,-11.35 2.33,-22.19 6.99,-32.53 4.66,-10.33 11.45,-19.35 20.37,-27.05 8.92,-7.7 19.46,-13.88 31.61,-18.54 12.16,-4.66 25.94,-6.99 41.34,-6.99 33.64,0 59.48,8.1 77.52,24.32 18.03,16.21 28.68,36.48 31.91,60.79l-66.87 0c-1.62,-6.08 -5.98,-12.16 -13.07,-18.24 -7.09,-6.08 -15.9,-9.12 -26.44,-9.12 -10.54,0 -18.75,2.63 -24.62,7.9 -5.88,5.27 -8.82,11.76 -8.82,19.46 0,6.49 3.55,11.55 10.64,15.2 7.09,3.65 15.91,6.99 26.45,10.03 10.54,3.04 21.98,6.29 34.35,9.73 12.36,3.45 23.81,8.41 34.35,14.89 10.54,6.49 19.35,14.89 26.45,25.23 7.09,10.33 10.64,23.81 10.64,40.43 0,11.35 -2.43,22.19 -7.3,32.53 -4.87,10.33 -11.76,19.35 -20.67,27.05 -8.92,7.7 -19.76,13.88 -32.53,18.54 -12.77,4.66 -27.05,6.99 -42.86,6.99 -36.48,0 -64.14,-8.31 -82.98,-24.92 -18.85,-16.62 -29.69,-38.71 -32.53,-66.27l66.87 0z"/>
  </g>
 </g>
</svg>
