<?xml version="1.0" encoding="UTF-8"?>
<!DOCTYPE svg PUBLIC "-//W3C//DTD SVG 1.1//EN" "http://www.w3.org/Graphics/SVG/1.1/DTD/svg11.dtd">
<!-- Creator: CorelDRAW 2019 (64-Bit) -->
<svg xmlns="http://www.w3.org/2000/svg" xml:space="preserve" width="121.805mm" height="45.4415mm" version="1.1" style="shape-rendering:geometricPrecision; text-rendering:geometricPrecision; image-rendering:optimizeQuality; fill-rule:evenodd; clip-rule:evenodd"
viewBox="0 0 23276.78 8683.83"
 xmlns:xlink="http://www.w3.org/1999/xlink"
 xmlns:xodm="http://www.corel.com/coreldraw/odm/2003">
 <defs>
  <style type="text/css">
   <![CDATA[
    .fil0 {fill:#FEFEFE;fill-rule:nonzero}
   ]]>
  </style>
 </defs>
 <g id="Слой_x0020_1">
  <metadata id="CorelCorpID_0Corel-Layer"/>
  <g id="_2396607324848">
   <path class="fil0" d="M4384.89 1331.16c4.66,19.74 6.98,38.32 6.98,53.43 0,66.2 -40.65,110.34 -121.96,132.41 -4.64,2.31 -82.48,15.1 -234.63,37.17 -400.73,56.91 -813.09,103.38 -1235.91,139.39 -178.87,383.31 -398.4,1005.91 -658.6,1866.62 -240.44,785.23 -417,1441.5 -529.67,1968.86 -38.33,170.75 -95.24,255.54 -169.58,255.54 -47.62,0 -144.03,-25.55 -289.23,-75.5 -52.27,-15.1 -80.15,-46.46 -84.79,-91.77 4.64,45.31 6.96,-23.22 6.96,-207.92 0,-334.52 53.43,-638.86 159.15,-914.14 40.65,-102.22 85.96,-153.34 135.89,-153.34 13.95,0 40.67,4.66 80.15,15.12 39.5,10.45 72.03,17.41 96.41,19.74 61.57,-231.15 205.6,-688.8 434.43,-1371.81 257.87,-771.28 398.42,-1195.25 421.66,-1269.59 -350.8,26.72 -700.44,81.31 -1050.05,163.77 -387.97,95.26 -642.34,196.32 -763.15,302.01 -135.91,123.13 -204.44,243.94 -204.44,364.73 0,128.93 75.5,331.04 226.51,605.17 16.26,30.19 24.38,56.91 24.38,82.48 0,56.91 -26.72,84.79 -78.98,84.79 -36,0 -68.53,-22.07 -98.72,-65.05 -178.89,-255.54 -296.2,-455.33 -350.8,-598.2 -38.33,-99.91 -66.22,-243.94 -82.48,-433.26 -24.38,-276.46 203.29,-480.9 684.17,-612.15 626.08,-170.75 1256.8,-283.42 1894.5,-340.35 72.03,-144.03 125.46,-216.04 159.13,-216.04 52.28,0 140.55,55.74 266.01,167.25 59.24,0 241.61,-23.22 547.1,-68.53 54.58,-8.12 110.34,-48.79 167.25,-118.48 49.95,-66.2 168.43,-103.37 356.61,-112.67 102.22,-4.64 173.08,33.69 211.39,115 6.98,11.62 31.38,103.38 74.34,275.3z"/>
   <path id="1" class="fil0" d="M5339.69 4704.33c-552.91,706.23 -940.86,1059.34 -1166.2,1059.34 -106.86,0 -241.61,-74.34 -405.4,-221.85 -170.75,-80.17 -255.54,-187.03 -255.54,-320.61 0,-25.55 2.33,-51.1 6.98,-78.98 40.65,-311.3 124.29,-656.27 250.89,-1033.79 -83.62,-42.98 -125.46,-84.79 -125.46,-123.13 0,-31.36 23.24,-47.62 70.86,-47.62 37.17,0 74.34,10.45 112.67,31.36 200.96,-451.85 382.16,-773.59 542.45,-964.1 104.53,-126.6 197.46,-189.34 281.09,-189.34 38.33,0 133.58,32.53 285.75,98.74 -11.62,-68.53 8.14,-108.03 58.08,-119.65 2.33,0 55.76,0 160.29,0 98.74,0 147.53,17.43 147.53,51.12 0,6.96 -3.5,25.55 -10.45,58.08 -6.98,31.36 -10.45,61.55 -10.45,88.27 0,81.31 1.15,182.37 3.48,303.18 2.33,119.65 3.48,200.94 3.48,241.61 0,281.09 -76.65,477.4 -231.15,588.91 -140.53,102.22 -299.68,153.32 -476.24,153.32 -92.91,0 -246.25,-25.55 -462.29,-75.5 -38.33,69.69 -81.31,206.77 -128.93,411.21 -63.88,257.85 -92.93,486.69 -88.29,686.47 2.33,117.32 39.5,176.56 112.67,176.56 26.72,0 61.57,-6.96 105.7,-20.91 262.51,-91.77 629.58,-375.19 1098.84,-847.93 30.21,-29.05 59.24,-44.14 88.29,-44.14 42.98,0 65.05,20.91 65.05,61.55 0,24.4 -11.62,51.12 -33.69,77.83zm-398.42 -1505.38c0,-88.29 -19.74,-132.41 -58.08,-132.41 -24.38,0 -61.55,18.57 -109.17,54.58 -223.03,178.89 -418.16,493.67 -586.6,942.04 45.31,6.96 124.29,13.93 238.13,20.91 183.51,6.96 320.59,-34.86 411.19,-125.46 67.36,-68.53 104.53,-181.2 111.51,-336.85 -4.64,114.98 -6.98,-25.55 -6.98,-422.81z"/>
   <path id="2" class="fil0" d="M8636.21 6040.11c-211.41,326.42 -382.16,490.19 -511.09,490.19 -159.13,0 -386.8,-213.73 -682.99,-640.03 -296.2,-427.45 -550.58,-906 -760.82,-1436.84 -270.65,334.52 -457.66,725.97 -562.19,1174.32 -25.57,99.91 -54.6,149.84 -88.29,149.84 -13.93,0 -40.65,-8.12 -82.46,-24.38 -188.18,-81.31 -282.27,-163.77 -282.27,-247.42 0,-11.62 13.95,-88.27 40.67,-228.82 261.35,-1441.5 601.68,-2672.75 1022.17,-3693.77 313.61,-763.14 595.89,-1260.28 847.95,-1491.43 63.88,-61.57 126.6,-91.77 188.16,-91.77 62.74,0 145.2,37.17 245.1,112.67 112.67,92.93 226.49,187.01 340.33,279.94 31.36,23.22 47.62,48.79 47.62,75.5 0,40.65 -25.55,61.55 -77.82,61.55 -25.55,0 -49.95,-6.98 -75.5,-19.74 -104.55,-52.27 -182.37,-77.83 -234.63,-77.83 -142.88,0 -299.68,138.24 -469.28,414.69 -610.98,995.45 -1050.05,2292.92 -1317.21,3893.55 54.6,-111.51 177.72,-322.92 371.71,-636.53 -24.4,-78.98 -37.17,-126.6 -37.17,-139.39 0,-54.6 76.65,-96.41 229.99,-126.6 306.66,-449.52 557.55,-751.54 753.85,-906.02 69.69,-54.6 124.29,-81.31 162.63,-81.31 38.33,0 109.17,55.74 212.56,167.27 162.63,65.05 243.94,146.34 243.94,243.92 0,32.53 -4.66,73.17 -13.95,123.13 -42.98,188.18 -103.38,353.11 -183.53,496 -40.65,75.48 -83.62,112.67 -128.93,112.67 -31.36,0 -81.29,-12.78 -148.68,-37.19 -128.93,-45.29 -193.98,-92.91 -193.98,-140.53 0,-29.05 20.93,-52.28 61.57,-68.53 94.08,-81.31 153.32,-242.77 175.39,-484.38 4.64,-56.91 -10.45,-84.79 -44.14,-84.79 -19.74,0 -46.46,12.77 -80.15,37.17 -248.56,182.37 -461.14,447.19 -638.84,793.35 344.97,1068.63 738.75,1737.68 1178.99,2007.17 54.58,31.36 110.34,47.62 167.25,47.62 81.31,0 144.03,-24.38 187.01,-73.17 42.98,-48.79 82.48,-73.19 116.17,-73.19 31.36,0 47.62,17.43 47.62,51.12 0,20.91 -9.29,44.14 -26.72,72.01z"/>
   <path id="3" class="fil0" d="M11024.38 393.78c29.03,23.22 44.12,46.46 44.12,70.84 0,42.98 -25.55,65.05 -77.82,65.05 -23.24,0 -46.46,-6.98 -72.03,-19.74 -104.53,-52.27 -182.37,-77.83 -234.63,-77.83 -142.87,0 -299.68,138.24 -470.43,414.69 -616.79,1004.74 -1055.86,2302.21 -1317.21,3893.55 -6.98,44.14 -18.59,101.05 -33.69,174.24 52.27,-54.6 128.93,-142.88 231.15,-264.84 59.24,-70.86 102.22,-105.7 130.1,-105.7 59.24,0 62.72,34.84 12.77,105.7 -217.2,310.13 -362.4,634.22 -432.09,974.55 -25.55,83.62 -56.91,125.46 -95.24,125.46 -18.59,0 -42.98,-10.45 -72.03,-30.21 -116.15,-77.82 -182.37,-123.13 -197.46,-135.89 -45.29,-45.31 -68.53,-104.55 -68.53,-177.72 0,-36 5.81,-80.15 17.43,-132.41 262.51,-1443.83 602.84,-2673.92 1017.53,-3689.13 313.61,-766.63 593.55,-1262.61 840.97,-1489.12 68.53,-63.88 137.06,-94.08 204.44,-91.77 61.55,2.33 141.7,40.67 239.28,115 110.34,90.6 221.87,182.37 333.37,275.3z"/>
   <path id="4" class="fil0" d="M12129.03 3317.42c-315.94,1454.26 -612.15,2541.49 -888.59,3262.83 -535.48,1402 -1151.12,2103.58 -1845.73,2103.58 -406.54,0 -843.28,-220.7 -1310.23,-660.94 -40.67,-38.32 -61.57,-78.98 -61.57,-121.96 0,-68.53 31.36,-102.22 95.24,-102.22 31.38,0 62.74,12.78 91.77,37.17 370.54,314.78 700.44,471.59 990.81,471.59 533.17,0 1017.53,-444.88 1453.12,-1333.47 342.66,-696.94 641.18,-1630.82 895.57,-2804 16.26,-83.64 41.81,-212.58 77.82,-384.49 -238.11,387.97 -504.12,768.96 -799.14,1145.31 -284.58,363.57 -507.62,612.13 -671.39,748.04 -90.6,75.5 -162.63,112.67 -217.22,112.67 -42.98,0 -88.27,-24.4 -133.58,-72.03 -47.62,-60.39 -96.41,-120.79 -146.34,-180.03 -22.07,-26.72 -33.69,-52.27 -33.69,-75.5 0,-1.17 0,-3.48 0,-5.81 4.64,-27.88 24.38,-46.46 61.55,-58.08 108.03,-147.53 210.25,-466.95 305.49,-957.12 72.03,-386.8 121.98,-752.7 148.69,-1100.01 4.64,-82.48 -5.81,-123.13 -30.21,-123.13 -6.96,0 -60.39,41.81 -159.13,124.29 -157.96,135.89 -243.92,203.27 -257.87,203.27 -31.36,0 -47.62,-16.26 -47.62,-47.62 0,-16.26 6.98,-32.53 20.91,-47.62 38.33,-48.79 123.13,-168.43 256.7,-358.92 119.65,-170.77 199.79,-256.7 240.44,-256.7 31.38,0 74.34,13.93 128.93,41.81 115,-18.59 178.89,-27.88 192.82,-27.88 76.67,0 115,59.24 115,176.56 0,197.46 -56.93,584.27 -169.6,1159.25 -112.65,576.13 -204.42,947.83 -276.44,1115.08 226.51,-178.87 522.71,-530.84 886.28,-1054.7 354.28,-511.08 574.96,-895.57 660.92,-1154.58 4.64,-152.17 37.17,-227.68 98.74,-227.68 47.62,0 137.06,48.79 265.99,146.36 73.19,54.6 92.93,156.82 61.57,306.66z"/>
   <path class="fil0" d="M13060.46 4430.79l0 313.14 147.36 0 0 209.31 -147.36 0 0 418.64 147.36 0 0 209.31 -281.32 0c-22.32,0 -41.87,-8.1 -58.61,-24.29 -16.74,-16.19 -25.11,-35.43 -25.11,-57.77l0 -545.89 -103.82 0 0 -209.31 103.82 0 0 -313.14 217.68 0z"/>
   <path id="1" class="fil0" d="M13375.28 4827.64c0,-23.43 8.1,-43.25 24.29,-59.43 16.19,-16.19 36,-24.29 59.43,-24.29l678.19 0c22.32,0 41.58,8.1 57.77,24.29 16.19,16.19 24.29,36 24.29,59.43l0 356.69c0,22.32 -8.1,41.85 -24.29,58.61 -16.19,16.74 -36,25.11 -59.45,25.11l-544.21 0 0 103.82 627.95 0 0 209.31 -760.25 0c-23.43,0 -43.25,-8.1 -59.43,-24.29 -16.19,-16.19 -24.29,-36 -24.29,-59.43l0 -669.82zm216.02 125.59l0 105.51 411.93 0 0 -105.51 -411.93 0z"/>
   <path id="2" class="fil0" d="M14420.19 4827.64c0,-23.43 8.1,-43.25 24.29,-59.43 16.19,-16.19 36,-24.29 59.43,-24.29l676.51 0c23.45,0 43.26,8.1 59.45,24.29 16.19,16.19 24.29,36 24.29,59.43l0 177.51 -216.02 0 0 -51.92 -411.93 0 0 418.64 411.93 0 0 -51.92 216.02 0 0 177.51c0,23.43 -8.1,43.25 -24.29,59.43 -16.19,16.19 -36,24.29 -59.45,24.29l-676.51 0c-23.43,0 -43.25,-8.1 -59.43,-24.29 -16.19,-16.19 -24.29,-36 -24.29,-59.43l0 -669.82z"/>
   <path id="3" class="fil0" d="M15681.12 5581.19l-216.02 0 0 -1150.4 216.02 0 0 396.86c0,-22.32 8.37,-41.85 25.11,-58.61 16.74,-16.74 36.29,-25.11 58.61,-25.11l390.17 0c23.45,0 43.26,8.37 59.45,25.11 16.19,16.76 24.27,36.29 24.27,58.61l0 753.54 -216.02 0 0 -627.95 -257.87 0c-22.32,0 -41.87,8.1 -58.61,24.29 -16.74,16.19 -25.11,36 -25.11,59.45l0 544.21z"/>
   <path id="4" class="fil0" d="M16655.69 5581.19l-216.02 0 0 -837.26 216.02 0 0 83.72c0,-22.32 8.37,-41.85 25.11,-58.61 16.74,-16.74 36.29,-25.11 58.61,-25.11l390.17 0c23.45,0 43.26,8.37 59.45,25.11 16.19,16.76 24.27,36.29 24.27,58.61l0 753.54 -216.02 0 0 -627.95 -257.87 0c-22.32,0 -41.87,8.1 -58.61,24.29 -16.74,16.19 -25.11,36 -25.11,59.45l0 544.21z"/>
   <path id="5" class="fil0" d="M18042.19 4953.23l-411.93 0 0 418.64 411.93 0 0 -418.64zm216.02 544.23c0,23.43 -8.1,43.25 -24.29,59.43 -16.19,16.19 -36,24.29 -59.45,24.29l-676.51 0c-23.43,0 -43.25,-8.1 -59.43,-24.29 -16.19,-16.19 -24.29,-36 -24.29,-59.43l0 -668.14c0,-23.45 8.1,-43.53 24.29,-60.29 16.19,-16.74 36,-25.11 59.43,-25.11l676.51 0c23.45,0 43.26,8.37 59.45,25.11 16.19,16.76 24.29,36.29 24.29,58.61l0 669.82z"/>
   <path id="6" class="fil0" d="M18675.17 4430.79l0 941.09 75.35 0 0 209.31 -207.65 0c-23.43,0 -43.25,-8.1 -59.43,-24.29 -16.19,-16.19 -24.29,-35.43 -24.29,-57.77l0 -1068.34 216.02 0z"/>
   <path id="7" class="fil0" d="M19579.41 4953.23l-411.93 0 0 418.64 411.93 0 0 -418.64zm216.02 544.23c0,23.43 -8.1,43.25 -24.29,59.43 -16.19,16.19 -36,24.29 -59.45,24.29l-676.51 0c-23.43,0 -43.25,-8.1 -59.43,-24.29 -16.19,-16.19 -24.29,-36 -24.29,-59.43l0 -668.14c0,-23.45 8.1,-43.53 24.29,-60.29 16.19,-16.74 36,-25.11 59.43,-25.11l676.51 0c23.45,0 43.26,8.37 59.45,25.11 16.19,16.76 24.29,36.29 24.29,58.61l0 669.82z"/>
   <path id="8" class="fil0" d="M20468.59 5371.87c23.43,0 43.53,-8.37 60.27,-25.13 16.74,-16.74 25.11,-36.27 25.11,-58.61l0 -334.9 -341.59 0 0 418.64 256.21 0zm-391.85 522.45c-22.32,0 -41.3,-8.08 -56.93,-24.29 -15.63,-16.19 -23.45,-35.98 -23.45,-59.43l0 -177.51 216.02 0 0 51.92 341.59 0 0 -187.54c0,22.32 -8.37,41.85 -25.11,58.61 -16.74,16.74 -36.27,25.11 -58.61,25.11l-390.17 0c-23.43,0 -43.25,-8.37 -59.43,-25.11 -16.19,-16.76 -24.29,-36.29 -24.29,-58.61l0 -669.82c0,-22.32 8.1,-41.85 24.29,-58.61 16.19,-16.74 36,-25.11 59.43,-25.11l390.17 0c22.34,0 41.87,8.1 58.61,24.29 16.74,16.19 25.11,36 25.11,59.43l0 -83.72 216.02 0 0 1066.68c0,23.45 -8.37,43.25 -25.11,59.43 -16.74,16.21 -36.29,24.29 -58.61,24.29l-609.53 0z"/>
   <path id="9" class="fil0" d="M20970.94 4450.87c0,-13.4 6.71,-20.08 20.1,-20.08l175.81 0c13.4,0 20.1,6.69 20.1,20.08l0 169.14c0,13.4 -6.71,20.08 -20.1,20.08l-175.81 0c-13.4,0 -20.1,-6.69 -20.1,-20.08l0 -169.14zm216.02 1130.31l-216.02 0 0 -837.26 216.02 0 0 837.26z"/>
   <path id="10" class="fil0" d="M21387.9 4827.64c0,-23.43 8.1,-43.25 24.29,-59.43 16.19,-16.19 36,-24.29 59.43,-24.29l678.19 0c22.32,0 41.58,8.1 57.77,24.29 16.19,16.19 24.29,36 24.29,59.43l0 356.69c0,22.32 -8.1,41.85 -24.29,58.61 -16.19,16.74 -36,25.11 -59.45,25.11l-544.21 0 0 103.82 627.95 0 0 209.31 -760.25 0c-23.43,0 -43.25,-8.1 -59.43,-24.29 -16.19,-16.19 -24.29,-36 -24.29,-59.43l0 -669.82zm216.02 125.59l0 105.51 411.93 0 0 -105.51 -411.93 0z"/>
   <path id="11" class="fil0" d="M22516.53 5581.19c-23.43,0 -43.25,-8.1 -59.43,-24.29 -16.19,-16.19 -24.29,-36 -24.29,-59.43l0 -177.51 216.02 0 0 51.92 411.93 0 0 -103.82 -544.23 0c-23.43,0 -43.25,-8.37 -59.43,-25.11 -16.19,-16.76 -24.29,-36.29 -24.29,-58.61l0 -356.69c0,-22.32 8.1,-41.85 24.29,-58.61 16.19,-16.74 36,-25.11 59.43,-25.11l132.3 0 544.21 0c23.45,0 43.26,8.37 59.45,25.11 16.19,16.76 24.29,36.29 24.29,58.61l0 179.17 -216.02 0 0 -53.58 -411.93 0 0 105.51 544.21 0c23.45,0 43.26,8.08 59.45,24.27 16.19,16.19 24.29,35.45 24.29,57.77l0 358.35c0,22.34 -8.1,41.58 -24.29,57.77 -16.19,16.19 -36,24.29 -59.45,24.29l-676.51 0z"/>
  </g>
 </g>
</svg>
