<?xml version="1.0" encoding="UTF-8"?>
<!DOCTYPE svg PUBLIC "-//W3C//DTD SVG 1.1//EN" "http://www.w3.org/Graphics/SVG/1.1/DTD/svg11.dtd">
<!-- Creator: CorelDRAW 2019 (64-Bit) -->
<svg xmlns="http://www.w3.org/2000/svg" xml:space="preserve" width="67.668mm" height="13.5121mm" version="1.1" style="shape-rendering:geometricPrecision; text-rendering:geometricPrecision; image-rendering:optimizeQuality; fill-rule:evenodd; clip-rule:evenodd"
viewBox="0 0 2779.79 555.07"
 xmlns:xlink="http://www.w3.org/1999/xlink"
 xmlns:xodm="http://www.corel.com/coreldraw/odm/2003">
 <defs>
  <style type="text/css">
   <![CDATA[
    .fil0 {fill:white}
    .fil1 {fill:white;fill-rule:nonzero}
   ]]>
  </style>
 </defs>
 <g id="Слой_x0020_1">
  <metadata id="CorelCorpID_0Corel-Layer"/>
  <g id="_2396723254208">
   <path class="fil0" d="M138.6 0l277.87 0c76.23,0 138.6,62.37 138.6,138.61l0 277.86c0,76.23 -62.37,138.6 -138.6,138.6l-277.87 0c-76.23,0 -138.6,-62.37 -138.6,-138.6l0 -277.86c0,-76.24 62.38,-138.61 138.6,-138.61zm202.68 179.35l0 44.49 0.63 24.78 3.18 20.97c0.85,5.51 1.27,9.96 1.27,13.35l0 7.62c0.85,5.93 1.27,11.44 1.27,16.53 3.39,3.39 4.87,7.2 4.45,11.44l-0.64 12.71c2.12,2.12 5.09,9.64 8.9,22.56 3.81,12.92 6.36,19.38 7.62,19.38 3.81,0 9.74,-9.1 17.8,-27.33l29.24 -66.09c13.56,-30.08 22.24,-52.54 26.05,-67.37 0,-19.91 1.27,-33.47 3.82,-40.67 4.24,-12.29 12.92,-20.97 26.05,-26.06l9.53 -3.81c5.51,0.43 8.27,5.72 8.27,15.89 0,2.97 -1.27,10.8 -3.81,23.51 -3.39,16.95 -6.36,26.06 -8.9,27.33 0,4.66 -4.24,18.01 -12.71,40.04l-29.23 76.26c-10.17,26.69 -22.03,50.84 -35.59,72.45 1.27,2.97 1.9,6.15 1.9,9.53 0,5.09 -3.18,10.7 -9.53,16.85 -6.36,6.14 -9.96,9.85 -10.8,11.12 -8.05,9.74 -15.04,15.68 -20.97,17.79l-12.07 1.91c-12.71,0 -19.07,-5.09 -19.07,-15.25 0,-6.36 3.18,-12.71 9.53,-19.07l-10.8 -26.06 -3.81 -22.88c-2.54,-1.69 -5.09,-7.62 -7.62,-17.79 -2.12,-8.9 -3.18,-15.89 -3.18,-20.97 -4.66,-12.71 -7.41,-23.3 -8.27,-31.78l0 -0.58c-5.07,45.03 -10.92,79.97 -17.54,104.8 -0.85,4.66 -2.33,10.16 -4.45,16.52l-8.26 14.62 -15.89 7.62c-4.66,3.39 -9.53,5.09 -14.62,5.09 -10.17,0 -22.67,-17.38 -37.49,-52.11l-33.68 -79.44 -13.98 -31.77c-6.36,-14.4 -10.38,-22.45 -12.07,-24.15 -2.54,2.54 -6.14,11.65 -10.8,27.33l-13.98 47.66c-8.05,30.5 -13.56,51.69 -16.53,63.55l-17.15 59.1c-1.27,3.81 -3.92,6.15 -7.94,6.99 -4.03,0.85 -6.46,2.12 -7.31,3.81 -3.81,-1.7 -5.72,-5.09 -5.72,-10.17l1.91 -12.07c2.12,-13.98 4.02,-24.15 5.71,-30.51 0.43,-5.93 1.49,-13.77 3.18,-23.51 5.51,-37.28 9.11,-57.2 10.8,-59.74 3.81,-18.22 7.2,-42.16 10.17,-71.81 5.09,-50.42 8.9,-78.17 11.44,-83.25l-0.63 -6.99c0,-9.74 1.48,-18.43 4.45,-26.06 1.7,-6.78 4.24,-10.17 7.63,-10.17l1.27 0 12.71 -1.91c9.31,0 14.19,1.91 14.61,5.72l3.81 -2.54c4.66,-2.96 7.84,-5.29 9.53,-6.99 8.06,-7.21 13.77,-10.8 17.16,-10.8 3.82,0.42 5.72,4.02 5.72,10.8l-12.71 35.59c-1.69,4.66 -2.54,11.65 -2.54,20.98l13.35 41.94c4.66,14.4 9.96,27.96 15.89,40.67 2.96,10.59 5.08,18.42 6.35,23.51l20.98 50.84c13.13,32.2 22.24,49.36 27.33,51.47 2.12,-3.39 4.87,-15.89 8.26,-37.49l10.8 -68.64c0.85,-5.5 2.12,-35.37 3.81,-89.61 0.85,-22.91 4.44,-43.93 10.76,-63.06 1.83,-14.74 6.63,-27.61 14.41,-38.62l17.16 -8.26c5.08,-2.54 9.53,-3.81 13.34,-3.81 4.24,0 6.99,1.9 8.26,5.72 2.97,2.96 4.45,10.38 4.45,22.24l-2.54 27.97 -4.45 24.78 2.55 13.35z"/>
   <polygon class="fil1" points="755.29,111.01 1012.29,111.01 1012.29,171.33 915.26,171.33 915.26,441.44 852.32,441.44 852.32,171.33 755.29,171.33 "/>
   <path id="1" class="fil1" d="M1097.52 441.44l-60.32 0 0 -241.26 60.32 0 0 241.26zm-28.85 -272.73c-9.1,0 -17.05,-3.41 -23.87,-10.23 -6.82,-6.82 -10.22,-14.77 -10.22,-23.86 0,-9.09 3.41,-17.05 10.22,-23.86 6.82,-6.82 14.77,-10.23 23.87,-10.23 9.09,0 17.04,3.41 23.86,10.23 6.82,6.82 10.22,14.77 10.22,23.86 0,9.09 -3.41,17.04 -10.22,23.86 -6.82,6.82 -14.77,10.23 -23.86,10.23z"/>
   <path id="2" class="fil1" d="M1256.17 197.55c12.24,0 22.73,1.66 31.47,4.98 8.74,3.32 15.91,6.91 21.51,10.75 6.29,4.54 11.36,9.79 15.21,15.73 5.59,-5.94 12.06,-11.19 19.41,-15.73 6.29,-3.85 13.81,-7.43 22.55,-10.75 8.74,-3.32 18.35,-4.98 28.85,-4.98 26.22,0 47.2,8.39 62.93,25.17 15.74,16.79 23.6,41.61 23.6,74.48l0 144.23 -60.32 0 0 -138.99c0,-14.68 -3.93,-26.22 -11.8,-34.61 -7.87,-8.39 -17.05,-12.59 -27.54,-12.59 -10.49,0 -19.67,4.19 -27.54,12.59 -7.87,8.39 -11.8,19.93 -11.8,34.61l0 138.99 -60.31 0 0 -138.99c0,-14.68 -3.94,-26.22 -11.8,-34.61 -7.87,-8.39 -17.04,-12.59 -27.54,-12.59 -10.49,0 -19.67,4.19 -27.54,12.59 -7.87,8.39 -11.8,19.93 -11.8,34.61l0 138.99 -60.32 0 0 -241.26 44.58 0 10.49 23.6c4.89,-4.89 10.32,-9.26 16.26,-13.11 4.89,-3.15 10.84,-6.12 17.83,-8.91 6.99,-2.8 14.86,-4.19 23.6,-4.19z"/>
   <path id="3" class="fil1" d="M1740 368.01c-3.15,9.09 -7.95,18.18 -14.42,27.27 -6.47,9.09 -14.33,17.22 -23.6,24.39 -9.27,7.16 -19.76,13.02 -31.47,17.57 -11.72,4.54 -24.39,6.82 -38.03,6.82 -16.43,0 -31.91,-3.23 -46.42,-9.7 -14.51,-6.47 -27.27,-15.29 -38.29,-26.48 -11.01,-11.19 -19.76,-24.21 -26.23,-39.08 -6.47,-14.86 -9.7,-30.86 -9.7,-47.99 0,-17.13 3.24,-33.13 9.7,-47.99 6.47,-14.86 15.21,-27.88 26.23,-39.08 11.01,-11.19 23.78,-20.02 38.29,-26.48 14.51,-6.47 29.98,-9.7 46.42,-9.7 15.73,0 30.6,2.97 44.58,8.91 13.98,5.94 26.22,14.34 36.71,25.17 10.49,10.84 18.79,23.87 24.91,39.08 6.12,15.21 9.18,31.91 9.18,50.09 0,2.8 -0.18,5.51 -0.53,8.13 -0.35,2.62 -0.7,5.16 -1.05,7.6 -0.35,2.8 -0.7,5.42 -1.05,7.87l-167.84 0c2.8,11.89 8.74,21.85 17.83,29.9 9.09,8.04 21.51,12.06 37.24,12.06 8.04,0 14.77,-0.88 20.19,-2.62 5.42,-1.75 10.05,-3.85 13.9,-6.29 4.19,-2.8 7.69,-5.94 10.49,-9.44l62.93 0zm-107.52 -112.76c-15.73,0 -28.58,4.54 -38.55,13.63 -9.97,9.09 -16.35,20.28 -19.14,33.57l115.39 0c-2.8,-13.29 -9.18,-24.48 -19.14,-33.57 -9.97,-9.09 -22.82,-13.63 -38.55,-13.63z"/>
   <path id="4" class="fil1" d="M1806.88 142.48l52.45 0 0 57.69 52.45 0 0 55.07 -52.45 0 0 99.65c0,10.49 3.06,18.79 9.18,24.91 6.12,6.12 14.42,9.18 24.91,9.18 2.8,0 5.07,-0.09 6.82,-0.26 1.75,-0.18 3.32,-0.44 4.72,-0.79 1.4,-0.35 2.8,-0.88 4.19,-1.57l0 52.45c-2.45,1.05 -5.25,1.92 -8.39,2.62 -5.94,1.75 -12.76,2.62 -20.45,2.62 -11.89,0 -22.82,-2.01 -32.78,-6.03 -9.97,-4.02 -18.54,-9.88 -25.7,-17.57 -7.16,-7.69 -12.76,-16.79 -16.78,-27.27 -4.02,-10.49 -6.03,-22.38 -6.03,-35.67l0 -102.27 -36.72 0 0 -49.83 15.74 0c19.23,0 28.85,-9.62 28.85,-28.85l0 -34.09z"/>
   <path id="5" class="fil1" d="M2044.2 197.55c13.64,0 26.23,2.36 37.76,7.08 11.54,4.72 21.5,11.28 29.89,19.67 8.39,8.39 14.95,18.36 19.67,29.89 4.72,11.54 7.08,24.13 7.08,37.76l0 149.48 -44.58 0 -10.49 -23.6c-5.6,4.89 -11.72,9.26 -18.36,13.11 -5.94,3.5 -13.11,6.55 -21.51,9.18 -8.39,2.62 -17.83,3.93 -28.32,3.93 -26.23,0 -46.33,-6.38 -60.31,-19.14 -13.99,-12.76 -20.98,-29.11 -20.98,-49.04 0,-11.89 2.36,-22.82 7.08,-32.78 4.72,-9.97 12.68,-18.53 23.86,-25.7 11.19,-7.17 25.96,-12.76 44.32,-16.78 18.35,-4.02 41.35,-6.03 68.97,-6.03 0,-13.29 -3.58,-23.6 -10.75,-30.94 -7.17,-7.35 -16.7,-11.02 -28.59,-11.02 -8.04,0 -14.42,1.4 -19.14,4.2 -4.72,2.8 -8.48,5.77 -11.28,8.91 -3.15,3.85 -5.24,8.22 -6.29,13.11l-60.31 0c1.4,-11.19 4.63,-21.68 9.7,-31.47 5.07,-9.79 11.97,-18.36 20.72,-25.7 8.74,-7.35 19.14,-13.2 31.2,-17.57 12.07,-4.37 25.61,-6.56 40.65,-6.56zm-18.35 199.3c15.73,0 28.41,-4.63 38.02,-13.9 9.62,-9.26 14.42,-21.24 14.42,-35.92l0 -10.49c-17.83,0 -32.17,0.79 -43.01,2.36 -10.84,1.57 -19.32,3.85 -25.44,6.82 -6.12,2.97 -10.22,6.56 -12.32,10.75 -2.1,4.19 -3.15,8.91 -3.15,14.16 0,6.64 2.97,12.67 8.92,18.1 5.94,5.42 13.46,8.13 22.55,8.13z"/>
   <path id="6" class="fil1" d="M2305.13 444.06c-10.49,0 -19.93,-1.31 -28.32,-3.93 -8.39,-2.63 -15.56,-5.68 -21.51,-9.18 -6.99,-3.85 -13.11,-8.22 -18.35,-13.11l-10.49 23.6 -44.58 0 0 -330.43 60.32 0 0 110.14c4.89,-4.19 10.49,-8.04 16.78,-11.54 5.6,-2.8 12.15,-5.5 19.67,-8.13 7.52,-2.62 16.35,-3.93 26.48,-3.93 15.04,0 29.37,3.06 43.01,9.18 13.63,6.12 25.61,14.69 35.92,25.7 10.32,11.01 18.54,24.04 24.65,39.08 6.12,15.04 9.18,31.47 9.18,49.3 0,17.83 -3.06,34.26 -9.18,49.3 -6.12,15.04 -14.34,28.06 -24.65,39.08 -10.32,11.01 -22.29,19.58 -35.92,25.7 -13.64,6.12 -27.98,9.18 -43.01,9.18zm-68.18 -123.25c0,19.93 5.77,35.84 17.31,47.73 11.54,11.89 25.88,17.83 43.01,17.83 17.13,0 31.47,-5.94 43.01,-17.83 11.54,-11.89 17.31,-27.79 17.31,-47.73 0,-19.93 -5.77,-35.84 -17.31,-47.73 -11.54,-11.89 -25.88,-17.83 -43.01,-17.83 -17.13,0 -31.47,5.94 -43.01,17.83 -11.54,11.89 -17.31,27.79 -17.31,47.73z"/>
   <polygon id="7" class="fil1" points="2510.99,441.44 2450.67,441.44 2450.67,111.01 2510.99,111.01 "/>
   <path id="8" class="fil1" d="M2771.92 368.01c-3.15,9.09 -7.95,18.18 -14.42,27.27 -6.47,9.09 -14.33,17.22 -23.6,24.39 -9.27,7.16 -19.76,13.02 -31.47,17.57 -11.72,4.54 -24.39,6.82 -38.03,6.82 -16.43,0 -31.91,-3.23 -46.42,-9.7 -14.51,-6.47 -27.27,-15.29 -38.29,-26.48 -11.01,-11.19 -19.76,-24.21 -26.23,-39.08 -6.47,-14.86 -9.7,-30.86 -9.7,-47.99 0,-17.13 3.24,-33.13 9.7,-47.99 6.47,-14.86 15.21,-27.88 26.23,-39.08 11.01,-11.19 23.78,-20.02 38.29,-26.48 14.51,-6.47 29.98,-9.7 46.42,-9.7 15.73,0 30.6,2.97 44.58,8.91 13.98,5.94 26.22,14.34 36.71,25.17 10.49,10.84 18.79,23.87 24.91,39.08 6.12,15.21 9.18,31.91 9.18,50.09 0,2.8 -0.18,5.51 -0.53,8.13 -0.35,2.62 -0.7,5.16 -1.05,7.6 -0.35,2.8 -0.7,5.42 -1.05,7.87l-167.84 0c2.8,11.89 8.74,21.85 17.83,29.9 9.09,8.04 21.51,12.06 37.24,12.06 8.04,0 14.77,-0.88 20.19,-2.62 5.42,-1.75 10.05,-3.85 13.9,-6.29 4.19,-2.8 7.69,-5.94 10.49,-9.44l62.93 0zm-107.52 -112.76c-15.73,0 -28.58,4.54 -38.55,13.63 -9.97,9.09 -16.35,20.28 -19.14,33.57l115.39 0c-2.8,-13.29 -9.18,-24.48 -19.14,-33.57 -9.97,-9.09 -22.82,-13.63 -38.55,-13.63z"/>
  </g>
 </g>
</svg>
