<?xml version="1.0" encoding="UTF-8"?>
<!DOCTYPE svg PUBLIC "-//W3C//DTD SVG 1.1//EN" "http://www.w3.org/Graphics/SVG/1.1/DTD/svg11.dtd">
<!-- Creator: CorelDRAW 2019 (64-Bit) -->
<svg xmlns="http://www.w3.org/2000/svg" xml:space="preserve" width="125.267mm" height="21.3309mm" version="1.1" style="shape-rendering:geometricPrecision; text-rendering:geometricPrecision; image-rendering:optimizeQuality; fill-rule:evenodd; clip-rule:evenodd"
viewBox="0 0 8769.46 1493.29"
 xmlns:xlink="http://www.w3.org/1999/xlink"
 xmlns:xodm="http://www.corel.com/coreldraw/odm/2003">
 <defs>
  <style type="text/css">
   <![CDATA[
    .fil0 {fill:white}
    .fil1 {fill:white;fill-rule:nonzero}
   ]]>
  </style>
 </defs>
 <g id="Слой_x0020_1">
  <metadata id="CorelCorpID_0Corel-Layer"/>
  <g id="_2396718566144">
   <path class="fil0" d="M372.88 0l747.54 0c205.08,0 372.88,167.79 372.88,372.88l0 747.54c0,205.08 -167.8,372.87 -372.88,372.87l-747.54 0c-205.08,0 -372.88,-167.79 -372.88,-372.87l0 -747.54c0,-205.09 167.8,-372.88 372.88,-372.88zm545.26 482.5l0 119.68 1.7 66.67 8.55 56.42c2.28,14.81 3.42,26.78 3.42,35.89l0 20.52c2.29,15.96 3.42,30.77 3.42,44.46 9.13,9.11 13.11,19.37 11.97,30.77l-1.71 34.18c5.7,5.71 13.67,25.93 23.93,60.7 10.26,34.76 17.1,52.15 20.52,52.15 10.26,0 26.22,-24.5 47.87,-73.51l78.65 -177.81c36.47,-80.93 59.84,-141.34 70.1,-181.23 0,-53.57 3.42,-90.04 10.26,-109.41 11.4,-33.06 34.76,-56.42 70.1,-70.1l25.64 -10.26c14.81,1.14 22.23,15.38 22.23,42.74 0,7.99 -3.42,29.07 -10.26,63.26 -9.11,45.59 -17.1,70.1 -23.94,73.51 0,12.55 -11.4,48.44 -34.19,107.72l-78.65 205.16c-27.34,71.81 -59.26,136.78 -95.73,194.91 3.42,7.97 5.12,16.52 5.12,25.64 0,13.67 -8.55,28.77 -25.64,45.31 -17.1,16.53 -26.79,26.5 -29.07,29.92 -21.66,26.22 -40.46,42.17 -56.42,47.86l-32.48 5.14c-34.2,0 -51.29,-13.69 -51.29,-41.04 0,-17.1 8.55,-34.2 25.64,-51.29l-29.05 -70.1 -10.26 -61.56c-6.84,-4.54 -13.68,-20.5 -20.51,-47.86 -5.7,-23.93 -8.55,-42.74 -8.55,-56.41 -12.55,-34.2 -19.95,-62.7 -22.23,-85.49l0.01 -1.55c-13.64,121.14 -29.37,215.12 -47.19,281.94 -2.28,12.53 -6.27,27.34 -11.97,44.45l-22.23 39.32 -42.74 20.52c-12.55,9.11 -25.64,13.68 -39.32,13.68 -27.36,0 -60.98,-46.74 -100.88,-140.19l-90.61 -213.72 -37.62 -85.48c-17.09,-38.75 -27.92,-60.41 -32.48,-64.97 -6.83,6.83 -16.53,31.34 -29.06,73.51l-37.61 128.23c-21.66,82.05 -36.47,139.05 -44.46,170.96l-46.15 159c-3.42,10.26 -10.54,16.54 -21.37,18.81 -10.83,2.28 -17.38,5.68 -19.67,10.26 -10.25,-4.57 -15.38,-13.69 -15.38,-27.36l5.13 -32.48c5.71,-37.61 10.83,-64.97 15.39,-82.06 1.14,-15.96 3.99,-37.05 8.55,-63.26 14.81,-100.31 24.51,-153.87 29.07,-160.71 10.26,-49.02 19.37,-113.42 27.34,-193.2 13.69,-135.64 23.94,-210.3 30.77,-223.97l-1.71 -18.8c0,-26.22 4,-49.59 11.97,-70.1 4.56,-18.24 11.41,-27.36 20.53,-27.36l3.42 0 34.2 -5.12c25.06,0 38.17,5.12 39.32,15.39l10.26 -6.85c12.55,-7.97 21.09,-14.24 25.64,-18.8 21.67,-19.38 37.05,-29.07 46.16,-29.07 10.26,1.13 15.39,10.82 15.39,29.07l-34.2 95.74c-4.55,12.54 -6.85,31.35 -6.85,56.42l35.91 112.84c12.54,38.75 26.79,75.22 42.75,109.43 7.97,28.49 13.67,49.57 17.09,63.25l56.42 136.78c35.33,86.62 59.84,132.77 73.51,138.48 5.71,-9.12 13.11,-42.75 22.23,-100.87l29.07 -184.65c2.28,-14.81 5.7,-95.17 10.26,-241.07 2.29,-61.64 11.94,-118.19 28.95,-169.66 4.93,-39.64 17.84,-74.26 38.76,-103.9l46.16 -22.22c13.67,-6.85 25.64,-10.26 35.9,-10.26 11.4,0 18.81,5.12 22.23,15.39 7.98,7.97 11.96,27.93 11.96,59.83l-6.83 75.23 -11.98 66.67 6.85 35.91z"/>
   <polygon class="fil1" points="2335.29,1187.57 2017.82,298.65 2194.2,298.65 2419.96,947.71 2645.71,298.65 2822.1,298.65 2504.62,1187.57 "/>
   <polygon id="1" class="fil1" points="3375.91,1187.57 3058.43,785.44 3058.43,1187.57 2889.11,1187.57 2889.11,298.65 3058.43,298.65 3058.43,693.72 3354.74,298.65 3552.28,298.65 3220.7,736.06 3573.45,1187.57 "/>
   <polygon id="2" class="fil1" points="4871.57,298.65 4871.57,1187.57 4702.25,1187.57 4702.25,693.72 4476.48,1187.57 4363.61,1187.57 4137.84,693.72 4137.84,1187.57 3968.53,1187.57 3968.53,298.65 4116.68,298.65 4420.04,954.76 4723.41,298.65 "/>
   <path id="3" class="fil1" d="M5171.4 1187.57l-162.27 0 0 -649.06 162.27 0 0 649.06zm-77.6 -733.72c-24.46,0 -45.86,-9.17 -64.2,-27.51 -18.34,-18.35 -27.51,-39.74 -27.51,-64.2 0,-24.46 9.17,-45.86 27.51,-64.2 18.34,-18.34 39.74,-27.51 64.2,-27.51 24.45,0 45.85,9.17 64.2,27.51 18.35,18.34 27.52,39.74 27.52,64.2 0,24.46 -9.17,45.85 -27.52,64.2 -18.34,18.34 -39.74,27.51 -64.2,27.51z"/>
   <path id="4" class="fil1" d="M5626.46 531.46c38.57,0 73.84,6.35 105.82,19.05 31.99,12.7 59.5,31.05 82.54,55.03 23.05,23.98 40.92,52.91 53.62,86.78 12.7,33.86 19.05,71.96 19.05,114.28l0 380.97 -162.27 0 0 -359.8c0,-42.33 -12.46,-76.43 -37.39,-102.3 -24.93,-25.87 -57.15,-38.8 -96.65,-38.8 -39.51,0 -71.73,12.94 -96.66,38.8 -24.92,25.87 -37.39,59.97 -37.39,102.3l0 359.8 -162.27 0 0 -649.06 119.94 0 28.22 63.5c15.99,-13.17 33.39,-24.93 52.2,-35.28 15.99,-8.46 35.04,-16.46 57.15,-23.98 22.11,-7.53 46.8,-11.29 74.08,-11.29z"/>
   <path id="5" class="fil1" d="M6166.16 1187.57l-162.27 0 0 -649.06 162.27 0 0 649.06zm-77.6 -733.72c-24.46,0 -45.86,-9.17 -64.2,-27.51 -18.34,-18.35 -27.51,-39.74 -27.51,-64.2 0,-24.46 9.17,-45.86 27.51,-64.2 18.34,-18.34 39.74,-27.51 64.2,-27.51 24.45,0 45.85,9.17 64.2,27.51 18.35,18.34 27.52,39.74 27.52,64.2 0,24.46 -9.17,45.85 -27.52,64.2 -18.34,18.34 -39.74,27.51 -64.2,27.51z"/>
   <path id="6" class="fil1" d="M6730.56 1187.57l-176.37 0 331.58 -888.93 155.21 0 331.59 888.93 -176.38 0 -63.5 -183.43 -338.64 0 -63.5 183.43zm345.7 -338.64l-112.88 -324.53 -112.88 324.53 225.76 0z"/>
   <path id="7" class="fil1" d="M7742.96 531.46c40.45,0 79.02,8.23 115.7,24.7 36.68,16.46 68.91,39.5 96.66,69.14 27.74,29.63 49.85,64.67 66.32,105.12 16.46,40.44 24.69,84.66 24.69,132.63 0,47.97 -8.23,92.18 -24.69,132.63 -16.47,40.45 -38.57,75.49 -66.32,105.11 -27.75,29.63 -59.97,52.68 -96.66,69.14 -36.68,16.46 -75.25,24.69 -115.7,24.69 -27.28,0 -51.03,-3.3 -71.26,-9.88 -20.22,-6.59 -37.86,-13.64 -52.91,-21.16 -16.93,-9.41 -31.99,-20.22 -45.15,-32.45l0 282.2 -162.27 0 0 -874.82 119.94 0 28.22 63.5c14.11,-13.17 30.57,-24.93 49.38,-35.28 15.99,-8.46 35.28,-16.46 57.85,-23.98 22.58,-7.53 47.98,-11.29 76.19,-11.29zm-183.43 331.59c0,53.62 15.52,96.41 46.56,128.4 31.04,31.99 69.61,47.98 115.7,47.98 46.09,0 84.67,-15.99 115.71,-47.98 31.04,-31.99 46.56,-74.78 46.56,-128.4 0,-53.62 -15.52,-96.42 -46.56,-128.4 -31.04,-31.98 -69.61,-47.98 -115.71,-47.98 -46.09,0 -84.66,16 -115.7,47.98 -31.04,31.99 -46.56,74.79 -46.56,128.4z"/>
   <path id="8" class="fil1" d="M8466.1 531.46c40.45,0 79.02,8.23 115.7,24.7 36.68,16.46 68.91,39.5 96.66,69.14 27.74,29.63 49.85,64.67 66.32,105.12 16.46,40.44 24.69,84.66 24.69,132.63 0,47.97 -8.23,92.18 -24.69,132.63 -16.47,40.45 -38.57,75.49 -66.32,105.11 -27.75,29.63 -59.97,52.68 -96.66,69.14 -36.68,16.46 -75.25,24.69 -115.7,24.69 -27.28,0 -51.03,-3.3 -71.26,-9.88 -20.22,-6.59 -37.86,-13.64 -52.91,-21.16 -16.93,-9.41 -31.99,-20.22 -45.15,-32.45l0 282.2 -162.27 0 0 -874.82 119.94 0 28.22 63.5c14.11,-13.17 30.57,-24.93 49.38,-35.28 15.99,-8.46 35.28,-16.46 57.85,-23.98 22.58,-7.53 47.98,-11.29 76.19,-11.29zm-183.43 331.59c0,53.62 15.52,96.41 46.56,128.4 31.04,31.99 69.61,47.98 115.7,47.98 46.09,0 84.67,-15.99 115.71,-47.98 31.04,-31.99 46.56,-74.78 46.56,-128.4 0,-53.62 -15.52,-96.42 -46.56,-128.4 -31.04,-31.98 -69.61,-47.98 -115.71,-47.98 -46.09,0 -84.66,16 -115.7,47.98 -31.04,31.99 -46.56,74.79 -46.56,128.4z"/>
  </g>
 </g>
</svg>
